<svg width="154" height="48" viewBox="0 0 154 48" fill="none" xmlns="http://www.w3.org/2000/svg">
<path d="M81.439 41.6795V20.2478H86.2734V41.6795H81.439ZM74.6338 24.1585V19.9399H92.87V24.1585H74.6338Z" fill="#F9F9F9"/>
<path d="M97.7227 42.0182C96.183 42.0182 94.7871 41.6795 93.5349 41.0021C92.3032 40.3041 91.3281 39.3598 90.6096 38.1692C89.8911 36.9785 89.5318 35.6442 89.5318 34.1661C89.5318 32.6881 89.8911 31.364 90.6096 30.1939C91.3281 29.0238 92.3032 28.1 93.5349 27.4225C94.7666 26.7246 96.1625 26.3756 97.7227 26.3756C99.2828 26.3756 100.679 26.7143 101.91 27.3917C103.142 28.0692 104.117 29.0032 104.836 30.1939C105.554 31.364 105.914 32.6881 105.914 34.1661C105.914 35.6442 105.554 36.9785 104.836 38.1692C104.117 39.3598 103.142 40.3041 101.91 41.0021C100.679 41.6795 99.2828 42.0182 97.7227 42.0182ZM97.7227 37.7381C98.4001 37.7381 98.9954 37.5944 99.5086 37.307C100.022 36.999 100.412 36.5782 100.679 36.0445C100.966 35.4902 101.11 34.8641 101.11 34.1661C101.11 33.4682 100.966 32.8626 100.679 32.3494C100.391 31.8156 99.9911 31.405 99.4778 31.1176C98.9852 30.8097 98.4001 30.6558 97.7227 30.6558C97.0658 30.6558 96.4807 30.8097 95.9675 31.1176C95.4543 31.405 95.054 31.8156 94.7666 32.3494C94.4792 32.8831 94.3355 33.4989 94.3355 34.1969C94.3355 34.8743 94.4792 35.4902 94.7666 36.0445C95.054 36.5782 95.4543 36.999 95.9675 37.307C96.4807 37.5944 97.0658 37.7381 97.7227 37.7381Z" fill="#F9F9F9"/>
<path d="M109.867 41.6795V25.421C109.867 24.2098 110.134 23.1218 110.668 22.157C111.222 21.1716 111.992 20.4018 112.978 19.8475C113.963 19.2727 115.133 18.9854 116.488 18.9854C117.514 18.9854 118.407 19.1598 119.167 19.5088C119.947 19.8373 120.624 20.2992 121.199 20.8945L118.243 23.8506C118.038 23.6453 117.802 23.4913 117.535 23.3887C117.289 23.2655 116.991 23.2039 116.642 23.2039C116.005 23.2039 115.503 23.3887 115.133 23.7582C114.764 24.1277 114.579 24.6307 114.579 25.267V41.6795H109.867ZM106.573 30.7173V26.7143H118.89V30.7173H106.573Z" fill="#F9F9F9"/>
<path d="M128.021 42.0182C126.646 42.0182 125.424 41.7411 124.357 41.1868C123.31 40.612 122.489 39.832 121.893 38.8466C121.298 37.8407 121 36.6911 121 35.3978V26.7143H125.712V35.3362C125.712 35.8495 125.794 36.2908 125.958 36.6603C126.143 37.0298 126.41 37.3172 126.759 37.5225C127.108 37.7278 127.528 37.8304 128.021 37.8304C128.719 37.8304 129.273 37.6149 129.684 37.1838C130.095 36.7322 130.3 36.1163 130.3 35.3362V26.7143H135.011V35.367C135.011 36.6809 134.713 37.8407 134.118 38.8466C133.523 39.832 132.702 40.612 131.655 41.1868C130.608 41.7411 129.397 42.0182 128.021 42.0182Z" fill="#F9F9F9"/>
<path d="M11.4949 42.0489C9.85266 42.0489 8.33355 41.7615 6.93762 41.1867C5.56222 40.6119 4.35104 39.8113 3.30409 38.7849C2.25714 37.7585 1.44627 36.5678 0.871471 35.213C0.296675 33.8376 0.00927734 32.3595 0.00927734 30.7788C0.00927734 29.1776 0.296675 27.6996 0.871471 26.3447C1.44627 24.9898 2.24688 23.8094 3.2733 22.8035C4.29972 21.7771 5.50063 20.9868 6.87604 20.4325C8.27197 19.8577 9.79107 19.5703 11.4333 19.5703C13.0551 19.5703 14.5537 19.8577 15.9291 20.4325C17.325 20.9868 18.5362 21.7771 19.5626 22.8035C20.6096 23.8094 21.4204 25.0001 21.9952 26.3755C22.57 27.7304 22.8574 29.2084 22.8574 30.8096C22.8574 32.3903 22.57 33.8684 21.9952 35.2438C21.4204 36.5986 20.6198 37.7893 19.5934 38.8157C18.567 39.8216 17.3558 40.6119 15.9599 41.1867C14.5845 41.7615 13.0961 42.0489 11.4949 42.0489ZM11.4333 37.6456C12.7266 37.6456 13.8557 37.3582 14.8205 36.7834C15.8059 36.2086 16.5655 35.408 17.0992 34.3816C17.6329 33.3346 17.8998 32.1337 17.8998 30.7788C17.8998 29.7524 17.7458 28.8286 17.4379 28.0075C17.13 27.1658 16.6886 26.4473 16.1138 25.852C15.539 25.2362 14.8513 24.7743 14.0507 24.4663C13.2706 24.1379 12.3982 23.9737 11.4333 23.9737C10.1401 23.9737 9.00073 24.2611 8.01536 24.8359C7.05053 25.3901 6.30124 26.1805 5.7675 27.2069C5.23376 28.2128 4.96689 29.4034 4.96689 30.7788C4.96689 31.8053 5.12086 32.7393 5.42878 33.581C5.73671 34.4226 6.1678 35.1514 6.72207 35.7672C7.29687 36.3626 7.98457 36.8245 8.78518 37.1529C9.58579 37.4814 10.4685 37.6456 11.4333 37.6456Z" fill="#F9F9F9"/>
<path d="M34.1172 41.9874C33.1113 41.9874 32.1875 41.7923 31.3458 41.4023C30.5042 41.0123 29.8165 40.4785 29.2827 39.8011C28.749 39.1031 28.4411 38.3128 28.359 37.43V31.1175C28.4411 30.2348 28.749 29.4342 29.2827 28.7157C29.8165 27.9972 30.5042 27.4327 31.3458 27.0221C32.1875 26.6116 33.1113 26.4063 34.1172 26.4063C35.5336 26.4063 36.7859 26.745 37.8739 27.4224C38.9824 28.0999 39.8446 29.0237 40.4605 30.1938C41.0968 31.3639 41.415 32.6982 41.415 34.1968C41.415 35.6954 41.0968 37.0297 40.4605 38.1999C39.8446 39.37 38.9824 40.2938 37.8739 40.9712C36.7859 41.6486 35.5336 41.9874 34.1172 41.9874ZM33.255 37.738C33.9324 37.738 34.5175 37.584 35.0102 37.2761C35.5234 36.9682 35.9237 36.5473 36.2111 36.0136C36.4985 35.4798 36.6422 34.8743 36.6422 34.1968C36.6422 33.4988 36.4985 32.883 36.2111 32.3493C35.9237 31.8155 35.5234 31.4049 35.0102 31.1175C34.5175 30.8096 33.9427 30.6557 33.2858 30.6557C32.6289 30.6557 32.0438 30.8096 31.5306 31.1175C31.0379 31.4049 30.6479 31.8155 30.3605 32.3493C30.0731 32.883 29.9294 33.4988 29.9294 34.1968C29.9294 34.8743 30.0628 35.4798 30.3297 36.0136C30.6171 36.5473 31.0174 36.9682 31.5306 37.2761C32.0438 37.584 32.6186 37.738 33.255 37.738ZM25.4952 47.9919V26.7142H30.2065V30.5633L29.4367 34.1968L30.1449 37.8303V47.9919H25.4952Z" fill="#F9F9F9"/>
<path d="M52.4502 42.0181C50.8284 42.0181 49.3812 41.6897 48.1084 41.0328C46.8562 40.3553 45.8708 39.4213 45.1523 38.2306C44.4338 37.04 44.0746 35.6954 44.0746 34.1968C44.0746 32.6982 44.4235 31.3639 45.1215 30.1938C45.84 29.0031 46.8048 28.0691 48.016 27.3916C49.2272 26.7142 50.5923 26.3755 52.1114 26.3755C53.5895 26.3755 54.893 26.6937 56.0221 27.3301C57.1512 27.9664 58.0339 28.8492 58.6703 29.9782C59.3272 31.1073 59.6556 32.4006 59.6556 33.8581C59.6556 34.125 59.6351 34.4124 59.5941 34.7203C59.5735 35.0077 59.5222 35.3464 59.4401 35.7364L46.538 35.7672V32.534L57.4386 32.5032L55.4063 33.8581C55.3857 32.9959 55.2523 32.2877 55.006 31.7334C54.7596 31.1586 54.3901 30.7275 53.8974 30.4401C53.4253 30.1322 52.8402 29.9782 52.1422 29.9782C51.4032 29.9782 50.7566 30.1527 50.2023 30.5017C49.6686 30.8302 49.2477 31.3023 48.9398 31.9182C48.6524 32.534 48.5087 33.2833 48.5087 34.166C48.5087 35.0487 48.6627 35.8083 48.9706 36.4447C49.2991 37.0605 49.7507 37.5429 50.3255 37.8919C50.9208 38.2204 51.6188 38.3846 52.4194 38.3846C53.1584 38.3846 53.8256 38.2614 54.4209 38.0151C55.0162 37.7482 55.5397 37.3582 55.9913 36.845L58.5779 39.4316C57.8389 40.2938 56.9459 40.9404 55.8989 41.3715C54.852 41.8026 53.7024 42.0181 52.4502 42.0181Z" fill="#F9F9F9"/>
<path d="M72.127 41.6794V33.1499C72.127 32.3698 71.8807 31.7437 71.388 31.2715C70.9159 30.7788 70.3103 30.5325 69.5712 30.5325C69.058 30.5325 68.6064 30.6454 68.2164 30.8712C67.8263 31.0765 67.5184 31.3844 67.2926 31.795C67.0668 32.185 66.9539 32.6367 66.9539 33.1499L65.1371 32.2569C65.1371 31.0868 65.3937 30.0603 65.9069 29.1776C66.4201 28.2949 67.1284 27.6175 68.0316 27.1453C68.9554 26.6526 69.9921 26.4063 71.1417 26.4063C72.2502 26.4063 73.2253 26.6731 74.067 27.2069C74.9292 27.7201 75.6066 28.4078 76.0993 29.27C76.592 30.1322 76.5776 31.0765 76.5776 32.1029V41.6794H72.127ZM62.2426 41.6794V26.7142H66.9539V41.6794H62.2426Z" fill="#F9F9F9"/>
<path fill-rule="evenodd" clip-rule="evenodd" d="M143.325 0.207218C142.825 -0.0677705 142.219 -0.0677708 141.718 0.207218L133.485 4.73259C133.478 4.73636 133.471 4.74016 133.465 4.744L132.381 5.33983C131.847 5.6329 131.516 6.19308 131.516 6.80152V16.9803C131.516 17.5887 131.847 18.1489 132.381 18.442L140.692 23.0103C140.703 23.0162 140.714 23.0219 140.724 23.0276L141.718 23.574C142.219 23.849 142.825 23.849 143.325 23.574L144.322 23.0262C144.332 23.021 144.342 23.0157 144.352 23.0103L152.663 18.442C153.196 18.1489 153.528 17.5887 153.528 16.9803V6.80153C153.528 6.19308 153.196 5.6329 152.663 5.33983L151.583 4.74604C151.575 4.74151 151.567 4.73702 151.559 4.73259L143.325 0.207218ZM143.854 11.8906L151.559 7.65598C151.567 7.65163 151.574 7.64723 151.582 7.64279L151.674 7.59224C151.931 7.45124 152.244 7.63683 152.244 7.92955V15.8523C152.244 16.145 151.931 16.3306 151.674 16.1896L151.603 16.1505C151.589 16.1419 151.574 16.1335 151.559 16.1252L143.854 11.8906ZM133.465 7.64489C133.472 7.64862 133.478 7.65232 133.485 7.65598L141.189 11.8906L133.485 16.1252C133.471 16.1332 133.456 16.1412 133.442 16.1495L133.369 16.1896C133.113 16.3306 132.799 16.145 132.799 15.8523V7.92955C132.799 7.63683 133.113 7.45124 133.369 7.59224L133.465 7.64489ZM150.952 5.86352L143.734 1.89592C143.48 1.75677 143.171 1.9357 143.163 2.22177C143.163 2.22559 143.163 2.22941 143.163 2.23323V10.806L150.952 6.52517C151.203 6.37672 151.203 6.01209 150.952 5.86352ZM134.094 6.52621L141.88 10.806V2.23323C141.88 2.22941 141.88 2.22559 141.88 2.22177C141.872 1.9357 141.563 1.75677 141.31 1.89592L134.093 5.8625C133.84 6.01077 133.84 6.37808 134.094 6.52621ZM134.103 17.9242C133.844 17.7818 133.837 17.4156 134.083 17.2615L141.88 12.9758V21.5486C141.88 21.5524 141.88 21.5562 141.88 21.56C141.872 21.8403 141.576 22.0177 141.326 21.894L134.103 17.9242ZM143.163 21.5486V12.9758L150.962 17.2621C151.206 17.4164 151.199 17.782 150.941 17.9242L143.719 21.8934C143.469 22.0183 143.171 21.8408 143.163 21.56C143.163 21.5582 143.163 21.5563 143.163 21.5544C143.163 21.5524 143.163 21.5505 143.163 21.5486Z" fill="#0D1A2B"/>
<path d="M142.337 1.3308C142.452 1.26734 142.592 1.26734 142.707 1.3308L150.941 5.85617C151.207 6.00238 151.207 6.38459 150.941 6.5308L142.707 11.0562C142.592 11.1196 142.452 11.1196 142.337 11.0562L134.103 6.5308C133.837 6.38459 133.837 6.00238 134.103 5.85617L142.337 1.3308Z" fill="#E2D23F"/>
<path d="M132.799 7.92843C132.799 7.63571 133.113 7.45012 133.37 7.59111L141.681 12.1594C141.804 12.227 141.881 12.3563 141.881 12.4967V21.5475C141.881 21.8402 141.567 22.0258 141.31 21.8848L132.999 17.3165C132.876 17.2488 132.799 17.1196 132.799 16.9792V7.92843Z" fill="#FFEC40"/>
<path d="M151.674 7.59111C151.931 7.45012 152.244 7.63571 152.244 7.92843V16.9792C152.244 17.1196 152.168 17.2488 152.045 17.3165L143.733 21.8848C143.477 22.0258 143.163 21.8402 143.163 21.5475V12.4967C143.163 12.3563 143.24 12.227 143.363 12.1594L151.674 7.59111Z" fill="white"/>
<path d="M136.29 15.0299C136.29 15.0342 136.289 15.0383 136.289 15.0425L134.341 14.0175C134.341 14.0133 134.341 14.0091 134.342 14.0049C134.387 13.3986 134.86 13.1366 135.398 13.4197C135.936 13.7028 136.335 14.4237 136.29 15.0299Z" fill="#0D1A2B"/>
<path d="M139.356 16.8002C139.355 16.8044 139.355 16.8086 139.355 16.8128L137.407 15.7878C137.407 15.7836 137.407 15.7794 137.407 15.7752C137.453 15.1689 137.925 14.9069 138.463 15.19C139.001 15.473 139.401 16.194 139.356 16.8002Z" fill="#0D1A2B"/>
</svg>
