<svg width="154" height="48" viewBox="0 0 154 48" fill="none" xmlns="http://www.w3.org/2000/svg">
<path d="M81.439 41.6795V20.2478H86.2734V41.6795H81.439ZM74.6338 24.1585V19.9399H92.87V24.1585H74.6338Z" fill="#1B1D20"/>
<path d="M97.7227 42.0182C96.183 42.0182 94.7871 41.6795 93.5349 41.0021C92.3032 40.3041 91.3281 39.3598 90.6096 38.1692C89.8911 36.9785 89.5318 35.6442 89.5318 34.1661C89.5318 32.6881 89.8911 31.364 90.6096 30.1939C91.3281 29.0238 92.3032 28.1 93.5349 27.4225C94.7666 26.7246 96.1625 26.3756 97.7227 26.3756C99.2828 26.3756 100.679 26.7143 101.91 27.3917C103.142 28.0692 104.117 29.0032 104.836 30.1939C105.554 31.364 105.914 32.6881 105.914 34.1661C105.914 35.6442 105.554 36.9785 104.836 38.1692C104.117 39.3598 103.142 40.3041 101.91 41.0021C100.679 41.6795 99.2828 42.0182 97.7227 42.0182ZM97.7227 37.7381C98.4001 37.7381 98.9954 37.5944 99.5086 37.307C100.022 36.999 100.412 36.5782 100.679 36.0445C100.966 35.4902 101.11 34.8641 101.11 34.1661C101.11 33.4682 100.966 32.8626 100.679 32.3494C100.391 31.8156 99.9911 31.405 99.4778 31.1176C98.9852 30.8097 98.4001 30.6558 97.7227 30.6558C97.0658 30.6558 96.4807 30.8097 95.9675 31.1176C95.4543 31.405 95.054 31.8156 94.7666 32.3494C94.4792 32.8831 94.3355 33.4989 94.3355 34.1969C94.3355 34.8743 94.4792 35.4902 94.7666 36.0445C95.054 36.5782 95.4543 36.999 95.9675 37.307C96.4807 37.5944 97.0658 37.7381 97.7227 37.7381Z" fill="#1B1D20"/>
<path d="M109.867 41.6795V25.421C109.867 24.2098 110.134 23.1218 110.668 22.157C111.222 21.1716 111.992 20.4018 112.978 19.8475C113.963 19.2727 115.133 18.9854 116.488 18.9854C117.514 18.9854 118.407 19.1598 119.167 19.5088C119.947 19.8373 120.624 20.2992 121.199 20.8945L118.243 23.8506C118.038 23.6453 117.802 23.4913 117.535 23.3887C117.289 23.2655 116.991 23.2039 116.642 23.2039C116.005 23.2039 115.503 23.3887 115.133 23.7582C114.764 24.1277 114.579 24.6307 114.579 25.267V41.6795H109.867ZM106.573 30.7173V26.7143H118.89V30.7173H106.573Z" fill="#1B1D20"/>
<path d="M128.021 42.0182C126.646 42.0182 125.424 41.7411 124.357 41.1868C123.31 40.612 122.489 39.832 121.893 38.8466C121.298 37.8407 121 36.6911 121 35.3978V26.7143H125.712V35.3362C125.712 35.8495 125.794 36.2908 125.958 36.6603C126.143 37.0298 126.41 37.3172 126.759 37.5225C127.108 37.7278 127.528 37.8304 128.021 37.8304C128.719 37.8304 129.273 37.6149 129.684 37.1838C130.095 36.7322 130.3 36.1163 130.3 35.3362V26.7143H135.011V35.367C135.011 36.6809 134.713 37.8407 134.118 38.8466C133.523 39.832 132.702 40.612 131.655 41.1868C130.608 41.7411 129.397 42.0182 128.021 42.0182Z" fill="#1B1D20"/>
<path d="M11.4944 42.0489C9.85217 42.0489 8.33307 41.7615 6.93713 41.1867C5.56173 40.6119 4.35055 39.8113 3.3036 38.7849C2.25665 37.7585 1.44578 36.5678 0.870983 35.213C0.296187 33.8376 0.00878906 32.3595 0.00878906 30.7788C0.00878906 29.1776 0.296187 27.6996 0.870983 26.3447C1.44578 24.9898 2.24639 23.8094 3.27281 22.8035C4.29923 21.7771 5.50014 20.9868 6.87555 20.4325C8.27148 19.8577 9.79058 19.5703 11.4329 19.5703C13.0546 19.5703 14.5532 19.8577 15.9286 20.4325C17.3245 20.9868 18.5357 21.7771 19.5621 22.8035C20.6091 23.8094 21.4199 25.0001 21.9947 26.3755C22.5695 27.7304 22.8569 29.2084 22.8569 30.8096C22.8569 32.3903 22.5695 33.8684 21.9947 35.2438C21.4199 36.5986 20.6193 37.7893 19.5929 38.8157C18.5665 39.8216 17.3553 40.6119 15.9594 41.1867C14.584 41.7615 13.0957 42.0489 11.4944 42.0489ZM11.4329 37.6456C12.7261 37.6456 13.8552 37.3582 14.82 36.7834C15.8054 36.2086 16.565 35.408 17.0987 34.3816C17.6324 33.3346 17.8993 32.1337 17.8993 30.7788C17.8993 29.7524 17.7453 28.8286 17.4374 28.0075C17.1295 27.1658 16.6881 26.4473 16.1133 25.852C15.5385 25.2362 14.8508 24.7743 14.0502 24.4663C13.2702 24.1379 12.3977 23.9737 11.4329 23.9737C10.1396 23.9737 9.00024 24.2611 8.01488 24.8359C7.05004 25.3901 6.30075 26.1805 5.76701 27.2069C5.23327 28.2128 4.9664 29.4034 4.9664 30.7788C4.9664 31.8053 5.12037 32.7393 5.42829 33.581C5.73622 34.4226 6.16732 35.1514 6.72158 35.7672C7.29638 36.3626 7.98408 36.8245 8.78469 37.1529C9.5853 37.4814 10.468 37.6456 11.4329 37.6456Z" fill="#1B1D20"/>
<path d="M34.1167 41.9874C33.1108 41.9874 32.187 41.7923 31.3454 41.4023C30.5037 41.0123 29.816 40.4785 29.2822 39.8011C28.7485 39.1031 28.4406 38.3128 28.3585 37.43V31.1175C28.4406 30.2348 28.7485 29.4342 29.2822 28.7157C29.816 27.9972 30.5037 27.4327 31.3454 27.0221C32.187 26.6116 33.1108 26.4063 34.1167 26.4063C35.5331 26.4063 36.7854 26.745 37.8734 27.4224C38.9819 28.0999 39.8441 29.0237 40.46 30.1938C41.0964 31.3639 41.4145 32.6982 41.4145 34.1968C41.4145 35.6954 41.0964 37.0297 40.46 38.1999C39.8441 39.37 38.9819 40.2938 37.8734 40.9712C36.7854 41.6486 35.5331 41.9874 34.1167 41.9874ZM33.2545 37.738C33.9319 37.738 34.517 37.584 35.0097 37.2761C35.5229 36.9682 35.9232 36.5473 36.2106 36.0136C36.498 35.4798 36.6417 34.8743 36.6417 34.1968C36.6417 33.4988 36.498 32.883 36.2106 32.3493C35.9232 31.8155 35.5229 31.4049 35.0097 31.1175C34.517 30.8096 33.9422 30.6557 33.2853 30.6557C32.6284 30.6557 32.0433 30.8096 31.5301 31.1175C31.0374 31.4049 30.6474 31.8155 30.36 32.3493C30.0726 32.883 29.9289 33.4988 29.9289 34.1968C29.9289 34.8743 30.0623 35.4798 30.3292 36.0136C30.6166 36.5473 31.0169 36.9682 31.5301 37.2761C32.0433 37.584 32.6181 37.738 33.2545 37.738ZM25.4947 47.9919V26.7142H30.206V30.5633L29.4362 34.1968L30.1444 37.8303V47.9919H25.4947Z" fill="#1B1D20"/>
<path d="M52.4497 42.0181C50.8279 42.0181 49.3807 41.6897 48.1079 41.0328C46.8557 40.3553 45.8703 39.4213 45.1518 38.2306C44.4333 37.04 44.0741 35.6954 44.0741 34.1968C44.0741 32.6982 44.4231 31.3639 45.121 30.1938C45.8395 29.0031 46.8044 28.0691 48.0155 27.3916C49.2267 26.7142 50.5919 26.3755 52.111 26.3755C53.589 26.3755 54.8926 26.6937 56.0216 27.3301C57.1507 27.9664 58.0334 28.8492 58.6698 29.9782C59.3267 31.1073 59.6552 32.4006 59.6552 33.8581C59.6552 34.125 59.6346 34.4124 59.5936 34.7203C59.573 35.0077 59.5217 35.3464 59.4396 35.7364L46.5375 35.7672V32.534L57.4381 32.5032L55.4058 33.8581C55.3852 32.9959 55.2518 32.2877 55.0055 31.7334C54.7591 31.1586 54.3896 30.7275 53.8969 30.4401C53.4248 30.1322 52.8397 29.9782 52.1417 29.9782C51.4027 29.9782 50.7561 30.1527 50.2018 30.5017C49.6681 30.8302 49.2472 31.3023 48.9393 31.9182C48.6519 32.534 48.5082 33.2833 48.5082 34.166C48.5082 35.0487 48.6622 35.8083 48.9701 36.4447C49.2986 37.0605 49.7502 37.5429 50.325 37.8919C50.9203 38.2204 51.6183 38.3846 52.4189 38.3846C53.1579 38.3846 53.8251 38.2614 54.4204 38.0151C55.0157 37.7482 55.5392 37.3582 55.9908 36.845L58.5774 39.4316C57.8384 40.2938 56.9454 40.9404 55.8984 41.3715C54.8515 41.8026 53.7019 42.0181 52.4497 42.0181Z" fill="#1B1D20"/>
<path d="M72.1265 41.6794V33.1499C72.1265 32.3698 71.8802 31.7437 71.3875 31.2715C70.9154 30.7788 70.3098 30.5325 69.5708 30.5325C69.0575 30.5325 68.6059 30.6454 68.2159 30.8712C67.8258 31.0765 67.5179 31.3844 67.2921 31.795C67.0663 32.185 66.9534 32.6367 66.9534 33.1499L65.1366 32.2569C65.1366 31.0868 65.3932 30.0603 65.9064 29.1776C66.4196 28.2949 67.1279 27.6175 68.0311 27.1453C68.9549 26.6526 69.9916 26.4063 71.1412 26.4063C72.2497 26.4063 73.2248 26.6731 74.0665 27.2069C74.9287 27.7201 75.6061 28.4078 76.0988 29.27C76.5915 30.1322 76.5771 31.0765 76.5771 32.1029V41.6794H72.1265ZM62.2421 41.6794V26.7142H66.9534V41.6794H62.2421Z" fill="#1B1D20"/>
<path fill-rule="evenodd" clip-rule="evenodd" d="M143.325 0.207218C142.824 -0.0677705 142.218 -0.0677708 141.718 0.207218L133.485 4.73259C133.478 4.73636 133.471 4.74016 133.464 4.744L132.38 5.33983C131.847 5.6329 131.516 6.19308 131.516 6.80152V16.9803C131.516 17.5887 131.847 18.1489 132.38 18.442L140.692 23.0103C140.702 23.0162 140.713 23.0219 140.724 23.0276L141.718 23.574C142.218 23.849 142.824 23.849 143.325 23.574L144.321 23.0262C144.331 23.021 144.341 23.0157 144.351 23.0103L152.662 18.442C153.196 18.1489 153.527 17.5887 153.527 16.9803V6.80153C153.527 6.19308 153.196 5.6329 152.662 5.33983L151.582 4.74604C151.574 4.74151 151.566 4.73702 151.558 4.73259L143.325 0.207218ZM143.854 11.8906L151.558 7.65598C151.566 7.65163 151.574 7.64723 151.582 7.64279L151.674 7.59224C151.93 7.45124 152.244 7.63683 152.244 7.92955V15.8523C152.244 16.145 151.93 16.3306 151.674 16.1896L151.603 16.1505C151.588 16.1419 151.573 16.1335 151.558 16.1252L143.854 11.8906ZM133.465 7.64489C133.471 7.64862 133.478 7.65232 133.485 7.65598L141.189 11.8906L133.485 16.1252C133.47 16.1332 133.456 16.1412 133.442 16.1495L133.369 16.1896C133.112 16.3306 132.799 16.145 132.799 15.8523V7.92955C132.799 7.63683 133.112 7.45124 133.369 7.59224L133.465 7.64489ZM150.952 5.86352L143.733 1.89592C143.48 1.75677 143.171 1.9357 143.163 2.22177C143.163 2.22559 143.163 2.22941 143.163 2.23323V10.806L150.951 6.52517C151.202 6.37672 151.202 6.01209 150.952 5.86352ZM134.093 6.52621L141.88 10.806V2.23323C141.88 2.22941 141.88 2.22559 141.88 2.22177C141.872 1.9357 141.563 1.75677 141.31 1.89592L134.093 5.8625C133.84 6.01077 133.84 6.37808 134.093 6.52621ZM134.103 17.9242C133.844 17.7818 133.837 17.4156 134.082 17.2615L141.88 12.9758V21.5486C141.88 21.5524 141.88 21.5562 141.88 21.56C141.872 21.8403 141.575 22.0177 141.325 21.894L134.103 17.9242ZM143.163 21.5486V12.9758L150.961 17.2621C151.206 17.4164 151.199 17.782 150.94 17.9242L143.719 21.8934C143.468 22.0183 143.171 21.8408 143.163 21.56C143.163 21.5582 143.163 21.5563 143.163 21.5544C143.163 21.5524 143.163 21.5505 143.163 21.5486Z" fill="#0D1A2B"/>
<path d="M142.336 1.3308C142.452 1.26734 142.592 1.26734 142.707 1.3308L150.94 5.85617C151.206 6.00238 151.206 6.38459 150.94 6.5308L142.707 11.0562C142.592 11.1196 142.452 11.1196 142.336 11.0562L134.103 6.5308C133.837 6.38459 133.837 6.00238 134.103 5.85617L142.336 1.3308Z" fill="#E2D23F"/>
<path d="M132.799 7.92843C132.799 7.63571 133.113 7.45012 133.369 7.59111L141.681 12.1594C141.804 12.227 141.88 12.3563 141.88 12.4967V21.5475C141.88 21.8402 141.566 22.0258 141.31 21.8848L132.998 17.3165C132.875 17.2488 132.799 17.1196 132.799 16.9792V7.92843Z" fill="#FFEC40"/>
<path d="M151.674 7.59111C151.931 7.45012 152.244 7.63571 152.244 7.92843V16.9792C152.244 17.1196 152.168 17.2488 152.045 17.3165L143.733 21.8848C143.477 22.0258 143.163 21.8402 143.163 21.5475V12.4967C143.163 12.3563 143.24 12.227 143.363 12.1594L151.674 7.59111Z" fill="white"/>
<path d="M136.289 15.0299C136.289 15.0342 136.288 15.0383 136.288 15.0425L134.34 14.0175C134.34 14.0133 134.34 14.0091 134.341 14.0049C134.386 13.3986 134.859 13.1366 135.397 13.4197C135.935 13.7028 136.334 14.4237 136.289 15.0299Z" fill="#0D1A2B"/>
<path d="M139.355 16.8002C139.354 16.8044 139.354 16.8086 139.354 16.8128L137.406 15.7878C137.406 15.7836 137.406 15.7794 137.407 15.7752C137.452 15.1689 137.924 14.9069 138.462 15.19C139 15.473 139.4 16.194 139.355 16.8002Z" fill="#0D1A2B"/>
</svg>
