<svg xmlns="http://www.w3.org/2000/svg" fill="none" viewBox="0 0 48 48">
<path class="fill-brand-300" d="M19.75 18.25C20.917 19.417 22.333 20 24 20c1.667 0 3.083-.583 4.25-1.75C29.417 17.083 30 15.667 30 14c0-1.667-.583-3.083-1.75-4.25C27.083 8.583 25.667 8 24 8c-1.667 0-3.083.583-4.25 1.75C18.583 10.917 18 12.333 18 14c0 1.667.583 3.083 1.75 4.25Z"/>
<path class="fill-brand-600" d="M12 40c-1.667 0-3.083-.583-4.25-1.75C6.583 37.083 6 35.667 6 34c0-1.667.583-3.083 1.75-4.25C8.917 28.583 10.333 28 12 28c1.667 0 3.083.583 4.25 1.75C17.417 30.917 18 32.333 18 34c0 1.667-.583 3.083-1.75 4.25C15.083 39.417 13.667 40 12 40Zm24 0c-1.667 0-3.083-.583-4.25-1.75C30.583 37.083 30 35.667 30 34c0-1.667.583-3.083 1.75-4.25C32.917 28.583 34.333 28 36 28c1.667 0 3.083.583 4.25 1.75C41.417 30.917 42 32.333 42 34c0 1.667-.583 3.083-1.75 4.25C39.083 39.417 37.667 40 36 40Z"/>
</svg>
