<svg xmlns="http://www.w3.org/2000/svg" fill="none" viewBox="0 0 48 48">
<path class="fill-brand-600" d="M5.75 21.25C6.917 22.417 8.333 23 10 23c1.667 0 3.083-.583 4.25-1.75C15.417 20.083 16 18.667 16 17c0-1.667-.583-3.083-1.75-4.25C13.083 11.583 11.667 11 10 11c-1.667 0-3.083.583-4.25 1.75C4.583 13.917 4 15.333 4 17c0 1.667.583 3.083 1.75 4.25Z"/>
<path class="fill-brand-300" d="M33.75 21.25C34.917 22.417 36.333 23 38 23c1.667 0 3.083-.583 4.25-1.75C43.417 20.083 44 18.667 44 17c0-1.667-.583-3.083-1.75-4.25C41.083 11.583 39.667 11 38 11c-1.667 0-3.083.583-4.25 1.75C32.583 13.917 32 15.333 32 17c0 1.667.583 3.083 1.75 4.25Z"/>
<path class="fill-brand-200" d="M6 27h37v5H6zM30 41a6 6 0 1 0-12 0h12Z"/>
</svg>
