<svg width="325" height="533" viewBox="0 0 325 533" fill="none" xmlns="http://www.w3.org/2000/svg">
<path fill-rule="evenodd" clip-rule="evenodd" d="M77.473 0.281006L55.761 15.097L299.347 172.885L251.393 205.883L44.775 72.168L25.239 60.277L24.918 60.772V60.082L0.679001 45.327V152.681L86.507 212.087V475.385L95.938 481.689L144.932 514.557L173.054 532.461V492.992L173.046 492.991V402.605L206.72 424.831V508.407L230.96 491.831V440.829L251.34 454.281L324.168 403.463V296.575L324.207 296.518L324.168 296.492V296.434L324.125 296.463L299.577 279.993L324.168 262.834V174.58L324.193 174.542V160.301L315.729 154.829L315.935 154.749L77.473 0.281006ZM148.807 357.563V487.872L110.746 462.431V199.85H110.657L110.903 199.494L24.918 139.979V88.19L251.806 235.022L299.929 201.908V250.191L277.983 265.504L277.823 265.396L277.545 265.81L250.956 284.363L151.936 219.125V302.47H151.949V310.644L251.785 375.665L299.929 342.537V390.819L250.961 424.988L148.807 357.563ZM251.346 313.648L278.251 294.874L302.647 311.243L251.414 346.497L176.188 297.504V264.131L251.346 313.648Z" fill="#933EFF" style="fill:#933EFF;fill:color(display-p3 0.5765 0.2431 1.0000);fill-opacity:1;"/>
</svg>
