<svg xmlns="http://www.w3.org/2000/svg" width="123" height="48" viewBox="0 0 123 48" fill="none">
  <path fill-rule="evenodd" clip-rule="evenodd" d="M6.97487 0L5.01798 1.33533L26.9719 15.5564L22.6499 18.5305L3.77153 6.31321L2.27158 5.40021L2.23811 5.45193V5.37984L0.0534668 4.05007V13.7355L7.789 19.0896V42.8201L8.62743 43.3805L13.0563 46.3517L15.5893 47.9643V44.4071L15.5886 44.4069V36.2606L18.6236 38.2638V45.7964L20.8082 44.3024V39.7057L22.6451 40.9181L29.2089 36.3379V26.7043L29.2124 26.6992L29.2089 26.6969V26.6916L29.205 26.6943L26.9927 25.2098L29.2089 23.6633V15.7092L29.2112 15.7056V14.4222L28.4483 13.9291L28.4669 13.9219L6.97487 0ZM13.4039 32.201V43.9456L9.97365 41.6526V17.9867H9.96558L9.9878 17.9546L2.23811 12.5907V7.92307L22.6871 21.1568L27.0243 18.1723V22.5238L25.0464 23.904L25.0319 23.8942L25.0068 23.9316L22.6104 25.6038L13.686 19.7239V27.2357H13.6871V27.9723L22.6852 33.8326L27.0243 30.8468V35.1984L22.6109 38.278L13.4039 32.201ZM22.6456 28.2431L25.0706 26.551L27.2693 28.0263L22.6517 31.2037L15.8718 26.788V23.7802L22.6456 28.2431Z" fill="#933EFF"/>
  <mask id="path-2-outside-1_304_96" maskUnits="userSpaceOnUse" x="37.4834" y="15.6021" width="86" height="23" fill="black">
    <rect fill="white" x="37.4834" y="15.6021" width="86" height="23"/>
    <path d="M46.3797 32.3311C44.9361 32.3311 43.6091 31.9957 42.3987 31.3248C41.203 30.654 40.2479 29.7206 39.5333 28.5247C38.8334 27.3142 38.4834 25.9578 38.4834 24.4557C38.4834 22.9535 38.8334 21.6044 39.5333 20.4085C40.2479 19.2126 41.203 18.2792 42.3987 17.6084C43.6091 16.9375 44.9361 16.6021 46.3797 16.6021C47.8233 16.6021 49.143 16.9375 50.3388 17.6084C51.5491 18.2792 52.497 19.2126 53.1823 20.4085C53.8823 21.6044 54.2323 22.9535 54.2323 24.4557C54.2323 25.9578 53.8823 27.3142 53.1823 28.5247C52.4824 29.7206 51.5345 30.654 50.3388 31.3248C49.143 31.9957 47.8233 32.3311 46.3797 32.3311ZM46.3797 28.9184C47.6046 28.9184 48.5816 28.5101 49.3107 27.6934C50.0544 26.8766 50.4263 25.7974 50.4263 24.4557C50.4263 23.0993 50.0544 22.0201 49.3107 21.218C48.5816 20.4012 47.6046 19.9929 46.3797 19.9929C45.1402 19.9929 44.1486 20.394 43.4049 21.1961C42.6758 21.9982 42.3112 23.0847 42.3112 24.4557C42.3112 25.812 42.6758 26.8985 43.4049 27.7152C44.1486 28.5174 45.1402 28.9184 46.3797 28.9184Z"/>
    <path d="M60.0535 21.6992C60.4181 21.1305 60.9211 20.6711 61.5628 20.321C62.2044 19.971 62.9554 19.796 63.8157 19.796C64.8219 19.796 65.7333 20.0512 66.5499 20.5617C67.3665 21.0721 68.0081 21.8013 68.4748 22.7493C68.956 23.6973 69.1966 24.7984 69.1966 26.0526C69.1966 27.3069 68.956 28.4153 68.4748 29.3778C68.0081 30.3258 67.3665 31.0623 66.5499 31.5874C65.7333 32.0978 64.8219 32.353 63.8157 32.353C62.97 32.353 62.219 32.178 61.5628 31.828C60.9211 31.478 60.4181 31.0259 60.0535 30.4717V37.9971H56.3131V19.971H60.0535V21.6992ZM65.3906 26.0526C65.3906 25.1192 65.1281 24.39 64.6032 23.865C64.0928 23.3254 63.4585 23.0556 62.7002 23.0556C61.9565 23.0556 61.3222 23.3254 60.7972 23.865C60.2868 24.4046 60.0316 25.1411 60.0316 26.0745C60.0316 27.0079 60.2868 27.7444 60.7972 28.284C61.3222 28.8236 61.9565 29.0934 62.7002 29.0934C63.4439 29.0934 64.0782 28.8236 64.6032 28.284C65.1281 27.7298 65.3906 26.986 65.3906 26.0526Z"/>
    <path d="M83.1818 25.8776C83.1818 26.2276 83.1599 26.5923 83.1161 26.9714H74.6511C74.7094 27.7298 74.9501 28.3132 75.3729 28.7215C75.8104 29.1153 76.3427 29.3122 76.9697 29.3122C77.903 29.3122 78.5519 28.9184 78.9164 28.1309H82.8974C82.6933 28.933 82.3214 29.6549 81.7819 30.2966C81.2569 30.9384 80.5934 31.4415 79.7914 31.8061C78.9893 32.1707 78.0925 32.353 77.1009 32.353C75.9052 32.353 74.8407 32.0978 73.9074 31.5874C72.9742 31.0769 72.245 30.3477 71.7201 29.3997C71.1951 28.4517 70.9326 27.3433 70.9326 26.0745C70.9326 24.8057 71.1878 23.6973 71.6982 22.7493C72.2232 21.8013 72.9523 21.0721 73.8856 20.5617C74.8188 20.0512 75.8906 19.796 77.1009 19.796C78.2821 19.796 79.332 20.0439 80.2507 20.5398C81.1694 21.0357 81.8839 21.743 82.3943 22.6618C82.9193 23.5806 83.1818 24.6525 83.1818 25.8776ZM79.3539 24.8932C79.3539 24.2515 79.1352 23.741 78.6977 23.3618C78.2602 22.9827 77.7134 22.7931 77.0572 22.7931C76.4302 22.7931 75.8979 22.9754 75.4604 23.34C75.0376 23.7046 74.7751 24.2223 74.673 24.8932H79.3539Z"/>
    <path d="M92.5919 19.8398C94.021 19.8398 95.1584 20.3064 96.0042 21.2398C96.8646 22.1586 97.2947 23.4275 97.2947 25.0463V32.178H93.5762V25.5495C93.5762 24.7328 93.3648 24.0983 92.9419 23.6462C92.519 23.1941 91.9503 22.9681 91.2358 22.9681C90.5213 22.9681 89.9525 23.1941 89.5297 23.6462C89.1068 24.0983 88.8953 24.7328 88.8953 25.5495V32.178H85.155V19.971H88.8953V21.5899C89.2745 21.0502 89.7849 20.6273 90.4265 20.321C91.0681 20.0002 91.7899 19.8398 92.5919 19.8398Z"/>
    <path d="M110.94 16.8208V19.8179H106.872V32.178H103.131V19.8179H99.0627V16.8208H110.94Z"/>
    <path d="M122.813 16.8208V19.8179H116.558V23.0556H121.238V25.9651H116.558V32.178H112.817V16.8208H122.813Z"/>
  </mask>
  <path d="M46.3797 32.3311C44.9361 32.3311 43.6091 31.9957 42.3987 31.3248C41.203 30.654 40.2479 29.7206 39.5333 28.5247C38.8334 27.3142 38.4834 25.9578 38.4834 24.4557C38.4834 22.9535 38.8334 21.6044 39.5333 20.4085C40.2479 19.2126 41.203 18.2792 42.3987 17.6084C43.6091 16.9375 44.9361 16.6021 46.3797 16.6021C47.8233 16.6021 49.143 16.9375 50.3388 17.6084C51.5491 18.2792 52.497 19.2126 53.1823 20.4085C53.8823 21.6044 54.2323 22.9535 54.2323 24.4557C54.2323 25.9578 53.8823 27.3142 53.1823 28.5247C52.4824 29.7206 51.5345 30.654 50.3388 31.3248C49.143 31.9957 47.8233 32.3311 46.3797 32.3311ZM46.3797 28.9184C47.6046 28.9184 48.5816 28.5101 49.3107 27.6934C50.0544 26.8766 50.4263 25.7974 50.4263 24.4557C50.4263 23.0993 50.0544 22.0201 49.3107 21.218C48.5816 20.4012 47.6046 19.9929 46.3797 19.9929C45.1402 19.9929 44.1486 20.394 43.4049 21.1961C42.6758 21.9982 42.3112 23.0847 42.3112 24.4557C42.3112 25.812 42.6758 26.8985 43.4049 27.7152C44.1486 28.5174 45.1402 28.9184 46.3797 28.9184Z" fill="#F7F7F7"/>
  <path d="M60.0535 21.6992C60.4181 21.1305 60.9211 20.6711 61.5628 20.321C62.2044 19.971 62.9554 19.796 63.8157 19.796C64.8219 19.796 65.7333 20.0512 66.5499 20.5617C67.3665 21.0721 68.0081 21.8013 68.4748 22.7493C68.956 23.6973 69.1966 24.7984 69.1966 26.0526C69.1966 27.3069 68.956 28.4153 68.4748 29.3778C68.0081 30.3258 67.3665 31.0623 66.5499 31.5874C65.7333 32.0978 64.8219 32.353 63.8157 32.353C62.97 32.353 62.219 32.178 61.5628 31.828C60.9211 31.478 60.4181 31.0259 60.0535 30.4717V37.9971H56.3131V19.971H60.0535V21.6992ZM65.3906 26.0526C65.3906 25.1192 65.1281 24.39 64.6032 23.865C64.0928 23.3254 63.4585 23.0556 62.7002 23.0556C61.9565 23.0556 61.3222 23.3254 60.7972 23.865C60.2868 24.4046 60.0316 25.1411 60.0316 26.0745C60.0316 27.0079 60.2868 27.7444 60.7972 28.284C61.3222 28.8236 61.9565 29.0934 62.7002 29.0934C63.4439 29.0934 64.0782 28.8236 64.6032 28.284C65.1281 27.7298 65.3906 26.986 65.3906 26.0526Z" fill="#F7F7F7"/>
  <path d="M83.1818 25.8776C83.1818 26.2276 83.1599 26.5923 83.1161 26.9714H74.6511C74.7094 27.7298 74.9501 28.3132 75.3729 28.7215C75.8104 29.1153 76.3427 29.3122 76.9697 29.3122C77.903 29.3122 78.5519 28.9184 78.9164 28.1309H82.8974C82.6933 28.933 82.3214 29.6549 81.7819 30.2966C81.2569 30.9384 80.5934 31.4415 79.7914 31.8061C78.9893 32.1707 78.0925 32.353 77.1009 32.353C75.9052 32.353 74.8407 32.0978 73.9074 31.5874C72.9742 31.0769 72.245 30.3477 71.7201 29.3997C71.1951 28.4517 70.9326 27.3433 70.9326 26.0745C70.9326 24.8057 71.1878 23.6973 71.6982 22.7493C72.2232 21.8013 72.9523 21.0721 73.8856 20.5617C74.8188 20.0512 75.8906 19.796 77.1009 19.796C78.2821 19.796 79.332 20.0439 80.2507 20.5398C81.1694 21.0357 81.8839 21.743 82.3943 22.6618C82.9193 23.5806 83.1818 24.6525 83.1818 25.8776ZM79.3539 24.8932C79.3539 24.2515 79.1352 23.741 78.6977 23.3618C78.2602 22.9827 77.7134 22.7931 77.0572 22.7931C76.4302 22.7931 75.8979 22.9754 75.4604 23.34C75.0376 23.7046 74.7751 24.2223 74.673 24.8932H79.3539Z" fill="#F7F7F7"/>
  <path d="M92.5919 19.8398C94.021 19.8398 95.1584 20.3064 96.0042 21.2398C96.8646 22.1586 97.2947 23.4275 97.2947 25.0463V32.178H93.5762V25.5495C93.5762 24.7328 93.3648 24.0983 92.9419 23.6462C92.519 23.1941 91.9503 22.9681 91.2358 22.9681C90.5213 22.9681 89.9525 23.1941 89.5297 23.6462C89.1068 24.0983 88.8953 24.7328 88.8953 25.5495V32.178H85.155V19.971H88.8953V21.5899C89.2745 21.0502 89.7849 20.6273 90.4265 20.321C91.0681 20.0002 91.7899 19.8398 92.5919 19.8398Z" fill="#F7F7F7"/>
  <path d="M110.94 16.8208V19.8179H106.872V32.178H103.131V19.8179H99.0627V16.8208H110.94Z" fill="#F7F7F7"/>
  <path d="M122.813 16.8208V19.8179H116.558V23.0556H121.238V25.9651H116.558V32.178H112.817V16.8208H122.813Z" fill="#F7F7F7"/>
  <path d="M46.3797 32.3311C44.9361 32.3311 43.6091 31.9957 42.3987 31.3248C41.203 30.654 40.2479 29.7206 39.5333 28.5247C38.8334 27.3142 38.4834 25.9578 38.4834 24.4557C38.4834 22.9535 38.8334 21.6044 39.5333 20.4085C40.2479 19.2126 41.203 18.2792 42.3987 17.6084C43.6091 16.9375 44.9361 16.6021 46.3797 16.6021C47.8233 16.6021 49.143 16.9375 50.3388 17.6084C51.5491 18.2792 52.497 19.2126 53.1823 20.4085C53.8823 21.6044 54.2323 22.9535 54.2323 24.4557C54.2323 25.9578 53.8823 27.3142 53.1823 28.5247C52.4824 29.7206 51.5345 30.654 50.3388 31.3248C49.143 31.9957 47.8233 32.3311 46.3797 32.3311ZM46.3797 28.9184C47.6046 28.9184 48.5816 28.5101 49.3107 27.6934C50.0544 26.8766 50.4263 25.7974 50.4263 24.4557C50.4263 23.0993 50.0544 22.0201 49.3107 21.218C48.5816 20.4012 47.6046 19.9929 46.3797 19.9929C45.1402 19.9929 44.1486 20.394 43.4049 21.1961C42.6758 21.9982 42.3112 23.0847 42.3112 24.4557C42.3112 25.812 42.6758 26.8985 43.4049 27.7152C44.1486 28.5174 45.1402 28.9184 46.3797 28.9184Z" stroke="#F7F7F7" stroke-width="0.277858" mask="url(#path-2-outside-1_304_96)"/>
  <path d="M60.0535 21.6992C60.4181 21.1305 60.9211 20.6711 61.5628 20.321C62.2044 19.971 62.9554 19.796 63.8157 19.796C64.8219 19.796 65.7333 20.0512 66.5499 20.5617C67.3665 21.0721 68.0081 21.8013 68.4748 22.7493C68.956 23.6973 69.1966 24.7984 69.1966 26.0526C69.1966 27.3069 68.956 28.4153 68.4748 29.3778C68.0081 30.3258 67.3665 31.0623 66.5499 31.5874C65.7333 32.0978 64.8219 32.353 63.8157 32.353C62.97 32.353 62.219 32.178 61.5628 31.828C60.9211 31.478 60.4181 31.0259 60.0535 30.4717V37.9971H56.3131V19.971H60.0535V21.6992ZM65.3906 26.0526C65.3906 25.1192 65.1281 24.39 64.6032 23.865C64.0928 23.3254 63.4585 23.0556 62.7002 23.0556C61.9565 23.0556 61.3222 23.3254 60.7972 23.865C60.2868 24.4046 60.0316 25.1411 60.0316 26.0745C60.0316 27.0079 60.2868 27.7444 60.7972 28.284C61.3222 28.8236 61.9565 29.0934 62.7002 29.0934C63.4439 29.0934 64.0782 28.8236 64.6032 28.284C65.1281 27.7298 65.3906 26.986 65.3906 26.0526Z" stroke="#F7F7F7" stroke-width="0.277858" mask="url(#path-2-outside-1_304_96)"/>
  <path d="M83.1818 25.8776C83.1818 26.2276 83.1599 26.5923 83.1161 26.9714H74.6511C74.7094 27.7298 74.9501 28.3132 75.3729 28.7215C75.8104 29.1153 76.3427 29.3122 76.9697 29.3122C77.903 29.3122 78.5519 28.9184 78.9164 28.1309H82.8974C82.6933 28.933 82.3214 29.6549 81.7819 30.2966C81.2569 30.9384 80.5934 31.4415 79.7914 31.8061C78.9893 32.1707 78.0925 32.353 77.1009 32.353C75.9052 32.353 74.8407 32.0978 73.9074 31.5874C72.9742 31.0769 72.245 30.3477 71.7201 29.3997C71.1951 28.4517 70.9326 27.3433 70.9326 26.0745C70.9326 24.8057 71.1878 23.6973 71.6982 22.7493C72.2232 21.8013 72.9523 21.0721 73.8856 20.5617C74.8188 20.0512 75.8906 19.796 77.1009 19.796C78.2821 19.796 79.332 20.0439 80.2507 20.5398C81.1694 21.0357 81.8839 21.743 82.3943 22.6618C82.9193 23.5806 83.1818 24.6525 83.1818 25.8776ZM79.3539 24.8932C79.3539 24.2515 79.1352 23.741 78.6977 23.3618C78.2602 22.9827 77.7134 22.7931 77.0572 22.7931C76.4302 22.7931 75.8979 22.9754 75.4604 23.34C75.0376 23.7046 74.7751 24.2223 74.673 24.8932H79.3539Z" stroke="#F7F7F7" stroke-width="0.277858" mask="url(#path-2-outside-1_304_96)"/>
  <path d="M92.5919 19.8398C94.021 19.8398 95.1584 20.3064 96.0042 21.2398C96.8646 22.1586 97.2947 23.4275 97.2947 25.0463V32.178H93.5762V25.5495C93.5762 24.7328 93.3648 24.0983 92.9419 23.6462C92.519 23.1941 91.9503 22.9681 91.2358 22.9681C90.5213 22.9681 89.9525 23.1941 89.5297 23.6462C89.1068 24.0983 88.8953 24.7328 88.8953 25.5495V32.178H85.155V19.971H88.8953V21.5899C89.2745 21.0502 89.7849 20.6273 90.4265 20.321C91.0681 20.0002 91.7899 19.8398 92.5919 19.8398Z" stroke="#F7F7F7" stroke-width="0.277858" mask="url(#path-2-outside-1_304_96)"/>
  <path d="M110.94 16.8208V19.8179H106.872V32.178H103.131V19.8179H99.0627V16.8208H110.94Z" stroke="#F7F7F7" stroke-width="0.277858" mask="url(#path-2-outside-1_304_96)"/>
  <path d="M122.813 16.8208V19.8179H116.558V23.0556H121.238V25.9651H116.558V32.178H112.817V16.8208H122.813Z" stroke="#F7F7F7" stroke-width="0.277858" mask="url(#path-2-outside-1_304_96)"/>
</svg>