<svg width="100" height="48" viewBox="0 0 100 48" fill="none" xmlns="http://www.w3.org/2000/svg">
<path d="M44.9376 28.166H37.9481C36.4293 28.166 35.2395 27.7797 34.371 27.0069C33.5026 26.2341 33.0703 25.1552 33.0703 23.7703V17.4197C33.0703 16.0348 33.5026 14.9559 34.371 14.1831C35.2395 13.4103 36.4331 13.0239 37.9481 13.0239H40.7179C42.2367 13.0239 43.4227 13.4103 44.2796 14.1831C45.1366 14.9559 45.5651 16.0348 45.5651 17.4197V21.188C45.5651 21.4864 45.412 21.6318 45.1021 21.6318H35.7713C35.5494 21.6318 35.4422 21.7197 35.4422 21.8996V23.7091C35.4422 25.4307 36.3642 26.2915 38.2121 26.2915H44.9376C45.2437 26.2915 45.4005 26.4292 45.4005 26.7085V27.7758C45.4005 28.0322 45.2475 28.1622 44.9376 28.1622V28.166ZM35.7713 20.0632H42.8947C43.1128 20.0632 43.2237 19.9637 43.2237 19.7648V17.4809C43.2237 15.7784 42.3017 14.9291 40.4539 14.9291H38.2121C36.3642 14.9291 35.4422 15.7784 35.4422 17.4809V19.7648C35.4422 19.9637 35.5532 20.0632 35.7713 20.0632Z" fill="#3636D6"/>
<path d="M51.5667 28.1661H50.0823C49.7724 28.1661 49.6194 28.0284 49.6194 27.7491V13.4448C49.6194 13.1694 49.7724 13.0278 50.0823 13.0278H51.5667C51.8727 13.0278 52.0296 13.1656 52.0296 13.4448V14.604H52.1596C52.7106 13.5558 53.8315 13.0317 55.5224 13.0317H57.3703C58.8661 13.0317 60.0291 13.4181 60.8669 14.1908C61.701 14.9636 62.1218 16.0425 62.1218 17.4274V27.7568C62.1218 28.0322 61.9687 28.1738 61.6589 28.1738H60.1745C59.8646 28.1738 59.7116 28.0361 59.7116 27.7568V17.5192C59.7116 15.7976 58.7896 14.9369 56.9418 14.9369H55.094C54.1031 14.9369 53.3456 15.174 52.8177 15.6484C52.2897 16.1228 52.0258 16.7961 52.0258 17.6684V27.7606C52.0258 28.0361 51.8727 28.1776 51.5628 28.1776L51.5667 28.1661Z" fill="#3636D6"/>
<path d="M65.2176 13.0312H66.767C67.054 13.0312 67.2299 13.169 67.295 13.4483L71.2507 26.0042H71.4153L75.3404 13.4483C75.4284 13.1728 75.6159 13.0312 75.9028 13.0312H77.4522C77.7583 13.0312 77.8692 13.169 77.7812 13.4483L73.0335 27.7258C72.9685 28.0242 72.7696 28.1695 72.4405 28.1695H70.1987C69.8888 28.1695 69.6937 28.0203 69.6057 27.7258L64.8886 13.4483C64.8006 13.1728 64.9116 13.0312 65.2176 13.0312Z" fill="#3636D6"/>
<path d="M25.2916 6.90283C26.5808 6.90283 27.6253 7.94725 27.6253 9.23651C27.6253 10.5258 26.5808 11.5702 25.2916 11.5702C24.0023 11.5702 22.9579 10.5258 22.9579 9.23651C22.9579 7.94725 24.0023 6.90283 25.2916 6.90283ZM7.42938 11.5664H19.159C19.4153 11.5664 19.6257 11.3559 19.6257 11.0996V7.36957C19.6257 7.11325 19.4153 6.90283 19.159 6.90283H7.42938C7.17306 6.90283 6.96265 7.11325 6.96265 7.36957V11.0996C6.96265 11.3559 7.17306 11.5664 7.42938 11.5664ZM11.63 27.8371V15.6216C11.63 15.4074 11.454 15.2314 11.2398 15.2314H7.35287C7.13863 15.2314 6.96265 15.4074 6.96265 15.6216V27.8371C6.96265 28.0513 7.13863 28.2273 7.35287 28.2273H11.2398C11.454 28.2273 11.63 28.0513 11.63 27.8371ZM15.3754 28.2273H27.2121C27.4416 28.2273 27.6253 28.0437 27.6253 27.8141V23.9731C27.6253 23.7436 27.4416 23.5599 27.2121 23.5599H15.3754C15.1458 23.5599 14.9622 23.7436 14.9622 23.9731V27.8141C14.9622 28.0437 15.1458 28.2273 15.3754 28.2273ZM22.9579 17.5651C22.9579 18.8543 24.0023 19.8987 25.2916 19.8987C26.5808 19.8987 27.6253 18.8543 27.6253 17.5651C27.6253 16.2758 26.5808 15.2314 25.2916 15.2314C24.0023 15.2314 22.9579 16.2758 22.9579 17.5651ZM14.9622 17.5651C14.9622 18.8543 16.0066 19.8987 17.2959 19.8987C18.5851 19.8987 19.6295 18.8543 19.6295 17.5651C19.6295 16.2758 18.5851 15.2314 17.2959 15.2314C16.0066 15.2314 14.9622 16.2758 14.9622 17.5651Z" fill="#00EDB9"/>
<path d="M91.4387 8.76214C90.2871 7.73685 88.7339 7.20508 86.8325 7.20508C84.7169 7.20508 83.0068 7.88988 81.9777 9.13323C81.0443 10.2542 80.7344 11.5281 80.7344 14.2367V21.0809C80.7344 24.2218 81.0137 25.4039 82.104 26.5555C83.1943 27.7376 84.8738 28.3612 86.8938 28.3612C88.9137 28.3612 90.5014 27.7682 91.5917 26.6205C92.617 25.5302 93.0531 24.0994 93.0531 21.7695V13.5251C93.0531 11.0996 92.617 9.85629 91.4349 8.76596L91.4387 8.76214ZM83.0604 14.1679C83.0604 12.2971 83.1905 11.5549 83.7376 10.7821C84.3497 9.7836 85.5433 9.2327 86.932 9.2327C87.9956 9.2327 88.9635 9.58849 89.675 10.2312C89.9122 10.4569 90.0997 10.6903 90.2527 10.9466L83.0872 22.8522C83.0681 22.4543 83.0604 21.9685 83.0604 21.3602V14.1679ZM90.7692 21.7504C90.7692 23.3304 90.5741 24.2333 90.092 24.9449C89.4799 25.8171 88.2519 26.3642 86.932 26.3642C85.7078 26.3642 84.5448 25.8822 83.8676 25.1055C83.7988 25.029 83.7375 24.9563 83.6802 24.8798L90.7615 13.1158C90.7654 13.2459 90.7692 13.3836 90.7692 13.5251V21.7504Z" fill="#3636D6"/>
<path d="M6.93945 40.9823V33.7861H8.10629V40.9823H6.93945Z" fill="#1D136D"/>
<path d="M13.5166 37.3477V39.7426C13.5243 39.8956 13.5625 40.0104 13.639 40.0831C13.7117 40.1558 13.8265 40.2055 13.9795 40.2246L13.9489 41.0969C13.3483 41.0969 12.8816 40.9668 12.5525 40.7067C11.994 40.9668 11.4278 41.0969 10.8616 41.0969C9.81717 41.0969 9.29688 40.5383 9.29688 39.4251C9.29688 38.8933 9.43843 38.5069 9.72153 38.2697C10.0046 38.0325 10.4408 37.8871 11.0299 37.8374L12.3842 37.7226V37.3439C12.3842 37.0646 12.323 36.8695 12.2006 36.7547C12.0782 36.6438 11.8984 36.5864 11.6612 36.5864C11.2136 36.5864 10.6512 36.6132 9.98168 36.6706L9.64501 36.6897L9.60293 35.8825C10.3642 35.6988 11.0682 35.6108 11.7071 35.6108C12.346 35.6108 12.8089 35.7486 13.092 36.024C13.3751 36.2995 13.5166 36.7394 13.5166 37.3439V37.3477ZM11.1638 38.6523C10.6818 38.6944 10.4408 38.9583 10.4408 39.4404C10.4408 39.9224 10.655 40.1634 11.0797 40.1634C11.4316 40.1634 11.8027 40.106 12.1929 39.9951L12.3804 39.9301V38.5337L11.1638 38.6484V38.6523Z" fill="#1D136D"/>
<path d="M17.5056 41.1005C16.4536 41.1005 15.742 40.8097 15.3671 40.2282C14.9921 39.6467 14.8047 38.6903 14.8047 37.3628C14.8047 36.0353 14.9921 35.0865 15.3709 34.5203C15.7496 33.9541 16.4612 33.6748 17.5018 33.6748C18.1254 33.6748 18.8102 33.7628 19.56 33.9388L19.518 34.8837C18.8867 34.7728 18.2593 34.7154 17.6281 34.7154C16.9968 34.7154 16.5722 34.9029 16.3464 35.2778C16.1207 35.6527 16.0098 36.3566 16.0098 37.3896C16.0098 38.4225 16.1169 39.1264 16.335 39.5013C16.553 39.8763 16.9739 40.0637 17.6051 40.0637C18.2363 40.0637 18.8714 40.0102 19.518 39.9069L19.5486 40.8748C18.8255 41.0278 18.1445 41.1043 17.5018 41.1043L17.5056 41.1005Z" fill="#1D136D"/>
<path d="M22.1172 35.7334H23.2419L24.0721 40.0067H24.2825L25.281 35.8367H26.4555L27.454 40.0067H27.6645L28.4832 35.7334H29.6194L28.5061 40.9861H26.6889L25.8702 37.3823L25.0515 40.9861H23.2343L22.121 35.7334H22.1172Z" fill="#1D136D"/>
<path d="M30.5898 34.8378V33.6289H31.7337V34.8378H30.5898ZM30.5898 40.9819V35.7292H31.7337V40.9819H30.5898Z" fill="#1D136D"/>
<path d="M35.9471 36.7086H34.4971V39.0194C34.4971 39.4478 34.5277 39.7309 34.5928 39.8687C34.6578 40.0102 34.8185 40.0791 35.0748 40.0791L35.9356 40.0485L35.9892 40.9628C35.5186 41.0546 35.1628 41.1005 34.918 41.1005C34.3212 41.1005 33.9156 40.9628 33.6937 40.6912C33.4719 40.4196 33.3647 39.9031 33.3647 39.1456V36.7086H32.6914V35.7331H33.3647V34.2104H34.501V35.7331H35.9509V36.7086H35.9471Z" fill="#1D136D"/>
<path d="M38.0267 40.9821H36.8828V33.5449H38.0267V36.001C38.5432 35.7409 39.0252 35.6108 39.4652 35.6108C40.1653 35.6108 40.6435 35.8097 40.8998 36.2038C41.1561 36.5978 41.2824 37.252 41.2824 38.1625V40.9783H40.1385V38.1931C40.1385 37.6269 40.0773 37.2252 39.9587 36.9842C39.8401 36.747 39.5876 36.6284 39.2012 36.6284C38.8645 36.6284 38.5279 36.6858 38.1912 36.7968L38.0229 36.858V40.9744L38.0267 40.9821Z" fill="#1D136D"/>
<path d="M46.4363 35.6147C46.8074 35.6147 47.2435 35.6644 47.7485 35.76L48.0125 35.8136L47.9704 36.7165C47.4156 36.6591 47.0063 36.6323 46.7423 36.6323C46.2106 36.6323 45.8548 36.7509 45.6711 36.9881C45.4875 37.2253 45.3995 37.6729 45.3995 38.3309C45.3995 38.9889 45.4875 39.4442 45.6635 39.6967C45.8395 39.9492 46.2029 40.0754 46.7576 40.0754L47.9857 39.9913L48.0163 40.9056C47.3085 41.0319 46.7768 41.0931 46.421 41.0931C45.6214 41.0931 45.059 40.8788 44.7338 40.4465C44.4086 40.0142 44.2441 39.3103 44.2441 38.3309C44.2441 37.3515 44.4163 36.6514 44.7606 36.2344C45.1049 35.8174 45.6635 35.6108 46.4401 35.6108L46.4363 35.6147Z" fill="#1D136D"/>
<path d="M49.3519 36.2991C49.7115 35.8439 50.3122 35.6182 51.1538 35.6182C51.9955 35.6182 52.5961 35.8439 52.9557 36.2991C53.3154 36.7544 53.4952 37.4354 53.4952 38.3459C53.4952 39.2564 53.3192 39.9412 52.971 40.4041C52.6191 40.867 52.0146 41.0966 51.1538 41.0966C50.2931 41.0966 49.6886 40.867 49.3366 40.4041C48.9847 39.9412 48.8125 39.2564 48.8125 38.3459C48.8125 37.4354 48.9923 36.7544 49.3519 36.2991ZM50.2089 39.7117C50.3696 39.9909 50.6833 40.1325 51.1538 40.1325C51.6244 40.1325 51.9381 39.9909 52.0988 39.7117C52.2595 39.4324 52.3398 38.9733 52.3398 38.3344C52.3398 37.6955 52.2556 37.2441 52.0835 36.9801C51.9113 36.7123 51.6014 36.5822 51.1538 36.5822C50.7062 36.5822 50.3963 36.7161 50.2242 36.9801C50.052 37.2479 49.9679 37.6993 49.9679 38.3344C49.9679 38.9695 50.0482 39.4286 50.2089 39.7117Z" fill="#1D136D"/>
<path d="M55.775 40.9822H54.6311V35.7295H55.7673V36.0547C56.28 35.7601 56.762 35.6147 57.2173 35.6147C57.9174 35.6147 58.3956 35.8137 58.6519 36.2077C58.9082 36.6018 59.0345 37.256 59.0345 38.1665V40.9822H57.8982V38.1971C57.8982 37.6309 57.837 37.2292 57.7146 36.9882C57.5922 36.751 57.3435 36.6324 56.9648 36.6324C56.609 36.6324 56.2647 36.7012 55.9357 36.8428L55.7788 36.904V40.9784L55.775 40.9822Z" fill="#1D136D"/>
<path d="M61.7387 36.7088V40.9821H60.6024V36.7088H59.9941V35.7332H60.6024V35.3966C60.6024 34.6467 60.7095 34.1341 60.9276 33.851C61.1457 33.5717 61.5282 33.4302 62.083 33.4302L63.2192 33.5335L63.2077 34.4669C62.8634 34.4516 62.5803 34.4478 62.3508 34.4478C62.1212 34.4478 61.9644 34.5167 61.8726 34.6544C61.7807 34.7921 61.7348 35.0408 61.7348 35.4042V35.7294H63.1197V36.705H61.7348L61.7387 36.7088Z" fill="#1D136D"/>
<path d="M63.9963 34.8378V33.6289H65.1402V34.8378H63.9963ZM63.9963 40.9819V35.7292H65.1402V40.9819H63.9963Z" fill="#1D136D"/>
<path d="M70.8128 33.5488V40.986H69.6766V40.7144C69.164 40.9745 68.6972 41.1046 68.2687 41.1046C67.5839 41.1046 67.0789 40.898 66.7614 40.4848C66.4439 40.0716 66.2832 39.3792 66.2832 38.4036C66.2832 37.4281 66.4592 36.7242 66.815 36.2804C67.1669 35.8404 67.7217 35.6185 68.4677 35.6185C68.7202 35.6185 69.1181 35.6644 69.6651 35.7563V33.5488H70.809H70.8128ZM69.4891 39.8918L69.669 39.8192V36.7089C69.2481 36.64 68.8617 36.6056 68.5021 36.6056C67.7944 36.6056 67.4424 37.1947 67.4424 38.3692C67.4424 39.0119 67.5227 39.4595 67.6911 39.7082C67.8556 39.9569 68.1157 40.0793 68.4753 40.0793C68.835 40.0793 69.1716 40.0181 69.493 39.8918H69.4891Z" fill="#1D136D"/>
<path d="M75.9393 40.0368L76.2339 40.0062L76.2531 40.8555C75.4535 41.0162 74.7457 41.0966 74.1298 41.0966C73.3532 41.0966 72.7946 40.8823 72.4541 40.4577C72.1136 40.0292 71.9453 39.3482 71.9453 38.4109C71.9453 36.5478 72.7066 35.6182 74.2254 35.6182C75.7442 35.6182 76.4329 36.4216 76.4329 38.0245L76.3602 38.8432H73.1045C73.1122 39.2755 73.2078 39.5969 73.3876 39.7997C73.5712 40.0024 73.9079 40.1057 74.4052 40.1057C74.9026 40.1057 75.4152 40.0866 75.9393 40.0445V40.0368ZM75.3081 37.9595C75.3081 37.443 75.2239 37.0796 75.0594 36.873C74.8949 36.6664 74.6157 36.5631 74.2254 36.5631C73.8352 36.5631 73.5483 36.6702 73.3685 36.8883C73.1887 37.1064 73.0969 37.4622 73.0892 37.9595H75.3043H75.3081Z" fill="#1D136D"/>
<path d="M78.679 40.9822H77.5352V35.7295H78.6714V36.0547C79.184 35.7601 79.6661 35.6147 80.1213 35.6147C80.8214 35.6147 81.2996 35.8137 81.556 36.2077C81.8123 36.6018 81.9385 37.256 81.9385 38.1665V40.9822H80.8023V38.1971C80.8023 37.6309 80.7411 37.2292 80.6187 36.9882C80.4962 36.751 80.2476 36.6324 79.8688 36.6324C79.513 36.6324 79.1687 36.7012 78.8397 36.8428L78.6829 36.904V40.9784L78.679 40.9822Z" fill="#1D136D"/>
<path d="M85.237 35.6147C85.6081 35.6147 86.0443 35.6644 86.5493 35.76L86.8132 35.8136L86.7712 36.7165C86.2164 36.6591 85.8071 36.6323 85.5431 36.6323C85.0113 36.6323 84.6555 36.7509 84.4719 36.9881C84.2883 37.2253 84.2003 37.6729 84.2003 38.3309C84.2003 38.9889 84.2883 39.4442 84.4643 39.6967C84.6402 39.9492 85.0037 40.0754 85.5584 40.0754L86.7865 39.9913L86.8171 40.9056C86.1093 41.0319 85.5775 41.0931 85.2217 41.0931C84.4222 41.0931 83.8598 40.8788 83.5346 40.4465C83.2094 40.0142 83.0449 39.3103 83.0449 38.3309C83.0449 37.3515 83.2171 36.6514 83.5614 36.2344C83.9057 35.8174 84.4643 35.6108 85.2409 35.6108L85.237 35.6147Z" fill="#1D136D"/>
<path d="M91.5995 40.0368L91.8941 40.0062L91.9132 40.8555C91.1136 41.0162 90.4059 41.0966 89.7899 41.0966C89.0133 41.0966 88.4548 40.8823 88.1143 40.4577C87.7738 40.0292 87.6055 39.3482 87.6055 38.4109C87.6055 36.5478 88.3668 35.6182 89.8856 35.6182C91.4044 35.6182 92.093 36.4216 92.093 38.0245L92.0203 38.8432H88.7647C88.7723 39.2755 88.8679 39.5969 89.0478 39.7997C89.2314 40.0024 89.5681 40.1057 90.0654 40.1057C90.5627 40.1057 91.0754 40.0866 91.5995 40.0445V40.0368ZM90.9721 37.9595C90.9721 37.443 90.8879 37.0796 90.7234 36.873C90.5589 36.6664 90.2796 36.5631 89.8894 36.5631C89.4992 36.5631 89.2123 36.6702 89.0325 36.8883C88.8526 37.1064 88.7608 37.4622 88.7532 37.9595H90.9683H90.9721Z" fill="#1D136D"/>
</svg>
