<svg width="865" height="120" viewBox="0 0 865 120" fill="none" xmlns="http://www.w3.org/2000/svg">
<path d="M403.898 86.0484C403.898 95.8191 406.139 103.147 410.621 108.032C415.103 112.82 421.923 115.214 431.081 115.214H453.929V93.8161H442.481C438.194 93.8161 435.417 92.8879 434.151 91.0315C432.884 89.0773 432.251 86.4392 432.251 83.1172V57.0297H454.465L451.094 43.4324C449.958 38.8492 445.854 35.6318 441.145 35.6318H432.251V13.417H403.898V86.0484Z" fill="#0D0622"/>
<path d="M767.377 14.8827V115.214H795.729V82.6776L828.174 115.214H865L826.016 77.9595C823.512 75.5663 823.467 71.5737 825.917 69.1247L859.423 35.6317H825.371L795.729 66.2628V14.8827H767.377Z" fill="#0D0622"/>
<path d="M721.926 115.214V77.2549C721.926 74.4214 722.267 71.9299 722.949 69.7804C723.729 67.5331 724.849 65.6767 726.31 64.2111C727.772 62.6478 730.11 61.0356 733.325 59.3746C736.541 57.7136 740.292 56.883 744.579 56.883H760.947V35.6318C757.537 35.5341 754.614 35.4852 752.178 35.4852C751.009 35.4852 749.45 35.5341 747.501 35.6318C745.65 35.6318 743.507 35.7295 741.071 35.9249C731.673 36.5824 725.841 40.8711 721.634 49.1093L720.764 45.8567C719.151 39.8252 713.699 35.6318 707.473 35.6318H690.212C690.212 35.6318 693.574 42.6011 693.574 51.8998V115.214H721.926Z" fill="#0D0622"/>
<path fill-rule="evenodd" clip-rule="evenodd" d="M607.797 113.602C615.299 116.533 625.14 117.999 637.319 117.999C650.374 117.999 660.215 116.68 666.84 114.041C673.465 111.306 678.532 106.469 682.039 99.5319C685.644 92.497 687.447 84.4851 687.447 75.496C687.447 66.7024 685.839 58.837 682.624 51.8998C679.409 44.8649 674.342 39.9307 667.425 37.0972C661.565 34.697 653.468 33.3134 643.134 32.9463C638.224 32.9463 639.362 26.3556 640.655 22.5065C640.904 21.7652 640.244 20.9828 639.49 21.1805C629.532 23.7894 608.205 31.1069 596.862 43.9658C596.799 44.0364 596.739 44.1063 596.68 44.1753C594.507 46.3887 592.805 48.9636 591.575 51.8998C588.847 58.5439 587.483 66.4093 587.483 75.496C587.483 84.192 588.993 92.0085 592.013 98.9457C595.034 105.785 600.295 110.671 607.797 113.602ZM654.271 90.2986C651.641 93.6207 645.99 95.2817 637.319 95.2817C629.622 95.2817 624.214 93.6207 621.096 90.2986C618.076 86.8789 616.566 81.9447 616.566 75.496C616.566 68.9497 618.076 64.0155 621.096 60.6934C624.214 57.2737 629.622 55.5638 637.319 55.5638C645.99 55.5638 651.641 57.2737 654.271 60.6934C657 64.0155 658.364 68.9497 658.364 75.496C658.364 81.9447 657 86.8789 654.271 90.2986Z" fill="#0D0622"/>
<path d="M522.348 76.5222L531.702 115.214H554.711C562.83 115.214 569.905 109.667 571.864 101.766L588.26 35.6318H569.556C563.719 35.6318 558.722 39.8276 557.695 45.5901L550.408 86.4883L537.109 35.6318H518.027C512.562 35.6318 507.781 39.3208 506.38 44.6188L495.311 86.4883L486.396 35.6318H456.29L476.02 115.214H498.997C507.131 115.214 514.215 109.647 516.16 101.727L522.348 76.5222Z" fill="#0D0622"/>
<path d="M300.976 35.6316V115.214H329.328V70.3664C329.328 68.0215 329.572 65.9207 330.059 64.0643C330.643 62.2079 331.666 60.6446 333.128 59.3744C334.687 58.1042 336.879 57.176 339.704 56.5897C342.627 55.9058 346.963 55.5638 352.711 55.5638C357.583 55.5638 360.944 56.0035 362.796 56.8828C364.744 57.6645 366.059 58.9836 366.741 60.84C367.423 62.5987 367.764 64.9925 367.764 68.0214V115.214H396.117V62.3056C396.117 55.4661 394.899 49.8968 392.463 45.5977C390.027 41.2009 386.52 37.9766 381.941 35.9247C377.459 33.8729 370.882 32.8469 362.211 32.8469C347.567 32.8469 336.618 36.3748 329.182 49.5488L327.84 44.188C326.582 39.1583 322.073 35.6316 316.902 35.6316H300.976Z" fill="#0D0622"/>
<path d="M292.756 35.6318H264.403V80.4793C264.403 82.8243 264.111 84.925 263.526 86.7814C263.039 88.6379 262.016 90.2012 260.457 91.4714C258.996 92.7415 256.804 93.7186 253.881 94.4026C251.055 94.9888 246.768 95.2819 241.02 95.2819C236.148 95.2819 232.738 94.8911 230.79 94.1094C228.938 93.2301 227.672 91.911 226.99 90.1523C226.308 88.2959 225.967 85.8532 225.967 82.8243V35.6318H197.614V88.5401C197.614 95.3796 198.832 100.998 201.268 105.395C203.704 109.694 207.163 112.869 211.644 114.921C216.224 116.973 222.849 117.999 231.52 117.999C246.11 117.999 257.152 114.403 264.549 101.297L266.927 107.799C268.556 112.253 272.784 115.214 277.515 115.214H292.756V35.6318Z" fill="#0D0622"/>
<path d="M154.202 77.2567V115.216H125.85V51.9016C125.85 42.6029 122.488 35.6335 122.488 35.6335H139.868C146.288 35.6335 151.854 40.0849 153.283 46.3611L153.91 49.111C158.117 40.8728 163.949 36.5842 173.347 35.9267C175.783 35.7312 177.926 35.6335 179.778 35.6335C181.726 35.5358 183.285 35.487 184.454 35.487C186.89 35.487 189.277 35.5358 192.687 35.6335V56.8848H176.855C172.568 56.8848 168.817 57.7153 165.601 59.3763C162.386 61.0373 160.048 62.6495 158.586 64.2128C157.125 65.6784 156.005 67.5349 155.225 69.7821C154.543 71.9317 154.202 74.4232 154.202 77.2567Z" fill="#0D0622"/>
<path d="M56.3697 3.48954C55.9071 2.74538 56.6158 1.66545 57.4572 1.91041C90.428 11.5105 106.726 24.6808 112.234 49.5307H81.0216C79.947 45.33 78.0909 42.2039 75.4533 40.1524C72.9133 38.0032 67.8823 36.9287 60.3602 36.9287C53.4242 36.9287 48.5397 38.1009 45.7066 40.4455C42.8736 42.6924 40.7244 45.965 39.2591 50.2634C37.7937 54.464 37.0611 59.5439 37.0611 65.503C37.0611 71.4621 37.8426 76.542 39.4056 80.7427C40.9687 84.9434 43.2644 88.1671 46.2928 90.414C49.4189 92.6609 53.7172 93.7843 59.1879 93.7843C64.4632 93.7843 68.5173 93.3447 71.3503 92.4655C74.1833 91.5863 76.3325 90.2675 77.7979 88.509C79.2632 86.6529 80.3378 84.4549 81.0216 81.915H72.1594C66.3712 81.915 61.679 77.2227 61.679 71.4345V59.4951H99.6316C104.125 59.4951 107.447 60.7162 109.596 63.1585C111.745 65.503 113.211 69.1176 113.992 74.0021L120 115.178H95.8217L93.7702 101.41C85.3309 114.538 73.8807 117.963 58.4552 117.963C46.0486 117.963 36.2795 115.862 29.1482 111.662C14.6371 102.915 3.17503 83.7935 9.68527 58.9458C10.6867 55.1238 5.24706 53.2973 1.57394 54.0588C1.12395 54.1521 0.402123 53.3494 0.664587 52.9722C2.37897 50.5081 5.6124 46.43 9.97625 43.4503C12.7755 41.5389 11.4897 37.3178 0.796258 36.2967C0.125955 36.2327 -0.242166 35.5041 0.179508 34.9791C4.00953 30.2108 20.3226 12.8445 54.7608 12.8445C58.5885 12.8445 59.3185 8.23271 56.3697 3.48954Z" fill="#0D0622"/>
</svg>
