<svg width="276" height="60" viewBox="0 0 276 60" fill="none" xmlns="http://www.w3.org/2000/svg">
<g clip-path="url(#clip0_4530_16333)">
<path d="M55.4842 19.6433L40.3707 4.50879C38.5809 2.81649 36.4489 1.52785 34.1188 0.729812C28.9552 -0.989599 23.8164 0.352522 19.6546 4.50879L4.50402 19.6433C2.812 21.4334 1.52356 23.5657 0.725652 25.8963C-0.999659 31.0607 0.34225 36.2004 4.50402 40.3567L19.6361 55.4912C21.423 57.1841 23.5531 58.4729 25.8818 59.2702C27.2925 59.7471 28.7709 59.9936 30.26 60C33.89 60 37.3653 58.4661 40.346 55.4912L55.4718 40.3567C57.1661 38.5671 58.4566 36.4348 59.2564 34.1037C60.9755 28.9393 59.6336 23.8058 55.4718 19.6433H55.4842ZM31.1567 8.9001C32.2998 9.26665 33.3532 9.86931 34.2486 10.669L38.7196 15.1469L30.0003 23.8614L21.281 15.1407L25.7767 10.6381C26.9825 9.43818 28.6831 8.16409 31.169 8.89391L31.1567 8.9001ZM8.90696 28.8279C9.27461 27.6838 9.87937 26.63 10.6818 25.7355L15.1527 21.2638L23.872 29.9845L15.1465 38.7053L10.6508 34.2026C9.44497 33.0028 8.17726 31.3019 8.90078 28.8156L8.90696 28.8279ZM28.8315 51.0813C27.687 50.718 26.6329 50.115 25.7396 49.3124L21.281 44.8902L30.0003 36.1633L38.7196 44.884L34.2239 49.3866C33.018 50.5865 31.3236 51.8606 28.8315 51.1308V51.0813ZM51.0936 31.1968C50.7261 32.3396 50.1237 33.393 49.325 34.2892L44.854 38.7053L36.1347 29.9845L44.854 21.2638L49.3497 25.7602C50.5556 26.9601 51.8233 28.6609 51.0998 31.1473" fill="#00ABE4"/>
<path d="M88.1127 51.3111H95.923V29.6329C95.923 22.947 91.8602 18.0115 84.928 18.0115C81.5516 18.0115 77.934 19.5082 76.0541 22.2605V6.17969H68.25V51.2926H76.0541V34.1912C76.0541 30.1958 78.0577 25.1983 82.7389 25.1983C86.8636 25.1983 88.1127 27.5053 88.1127 31.2596V51.3111ZM119.651 38.4898C119.651 43.2583 116.243 45.8622 111.414 45.8622C108.996 45.8622 106.825 44.316 106.825 41.8358C106.825 39.2319 109.119 37.8094 111.476 37.6239L119.651 37.0054V38.4898ZM126.156 51.8121C127.489 51.8556 128.811 51.5575 129.996 50.9462V45.2437C129.672 45.32 129.34 45.3615 129.007 45.3674C127.708 45.3674 127.214 44.8107 127.214 43.3202V31.3647C127.311 29.1566 126.994 26.9497 126.28 24.8582C124.425 20.0215 119.712 18.2898 114.203 18.2898C107.011 18.2898 101.247 21.5121 100.814 28.7609H108.316C108.501 25.7859 110.604 24.1778 114.203 24.1778C118.599 24.1778 119.651 26.2189 119.651 29.2557V31.241L110.165 31.9028C104.03 32.3358 99.2623 35.8673 99.2623 42.0028C99.2623 47.2723 103.226 52.1028 110.913 52.1028C115.495 52.1028 119.212 49.8762 120.702 47.2724C120.949 49.6907 122.804 51.7935 126.15 51.7935L126.156 51.8121ZM150.49 25.9529C150.903 25.9559 151.316 25.9828 151.727 26.0333V18.7351C151.393 18.7351 151.059 18.6609 150.731 18.6609C146.946 18.6609 143.106 20.2071 141.622 23.9243L140.936 19.0938H134.362V51.3173H142.172V35.0819C142.172 29.8742 145.023 25.9715 150.471 25.9715L150.49 25.9529ZM174.929 51.3297H182.677V29.8123C182.677 23.1202 178.645 18.2898 171.769 18.2898C168.058 18.2898 164.212 19.836 162.289 23.2377L161.732 19.0876H155.245V51.3111H162.988V38.1805C162.988 35.453 162.926 32.1069 164.045 29.5649C165.096 27.2084 166.896 25.4767 169.61 25.4767C173.698 25.4767 174.935 27.7713 174.935 31.5503L174.929 51.3297ZM208.105 31.9956H194.179C194.145 30.1788 194.737 28.4055 195.855 26.9734C196.499 26.1694 197.322 25.527 198.258 25.0974C199.194 24.6679 200.218 24.4631 201.247 24.4994C202.147 24.4514 203.047 24.5916 203.889 24.9111C204.731 25.2306 205.497 25.7223 206.139 26.3549C207.376 27.7218 208.062 29.5773 208.124 31.9956H208.105ZM215.866 35.4653C215.99 31.4389 215.433 27.7836 213.077 24.2459C210.418 20.2195 206.077 18.3022 201.328 18.3022C199.425 18.2466 197.53 18.5806 195.761 19.2836C193.991 19.9866 192.384 21.0438 191.038 22.3904C187.946 25.5509 186.394 30.1339 186.394 35.2798C186.394 40.5493 188.125 45.0705 191.341 48.1692C192.686 49.4744 194.278 50.4975 196.024 51.1784C197.769 51.8592 199.634 52.184 201.507 52.1337C205.595 52.1337 209.62 50.8349 212.347 47.6125C213.584 46.122 214.889 43.5861 215.075 41.6626H207.654C207.393 42.6957 206.857 43.6386 206.102 44.3902C204.989 45.5035 203.628 45.9364 201.396 45.9364C199.606 45.9305 197.891 45.2194 196.622 43.9572C195.82 43.1194 195.197 42.1267 194.792 41.0398C194.387 39.9529 194.208 38.7947 194.266 37.6362H215.804C215.804 36.9497 215.866 35.4653 215.866 35.4653ZM226.267 28.0929C226.286 27.3411 226.532 26.6126 226.974 26.004C227.416 25.3954 228.032 24.9354 228.741 24.685C229.808 24.2847 230.949 24.116 232.087 24.1902C233.625 24.1473 235.126 24.6761 236.298 25.6746C237.108 26.4804 237.573 27.5691 237.596 28.7114H244.974C244.881 26.2236 243.865 23.8596 242.123 22.0811C239.773 19.5329 235.871 18.296 232.031 18.296C227.999 18.296 224.61 19.4711 222.242 21.5183C221.184 22.4014 220.34 23.512 219.771 24.7671C219.203 26.0222 218.925 27.3895 218.958 28.767C218.958 32.8553 221.933 36.4487 226.329 37.3826C229.18 38.0011 232.402 38.1867 235.253 38.6196C237.232 38.9289 238.474 40.1659 238.474 42.0275C238.474 45.5591 234.511 46.1158 231.907 46.1158C229.675 46.1158 228.252 45.6828 227.01 44.6932C226.153 43.9259 225.578 42.8938 225.377 41.7616H218.08C218.379 44.3035 219.566 46.658 221.432 48.4104C224.097 50.9524 227.752 52.1213 231.845 52.1213C236.242 52.1213 240.268 51.0081 242.871 48.4104C243.796 47.4859 244.522 46.3816 245.004 45.1658C245.486 43.9499 245.713 42.6482 245.673 41.341C245.673 36.257 241.962 33.0346 236.873 32.2306C233.713 31.7358 232.909 31.674 229.996 31.3029C228.265 31.0555 226.286 30.3689 226.286 28.0805L226.267 28.0929ZM267.322 28.699H274.675C274.583 26.2112 273.566 23.8473 271.824 22.0688C269.468 19.533 265.566 18.296 261.751 18.296C257.725 18.296 254.33 19.4711 251.962 21.5183C250.904 22.4014 250.06 23.512 249.491 24.7671C248.922 26.0222 248.644 27.3895 248.678 28.767C248.678 32.8553 251.652 36.4487 256.049 37.3826C258.9 38.0011 262.122 38.1867 264.973 38.6196C266.951 38.9289 268.194 40.1659 268.194 42.0275C268.194 45.5591 264.224 46.1158 261.627 46.1158C259.395 46.1158 257.972 45.6828 256.729 44.6932C255.873 43.9259 255.298 42.8938 255.097 41.7616H247.775C248.074 44.3049 249.264 46.6603 251.133 48.4104C253.792 50.9524 257.447 52.1213 261.54 52.1213C265.937 52.1213 269.963 51.0081 272.566 48.4104C273.489 47.4848 274.213 46.3801 274.692 45.1643C275.172 43.9485 275.398 42.6474 275.355 41.341C275.355 36.257 271.645 33.0346 266.556 32.2306C263.396 31.7358 262.592 31.674 259.679 31.3029C257.948 31.0555 255.969 30.3689 255.969 28.0805C255.987 27.3287 256.234 26.6002 256.675 25.9917C257.117 25.3831 257.733 24.9231 258.442 24.6726C259.51 24.2723 260.65 24.1036 261.788 24.1778C263.327 24.135 264.827 24.6638 265.999 25.6622C266.811 26.4674 267.278 27.556 267.304 28.699" fill="#231F20"/>
</g>
<defs>
<clipPath id="clip0_4530_16333">
<rect width="275.357" height="60" fill="white"/>
</clipPath>
</defs>
</svg>
