<svg width="110" height="24" viewBox="0 0 110 24" fill="none" xmlns="http://www.w3.org/2000/svg">
<g clip-path="url(#clip0_1_574)">
<path d="M22.0078 7.85733L16.0128 1.80352C15.3028 1.1266 14.4572 0.611142 13.5329 0.291925C11.4847 -0.395839 9.44626 0.141009 7.79544 1.80352L1.78573 7.85733C1.11457 8.57337 0.603491 9.42629 0.286987 10.3585C-0.397383 12.4243 0.134905 14.4802 1.78573 16.1427L7.78808 22.1965C8.4969 22.8736 9.34183 23.3892 10.2655 23.7081C10.8251 23.8989 11.4115 23.9974 12.0022 24C13.4421 24 14.8207 23.3865 16.003 22.1965L22.0029 16.1427C22.6749 15.4269 23.1868 14.5739 23.5041 13.6415C24.186 11.5757 23.6537 9.52231 22.0029 7.85733H22.0078ZM12.3579 3.56004C12.8113 3.70666 13.2292 3.94772 13.5844 4.2676L15.3578 6.05875L11.8992 9.54458L8.44056 6.05628L10.2238 4.25522C10.7022 3.77527 11.3767 3.26563 12.3628 3.55756L12.3579 3.56004ZM3.53223 11.5312C3.67806 11.0735 3.91795 10.652 4.23622 10.2942L6.0097 8.50551L9.46834 11.9938L6.00724 15.4821L4.22396 13.6811C3.74563 13.2011 3.24278 12.5208 3.52977 11.5262L3.53223 11.5312ZM11.4356 20.4325C10.9816 20.2872 10.5635 20.046 10.2091 19.725L8.44056 17.9561L11.8992 14.4653L15.3578 17.9536L13.5746 19.7547C13.0962 20.2346 12.4241 20.7442 11.4356 20.4523V20.4325ZM20.2662 12.4787C20.1204 12.9359 19.8814 13.3572 19.5646 13.7157L17.7912 15.4821L14.3325 11.9938L17.7912 8.50551L19.5745 10.3041C20.0528 10.784 20.5556 11.4644 20.2686 12.4589" fill="#00ABE4"/>
<path d="M34.9519 20.5241H38.05V11.8529C38.05 9.17849 36.4384 7.20427 33.6887 7.20427C32.3494 7.20427 30.9144 7.80297 30.1687 8.90388V2.47156H27.0731V20.5167H30.1687V13.6762C30.1687 12.078 30.9635 10.079 32.8203 10.079C34.4564 10.079 34.9519 11.0018 34.9519 12.5035V20.5241ZM47.4619 15.3956C47.4619 17.303 46.1104 18.3446 44.1946 18.3446C43.2355 18.3446 42.3745 17.7261 42.3745 16.734C42.3745 15.6925 43.2846 15.1234 44.2191 15.0492L47.4619 14.8018V15.3956ZM50.0424 20.7245C50.5712 20.7419 51.0955 20.6227 51.5657 20.3782V18.0972C51.437 18.1277 51.3054 18.1443 51.1732 18.1466C50.6581 18.1466 50.4619 17.924 50.4619 17.3278V12.5456C50.5005 11.6623 50.3749 10.7796 50.0915 9.94295C49.3556 8.0083 47.4865 7.31559 45.3009 7.31559C42.4481 7.31559 40.162 8.60454 39.9903 11.504H42.9657C43.0393 10.314 43.8733 9.67082 45.3009 9.67082C47.0449 9.67082 47.4619 10.4872 47.4619 11.7019V12.4961L43.6991 12.7608C41.2658 12.934 39.3746 14.3466 39.3746 16.8008C39.3746 18.9086 40.9469 20.8408 43.9959 20.8408C45.8135 20.8408 47.2878 19.9502 47.8789 18.9086C47.977 19.8759 48.7129 20.7171 50.04 20.7171L50.0424 20.7245ZM59.6947 10.3808C59.8587 10.382 60.0225 10.3928 60.1853 10.413V7.49372C60.0529 7.49372 59.9204 7.46403 59.7904 7.46403C58.2892 7.46403 56.7659 8.08253 56.1772 9.56938L55.9049 7.63721H53.2975V20.5266H56.3955V14.0324C56.3955 11.9493 57.5263 10.3883 59.6874 10.3883L59.6947 10.3808ZM69.3888 20.5315H72.4623V11.9246C72.4623 9.24776 70.863 7.31559 68.1353 7.31559C66.6635 7.31559 65.1378 7.93408 64.3749 9.29477L64.1542 7.63474H61.581V20.5241H64.6521V15.2719C64.6521 14.1809 64.6276 12.8424 65.0716 11.8256C65.4886 10.8831 66.2024 10.1903 67.2792 10.1903C68.9006 10.1903 69.3912 11.1082 69.3912 12.6198L69.3888 20.5315ZM82.5488 12.7979H77.0248C77.0112 12.0712 77.2459 11.3619 77.6895 10.789C77.9449 10.4674 78.2714 10.2105 78.6427 10.0387C79.0141 9.86684 79.4201 9.78493 79.8285 9.79946C80.1853 9.78023 80.5421 9.83631 80.8762 9.96411C81.2103 10.0919 81.5143 10.2886 81.7687 10.5417C82.2593 11.0884 82.5316 11.8306 82.5561 12.7979H82.5488ZM85.6272 14.1858C85.6763 12.5753 85.4555 11.1131 84.5209 9.69803C83.4662 8.08747 81.7442 7.32054 79.8604 7.32054C79.1054 7.29833 78.354 7.43192 77.6521 7.71313C76.9502 7.99433 76.3127 8.41721 75.7787 8.95583C74.5522 10.22 73.9365 12.0532 73.9365 14.1116C73.9365 16.2194 74.6233 18.0279 75.8989 19.2673C76.4323 19.7894 77.0638 20.1987 77.7564 20.471C78.4489 20.7434 79.1884 20.8733 79.9315 20.8532C81.5529 20.8532 83.1497 20.3336 84.2315 19.0447C84.7221 18.4485 85.2397 17.4341 85.3132 16.6647H82.3697C82.2664 17.078 82.0535 17.4551 81.754 17.7558C81.3125 18.2011 80.7728 18.3742 79.8873 18.3742C79.1774 18.3719 78.4971 18.0874 77.9937 17.5826C77.6755 17.2475 77.4285 16.8504 77.2678 16.4156C77.1071 15.9808 77.0361 15.5176 77.0591 15.0542H85.6027C85.6027 14.7796 85.6272 14.1858 85.6272 14.1858ZM89.7531 11.2368C89.7604 10.9361 89.8581 10.6447 90.0334 10.4013C90.2086 10.1579 90.453 9.97386 90.7342 9.87368C91.1577 9.71355 91.61 9.64609 92.0613 9.67576C92.6717 9.65861 93.2668 9.87014 93.7317 10.2695C94.053 10.5918 94.2376 11.0273 94.2468 11.4842H97.1732C97.1365 10.4891 96.7333 9.54353 96.0424 8.83214C95.1103 7.81286 93.5625 7.31807 92.0392 7.31807C90.4399 7.31807 89.0957 7.78812 88.1562 8.607C87.7367 8.96026 87.4017 9.40448 87.1762 9.90653C86.9507 10.4086 86.8404 10.9555 86.8537 11.5065C86.8537 13.1418 88.0335 14.5792 89.7776 14.9527C90.9084 15.2001 92.1864 15.2744 93.3172 15.4475C94.1021 15.5712 94.5952 16.066 94.5952 16.8107C94.5952 18.2233 93.0228 18.446 91.9901 18.446C91.1046 18.446 90.5405 18.2728 90.0474 17.877C89.7077 17.57 89.4797 17.1572 89.3998 16.7043H86.5054C86.6242 17.7211 87.095 18.6629 87.8349 19.3638C88.8921 20.3806 90.3418 20.8482 91.9656 20.8482C93.7097 20.8482 95.3065 20.4029 96.3392 19.3638C96.7061 18.994 96.994 18.5523 97.1851 18.066C97.3762 17.5797 97.4665 17.059 97.4504 16.5361C97.4504 14.5025 95.9786 13.2135 93.9599 12.8919C92.7064 12.694 92.3875 12.6693 91.2322 12.5208C90.5454 12.4219 89.7604 12.1473 89.7604 11.2319L89.7531 11.2368ZM106.038 11.4793H108.955C108.918 10.4842 108.515 9.53859 107.824 8.82719C106.889 7.81286 105.341 7.31807 103.828 7.31807C102.231 7.31807 100.884 7.78812 99.945 8.607C99.5255 8.96026 99.1905 9.40448 98.965 9.90653C98.7395 10.4086 98.6292 10.9555 98.6425 11.5065C98.6425 13.1418 99.8224 14.5792 101.566 14.9527C102.697 15.2001 103.975 15.2744 105.106 15.4475C105.891 15.5712 106.384 16.066 106.384 16.8107C106.384 18.2233 104.809 18.446 103.779 18.446C102.893 18.446 102.329 18.2728 101.836 17.877C101.497 17.57 101.269 17.1572 101.189 16.7043H98.2844C98.403 17.7217 98.8749 18.6638 99.6163 19.3638C100.671 20.3806 102.121 20.8482 103.745 20.8482C105.489 20.8482 107.086 20.4029 108.118 19.3638C108.484 18.9936 108.771 18.5517 108.961 18.0654C109.152 17.5791 109.241 17.0586 109.224 16.5361C109.224 14.5025 107.753 13.2135 105.734 12.8919C104.481 12.694 104.162 12.6693 103.006 12.5208C102.319 12.4219 101.535 12.1473 101.535 11.2319C101.542 10.9312 101.64 10.6398 101.815 10.3963C101.99 10.1529 102.234 9.96891 102.516 9.86873C102.939 9.7086 103.391 9.64114 103.843 9.67082C104.453 9.65367 105.048 9.86519 105.513 10.2646C105.835 10.5866 106.021 11.0221 106.031 11.4793" fill="white"/>
</g>
<defs>
<clipPath id="clip0_1_574">
<rect width="109.224" height="24" fill="white"/>
</clipPath>
</defs>
</svg>
