<?xml version="1.0" encoding="UTF-8"?><svg id="a" xmlns="http://www.w3.org/2000/svg" xmlns:xlink="http://www.w3.org/1999/xlink" viewBox="0 0 232.29 74.31"><defs><style>.d{fill:url(#c);}.e{fill:#16151e;}.f{fill:#131417;}</style><linearGradient id="c" x1="155.73" y1="354.34" x2="232.29" y2="354.34" gradientTransform="translate(-54.38 342.2) rotate(9.24) scale(1 -1)" gradientUnits="userSpaceOnUse"><stop offset=".08" stop-color="#82ffe8"/><stop offset=".95" stop-color="#7c47fc"/></linearGradient></defs><g id="b"><path class="f" d="M220.33,34.82c-.82,6.24-3.33,9.96-6.89,10.22-2.44,.02-4.75-1.11-6.24-3.04,5.31-3.73,8.8-9.52,9.64-15.96-14.21,4.23-28.91,6.61-43.73,7.07,1.72,3.56,4.33,6.63,7.57,8.9-5.7,6.55-8.77,14.99-8.59,23.67h5.99c-.14-6.76,2.06-13.36,6.23-18.67-.9,6.19-1.46,12.42-1.69,18.67h10.63s-1.95-8.06,1.23-8.07c3.18,0,1.22,8.07,1.22,8.07h10.64c-.21-5.9-.73-11.79-1.55-17.65,1.18,.95,2.51,1.71,3.94,2.24,1.64,.61,3.38,.87,5.13,.75,3.17-.24,6.11-1.78,8.09-4.27,2.24-2.67,3.69-6.42,4.31-11.14l-5.94-.78Z"/><ellipse class="d" cx="194.01" cy="23.61" rx="38.75" ry="9.45" transform="translate(-1.27 31.46) rotate(-9.24)"/><path class="f" d="M10.75,52.97c-4.59-.62-4.96-1.47-4.96-2.43,0-.82,.49-2.19,3.75-2.19,3.73,0,4.54,1.53,4.82,2.68l.05,.21h4.85l-.03-.3c-.14-1.47-1.22-6.26-9.45-6.26-6.55,0-8.87,3.37-8.87,6.25,0,3.51,2.65,5.42,8.6,6.21,5.08,.62,5.51,1.69,5.51,2.82,0,1.66-1.5,2.5-4.46,2.5s-4.98-1.08-5.6-3.2l-.06-.2H0l.05,.31c.69,4.34,4.42,6.83,10.23,6.83,6.11,0,9.61-2.41,9.61-6.6,0-2.79-1.11-5.53-9.14-6.64Z"/><path class="f" d="M36.1,44.69c-3.84,0-6,1.59-7.2,3.18-.01-.96-.05-1.93-.11-2.4l-.03-.23h-4.81v.28c.05,1.64,.05,3.32,.05,4.96v23.83h4.92v-10.79c1.64,1.87,4.05,2.87,6.53,2.7,5.83,0,10.24-4.77,10.24-11.09,0-5.95-4.11-10.43-9.57-10.43Zm4.53,10.63c0,3.12-1.56,6.76-5.94,6.76-3.7,0-5.9-2.44-5.9-6.53s2.18-6.72,5.98-6.72c4.05,0,5.86,3.26,5.86,6.49Z"/><path class="f" d="M68.22,60.31v-8.4c0-4.79-3.15-7.23-9.37-7.23-7.88,0-9.15,4.63-9.33,6.62l-.03,.3h4.89l.05-.21c.31-1.43,.93-2.95,4.46-2.95,3.98,0,4.49,1.92,4.49,3.6v.71h-4.38c-7.15,0-10.63,2.22-10.63,6.8,0,3.32,2.46,6.68,7.97,6.68,3.4,0,5.8-.91,7.16-2.7,.02,.65,.08,1.3,.2,1.94l.05,.21h4.65l-.03-.29c-.04-.47-.16-2.95-.16-5.06Zm-15-1.02c0-2.16,1.75-3.09,5.86-3.09,2.32,0,3.64,0,4.3,.03v.45c0,3.76-2.04,5.67-6.06,5.67-2.61,0-4.1-1.11-4.1-3.05h0Z"/><path class="f" d="M88.6,58.95c-.86,2.15-3.03,3.49-5.34,3.28-3.59,0-5.9-2.67-5.9-6.8s2.32-6.76,5.9-6.76c2.33-.2,4.5,1.21,5.25,3.42l.07,.18h4.84l-.05-.31c-.41-2.7-3-7.26-10.07-7.26-5.81-.23-10.71,4.3-10.93,10.11,0,.24-.01,.47,0,.71,0,6.5,4.28,10.7,10.9,10.7,5.23,0,9.04-2.65,10.19-7.08l.09-.34h-4.86l-.07,.16Z"/><path class="f" d="M106.85,44.69c-6.33,0-10.74,4.45-10.74,10.82,0,5.33,3.35,10.7,10.82,10.7,6.93,0,9.4-4.05,10.26-6.47l.13-.36h-4.92l-.08,.14c-1.06,1.9-2.67,2.75-5.23,2.75-3.18,.13-5.88-2.33-6.04-5.51h16.43v-1.37c0-4.94-2.78-10.7-10.63-10.7Zm-.04,3.83c4.35,0,5.39,2.86,5.6,4.77h-11.27c.44-3.04,2.49-4.77,5.67-4.77Z"/><rect class="f" x="121.5" y="35.82" width="4.92" height="29.85"/><path class="f" d="M134.47,35.9c-1.38,0-2.5,1.12-2.5,2.5s1.12,2.5,2.5,2.5,2.5-1.12,2.5-2.5h0c0-1.38-1.12-2.5-2.5-2.5Z"/><rect class="f" x="132.05" y="45.23" width="4.92" height="20.43"/><path class="e" d="M166.66,49.14v-3.9h-5.04v-6.25h-4.92v6.25h-7.74v-1.99c0-2.82,.69-3.67,2.97-3.67,.53,0,1.06,.05,1.58,.15l.33,.08v-3.99l-.2-.05c-.82-.18-1.66-.26-2.49-.24-4.65,0-7.11,2.62-7.11,7.58v2.15h-3.64v3.9h3.64v16.53h4.92v-16.53h7.74v10.63c0,4.33,1.7,6.09,5.86,6.09,1.14,.05,2.27-.09,3.37-.4l.19-.06v-3.66l-.33,.07c-.6,.11-1.21,.16-1.82,.15-1.8,0-2.35-.66-2.35-2.82v-10h5.04Z"/><path class="f" d="M214.76,13.09c-5.54-11.5-19.35-16.32-30.85-10.78-9.2,4.44-14.4,14.39-12.78,24.47,1.11,6.89,46.79-.16,45.62-7.38-.36-2.19-1.03-4.32-1.99-6.32Z"/></g></svg>