<svg xmlns="http://www.w3.org/2000/svg" fill="none" viewBox="0 0 297 101"><path fill="#3636D6" d="M133.55 83.84h-21.3c-4.62 0-8.26-1.18-10.9-3.53-2.65-2.35-3.97-5.64-3.97-9.86V51.1c0-4.22 1.32-7.51 3.97-9.86 2.65-2.35 6.28-3.53 10.9-3.53h8.44c4.62 0 8.24 1.18 10.85 3.53 2.61 2.35 3.92 5.64 3.92 9.86v11.48c0 .9-.47 1.36-1.41 1.36h-28.43c-.67 0-1 .27-1 .81v5.52c0 5.24 2.81 7.87 8.44 7.87h20.5c.94 0 1.41.42 1.41 1.27v3.26c0 .78-.47 1.18-1.41 1.18l-.01-.01Zm-27.93-24.69h21.7c.67 0 1-.3 1-.9v-6.96c0-5.18-2.81-7.78-8.44-7.78h-6.83c-5.63 0-8.44 2.59-8.44 7.78v6.96c0 .6.33.9 1 .9h.01ZM153.74 83.84h-4.52c-.94 0-1.41-.42-1.41-1.27V38.99c0-.84.47-1.27 1.41-1.27h4.52c.94 0 1.41.42 1.41 1.27v3.53h.4c1.67-3.19 5.09-4.79 10.25-4.79h5.63c4.55 0 8.1 1.18 10.65 3.53 2.54 2.35 3.82 5.64 3.82 9.86v31.47c0 .84-.47 1.27-1.41 1.27h-4.52c-.94 0-1.41-.42-1.41-1.27v-31.2c0-5.24-2.81-7.87-8.44-7.87h-5.63c-3.01 0-5.32.72-6.93 2.17-1.61 1.45-2.41 3.5-2.41 6.15v30.74c0 .84-.47 1.27-1.41 1.27v-.01ZM195.33 37.73h4.72c.87 0 1.41.42 1.61 1.27l12.06 38.25h.5L226.18 39c.27-.84.84-1.27 1.71-1.27h4.72c.94 0 1.27.42 1 1.27l-14.47 43.49c-.2.9-.8 1.36-1.81 1.36h-6.83c-.94 0-1.54-.45-1.81-1.36L194.32 39c-.27-.84.07-1.27 1-1.27h.01Z"/><path fill="#00EDB9" d="M73.69 19.05c3.93 0 7.11 3.18 7.11 7.11s-3.18 7.11-7.11 7.11-7.11-3.18-7.11-7.11 3.18-7.11 7.11-7.11ZM19.27 33.26h35.74c.79 0 1.42-.64 1.42-1.42V20.47c0-.79-.64-1.42-1.42-1.42H19.28c-.79 0-1.42.64-1.42 1.42v11.37c0 .79.64 1.42 1.42 1.42h-.01Zm12.79 49.58V45.62c0-.66-.53-1.19-1.19-1.19H19.03c-.66 0-1.19.53-1.19 1.19v37.22c0 .66.53 1.19 1.19 1.19h11.84c.66 0 1.19-.53 1.19-1.19Zm11.41 1.19h36.07c.69 0 1.26-.56 1.26-1.26v-11.7c0-.69-.56-1.26-1.26-1.26H43.47c-.69 0-1.26.56-1.26 1.26v11.7c0 .69.56 1.26 1.26 1.26Zm23.11-32.49c0 3.93 3.18 7.11 7.11 7.11s7.11-3.18 7.11-7.11-3.18-7.11-7.11-7.11-7.11 3.18-7.11 7.11Zm-24.37 0c0 3.93 3.18 7.11 7.11 7.11s7.11-3.18 7.11-7.11-3.18-7.11-7.11-7.11-7.11 3.18-7.11 7.11Z"/><path fill="#3636D6" d="M275.23 24.72c-3.51-3.13-8.25-4.74-14.03-4.74-6.44 0-11.66 2.08-14.79 5.88-2.84 3.41-3.79 7.3-3.79 15.54v20.85c0 9.57.85 13.17 4.17 16.68 3.32 3.6 8.44 5.5 14.6 5.5s11-1.8 14.31-5.31c3.13-3.32 4.45-7.68 4.45-14.78V39.22c0-7.39-1.33-11.18-4.93-14.5h.01ZM249.69 41.2c0-5.7.39-7.96 2.06-10.32 1.87-3.05 5.5-4.72 9.73-4.72 3.24 0 6.19 1.08 8.35 3.05.72.69 1.3 1.4 1.76 2.18l-21.84 36.27c-.06-1.22-.08-2.7-.08-4.55V41.19l.02.01Zm23.49 23.09c0 4.82-.59 7.57-2.06 9.73-1.87 2.65-5.6 4.32-9.63 4.32-3.73 0-7.27-1.47-9.34-3.83-.21-.24-.39-.46-.57-.68l21.58-35.85c.01.4.02.81.02 1.25v25.06Z"/></svg>