<svg xmlns="http://www.w3.org/2000/svg" fill="none" viewBox="0 0 138 32">
  <path fill="#3636D6" d="M56.623 31.711H46.198c-2.261 0-4.043-.578-5.335-1.728-1.297-1.15-1.943-2.76-1.943-4.826v-9.47c0-2.066.646-3.676 1.943-4.826 1.297-1.15 3.074-1.728 5.335-1.728h4.13c2.262 0 4.034.577 5.311 1.728 1.278 1.15 1.919 2.76 1.919 4.825v5.62c0 .44-.23.665-.69.665H42.953c-.328 0-.49.132-.49.396v2.702c0 2.565 1.376 3.852 4.131 3.852h10.034c.46 0 .69.206.69.622v1.595c0 .382-.23.578-.69.578l-.005-.005Zm-13.67-12.084h10.62c.329 0 .49-.147.49-.441V15.78c0-2.536-1.375-3.808-4.13-3.808H46.59c-2.756 0-4.131 1.267-4.131 3.808v3.406c0 .294.161.44.49.44h.004ZM66.512 31.712h-2.213c-.46 0-.69-.206-.69-.622V9.76c0-.411.23-.622.69-.622h2.213c.46 0 .69.206.69.622v1.728h.196c.817-1.562 2.491-2.345 5.017-2.345h2.755c2.227 0 3.965.578 5.213 1.728 1.243 1.15 1.87 2.76 1.87 4.826V31.1c0 .41-.23.621-.69.621H79.35c-.46 0-.69-.205-.69-.621V15.829c0-2.565-1.376-3.852-4.131-3.852h-2.756c-1.473 0-2.603.352-3.391 1.062-.788.71-1.18 1.713-1.18 3.01v15.046c0 .41-.23.621-.69.621v-.005ZM86.866 9.138h2.31c.426 0 .69.206.789.622l5.902 18.721h.245l5.854-18.721c.132-.411.411-.622.837-.622h2.31c.46 0 .622.206.489.622L98.52 31.046c-.098.44-.391.665-.886.665h-3.343c-.46 0-.753-.22-.886-.665L86.372 9.76c-.132-.411.034-.622.49-.622h.004Z"/>
  <path fill="#00EDB9" d="M27.33 0a3.478 3.478 0 0 1 3.48 3.48 3.478 3.478 0 0 1-3.48 3.48 3.481 3.481 0 0 1 0-6.96ZM.696 6.955h17.493a.694.694 0 0 0 .695-.695V.695A.698.698 0 0 0 18.188 0H.695A.698.698 0 0 0 0 .695V6.26c0 .387.313.695.695.695Zm6.26 24.267V13.005a.58.58 0 0 0-.582-.583H.583a.58.58 0 0 0-.583.583v18.217c0 .323.26.582.582.582h5.795a.58.58 0 0 0 .583-.582h-.005Zm5.585.582h17.654a.617.617 0 0 0 .617-.616V25.46a.617.617 0 0 0-.617-.617H12.54a.617.617 0 0 0-.617.617v5.727c0 .337.274.616.617.616Zm11.31-15.902a3.478 3.478 0 0 0 3.48 3.48 3.478 3.478 0 0 0 3.48-3.48 3.478 3.478 0 0 0-3.48-3.48 3.478 3.478 0 0 0-3.48 3.48Zm-11.927 0a3.478 3.478 0 0 0 3.48 3.48 3.478 3.478 0 0 0 3.48-3.48 3.478 3.478 0 0 0-3.48-3.48 3.478 3.478 0 0 0-3.48 3.48Z"/>
  <path fill="#3636D6" d="M128.383 22.162c0 3.48-.651 5.614-2.178 7.234-1.625 1.718-4.082 2.599-7.004 2.599-2.922 0-5.521-.93-7.146-2.692-1.625-1.718-2.041-3.48-2.041-8.164v-10.2c0-4.038.465-5.937 1.855-7.606 1.532-1.855 4.082-2.878 7.239-2.878 2.829 0 5.149.788 6.867 2.32 1.762 1.625 2.412 3.48 2.412 7.097v12.295l-.004-.005Zm-14.914-.597c0 3.705.147 4.375 1.204 5.58 1.008 1.155 2.741 1.874 4.572 1.874 1.972 0 3.798-.817 4.713-2.114.719-1.057 1.008-2.403 1.008-4.763V9.877c0-2.501-.435-3.754-1.634-4.904-1.058-.965-2.502-1.493-4.087-1.493-2.071 0-3.847.817-4.763 2.31-.817 1.155-1.008 2.261-1.008 5.051V21.57l-.005-.005Z"/>
</svg>
