<svg xmlns="http://www.w3.org/2000/svg" viewBox="0 0 1443.973 220.72">
  <defs>
    <clipPath id="a" clipPathUnits="userSpaceOnUse">
      <path d="M0 0h10830v1655H0Z"/>
    </clipPath>
    <clipPath id="b" clipPathUnits="userSpaceOnUse"/>
    <clipPath id="d" clipPathUnits="userSpaceOnUse"/>
    <clipPath id="f" clipPathUnits="userSpaceOnUse"/>
    <clipPath id="h" clipPathUnits="userSpaceOnUse"/>
    <clipPath id="j" clipPathUnits="userSpaceOnUse"/>
    <clipPath id="l" clipPathUnits="userSpaceOnUse"/>
    <clipPath id="n" clipPathUnits="userSpaceOnUse"/>
    <clipPath id="p" clipPathUnits="userSpaceOnUse"/>
    <clipPath id="r" clipPathUnits="userSpaceOnUse"/>
    <clipPath id="t" clipPathUnits="userSpaceOnUse"/>
    <clipPath id="v" clipPathUnits="userSpaceOnUse"/>
    <clipPath id="x" clipPathUnits="userSpaceOnUse"/>
    <clipPath id="z" clipPathUnits="userSpaceOnUse"/>
    <clipPath id="B" clipPathUnits="userSpaceOnUse"/>
    <clipPath id="D" clipPathUnits="userSpaceOnUse"/>
    <clipPath id="F" clipPathUnits="userSpaceOnUse">
      <path d="M0 0h10830v1655H0Z"/>
    </clipPath>
    <clipPath id="G" clipPathUnits="userSpaceOnUse">
      <path d="M1863.54 489.379h-10.9l-24.7-1.109-5.8 24.011c-42.79 177.828-200.33 304.285-383.2 307.594h-8.5c-125.59.426-244.08-58.152-320-158.203l-12.3-16.301-19.2 4.91c-140.768 36.547-288.647-25.152-361.702-150.902l-10.504-18.109-20.695 4.101c-129.316 23.258-252.992-62.73-276.246-192.043a237.955 237.955 0 0 1-3.754-41.957 210.91 210.91 0 0 1 70-157.902c42.899-40 104.399-68.399 173.301-80A813.568 813.568 0 0 1 807.641.07c62.351-.351 124.64 4.16 186.297 13.508 66.902 9.203 136.802 21.3 191.202 60l16.3 11.492 16.9-10.5c136.16-84.601 309.51-80.48 441.5 10.5l20 14 17.7-17.3c93.88-91.899 244.51-90.301 336.42 3.582 91.91 93.886 90.31 244.519-3.58 336.418a237.827 237.827 0 0 1-166.44 67.902z"/>
    </clipPath>
    <linearGradient id="c" x1="0" x2="1" y1="0" y2="0" gradientTransform="rotate(85.77 -263.153 1269.33) scale(215.5)" gradientUnits="userSpaceOnUse" spreadMethod="pad">
      <stop offset="0" stop-color="#59a4df"/>
      <stop offset="1" stop-color="#64ccd3"/>
    </linearGradient>
    <linearGradient id="e" x1="0" x2="1" y1="0" y2="0" gradientTransform="rotate(85.77 -262.962 1269.514) scale(215.5)" gradientUnits="userSpaceOnUse" spreadMethod="pad">
      <stop offset="0" stop-color="#59a4df"/>
      <stop offset="1" stop-color="#64ccd3"/>
    </linearGradient>
    <linearGradient id="g" x1="0" x2="1" y1="0" y2="0" gradientTransform="rotate(85.77 -17.694 1267.28) scale(201.6)" gradientUnits="userSpaceOnUse" spreadMethod="pad">
      <stop offset="0" stop-color="#59a4df"/>
      <stop offset="1" stop-color="#64ccd3"/>
    </linearGradient>
    <linearGradient id="i" x1="0" x2="1" y1="0" y2="0" gradientTransform="rotate(85.77 -271.912 1031.168) scale(201.6)" gradientUnits="userSpaceOnUse" spreadMethod="pad">
      <stop offset="0" stop-color="#59a4df"/>
      <stop offset="1" stop-color="#64ccd3"/>
    </linearGradient>
    <linearGradient id="k" x1="0" x2="1" y1="0" y2="0" gradientTransform="rotate(85.77 -143.7 1150.254) scale(201.6)" gradientUnits="userSpaceOnUse" spreadMethod="pad">
      <stop offset="0" stop-color="#59a4df"/>
      <stop offset="1" stop-color="#64ccd3"/>
    </linearGradient>
    <linearGradient id="m" x1="0" x2="1" y1="0" y2="0" gradientTransform="rotate(85.77 -262.523 1039.894) scale(201.6)" gradientUnits="userSpaceOnUse" spreadMethod="pad">
      <stop offset="0" stop-color="#59a4df"/>
      <stop offset="1" stop-color="#64ccd3"/>
    </linearGradient>
    <linearGradient id="o" x1="0" x2="1" y1="0" y2="0" gradientTransform="rotate(85.77 -26.942 1258.693) scale(201.6)" gradientUnits="userSpaceOnUse" spreadMethod="pad">
      <stop offset="0" stop-color="#59a4df"/>
      <stop offset="1" stop-color="#64ccd3"/>
    </linearGradient>
    <linearGradient id="q" x1="0" x2="1" y1="0" y2="0" gradientTransform="rotate(85.77 -60.142 1227.86) scale(201.6)" gradientUnits="userSpaceOnUse" spreadMethod="pad">
      <stop offset="0" stop-color="#59a4df"/>
      <stop offset="1" stop-color="#64ccd3"/>
    </linearGradient>
    <linearGradient id="s" x1="0" x2="1" y1="0" y2="0" gradientTransform="rotate(85.77 -229.79 1070.292) scale(201.6)" gradientUnits="userSpaceOnUse" spreadMethod="pad">
      <stop offset="0" stop-color="#59a4df"/>
      <stop offset="1" stop-color="#64ccd3"/>
    </linearGradient>
    <linearGradient id="u" x1="0" x2="1" y1="0" y2="0" gradientTransform="rotate(85.77 -148.636 1145.663) scale(201.6)" gradientUnits="userSpaceOnUse" spreadMethod="pad">
      <stop offset="0" stop-color="#59a4df"/>
      <stop offset="1" stop-color="#64ccd3"/>
    </linearGradient>
    <linearGradient id="w" x1="0" x2="1" y1="0" y2="0" gradientTransform="rotate(85.77 -148.636 1145.663) scale(201.6)" gradientUnits="userSpaceOnUse" spreadMethod="pad">
      <stop offset="0" stop-color="#4792d6"/>
      <stop offset="1" stop-color="#4dc3c6"/>
    </linearGradient>
    <linearGradient id="y" x1="0" x2="1" y1="0" y2="0" gradientTransform="rotate(85.77 -200.577 1097.426) scale(201.6)" gradientUnits="userSpaceOnUse" spreadMethod="pad">
      <stop offset="0" stop-color="#59a4df"/>
      <stop offset="1" stop-color="#64ccd3"/>
    </linearGradient>
    <linearGradient id="A" x1="0" x2="1" y1="0" y2="0" gradientTransform="rotate(85.77 -200.577 1097.426) scale(201.6)" gradientUnits="userSpaceOnUse" spreadMethod="pad">
      <stop offset="0" stop-color="#4792d6"/>
      <stop offset="1" stop-color="#4dc3c6"/>
    </linearGradient>
    <linearGradient id="C" x1="0" x2="1" y1="0" y2="0" gradientTransform="rotate(85.77 -96.689 1193.918) scale(201.6)" gradientUnits="userSpaceOnUse" spreadMethod="pad">
      <stop offset="0" stop-color="#59a4df"/>
      <stop offset="1" stop-color="#64ccd3"/>
    </linearGradient>
    <linearGradient id="E" x1="0" x2="1" y1="0" y2="0" gradientTransform="rotate(85.77 -96.689 1193.918) scale(201.6)" gradientUnits="userSpaceOnUse" spreadMethod="pad">
      <stop offset="0" stop-color="#4792d6"/>
      <stop offset="1" stop-color="#4dc3c6"/>
    </linearGradient>
    <linearGradient id="H" x1="0" x2="1" y1="0" y2="0" gradientTransform="translate(406.035 409.94) scale(1695.82)" gradientUnits="userSpaceOnUse" spreadMethod="pad">
      <stop offset="0" stop-color="#59a4df"/>
      <stop offset="1" stop-color="#64ccd3"/>
    </linearGradient>
  </defs>
  <path fill="#fff" d="M382.112 107.604h79.653a1.186 1.186 0 0 1 1.174 1.053c.494 4.142.748 8.309.76 12.48 0 22.498-7.25 41.022-21.747 55.574-14.497 14.55-32.907 21.84-55.227 21.865-22.498 0-41.466-7.47-56.906-22.412-15.44-14.942-23.174-33.361-23.2-55.254 0-21.75 7.657-40.129 22.973-55.133 15.315-15.005 34.137-22.512 56.467-22.52 17.013 0 32.101 3.884 45.266 11.654a60.813 60.813 0 0 1 26.84 31.758 1.188 1.188 0 0 1-.709 1.523l-.077.025-33.147 9.6a1.2 1.2 0 0 1-1.333-.587c-7.307-13.635-19.583-20.453-36.827-20.453a40.523 40.523 0 0 0-30.4 12.64c-8.133 8.435-12.2 18.937-12.2 31.507 0 12.568 4.177 23.11 12.533 31.627a41.934 41.934 0 0 0 31.147 12.786c9.61 0 17.857-2.37 24.747-7.107a37.743 37.743 0 0 0 14.52-19.56h-44.307a1.187 1.187 0 0 1-1.173-1.173v-28.72c0-.649.525-1.173 1.173-1.173M551.112 82.31a34.577 34.577 0 0 1 7.04.667c.552.128.933.634.907 1.2l-1.454 33.4a1.172 1.172 0 0 1-1.173 1.119h-5.333c-25.591 0-38.387 13.903-38.387 41.707v33.666a1.16 1.16 0 0 1-1.147 1.174h-33.16a1.173 1.173 0 0 1-1.173-1.174V85.031a1.186 1.186 0 0 1 1.173-1.174h33.16c.643.007 1.16.531 1.16 1.174v20.133C521.9 89.919 534.693 82.3 551.112 82.31M685.565 85.03v109.04a1.16 1.16 0 0 1-1.146 1.173h-33.174a1.159 1.159 0 0 1-1.173-1.146v-9.506c-8.89 9.324-20.28 13.985-34.173 13.985-13.014 0-23.48-4.252-31.4-12.759-7.92-8.506-11.876-19.71-11.867-33.613V85.03c0-.648.525-1.174 1.173-1.174h32.92c.648 0 1.174.526 1.174 1.174v59.626c0 6.507 1.777 11.796 5.333 15.866a17.332 17.332 0 0 0 13.76 6.148c7.253 0 12.91-2.551 16.973-7.655 4.062-5.101 6.098-12.901 6.107-23.399V85.031c0-.648.525-1.174 1.173-1.174h33.147c.648 0 1.173.526 1.173 1.174M773.392 80.536c13.013 0 23.475 4.253 31.387 12.761 7.91 8.507 11.87 19.71 11.88 33.613v67.16c0 .648-.527 1.173-1.174 1.173h-32.893a1.161 1.161 0 0 1-1.175-1.146v-59.653c0-6.498-1.777-11.783-5.333-15.853a17.442 17.442 0 0 0-13.759-6.107c-7.253 0-12.912 2.55-16.974 7.652-4.06 5.103-6.098 12.908-6.107 23.415v50.518a1.158 1.158 0 0 1-1.145 1.174h-33.174c-.641 0-1.16-.518-1.16-1.16V85.03c0-.643.518-1.167 1.16-1.174H738.1c.641.007 1.16.531 1.16 1.174v9.48c8.878-9.316 20.258-13.975 34.133-13.975M911.392 163.777l7.533 25.667a1.16 1.16 0 0 1-.574 1.333 63.52 63.52 0 0 1-29.546 7.774c-14.053 0-24.96-3.774-32.72-11.32-7.76-7.548-11.644-18.564-11.653-33.054v-42.174h-19.04a1.16 1.16 0 0 1-1.16-1.16V85.016c0-.64.519-1.159 1.16-1.159h19.025V52.191c0-.642.52-1.16 1.16-1.16h33.148c.64 0 1.16.518 1.16 1.16v31.666h31.68c.64 0 1.16.519 1.16 1.159v25.868c0 .64-.52 1.16-1.16 1.16h-31.64v38.667c0 10.8 4.956 16.199 14.867 16.199a31.972 31.972 0 0 0 14.947-3.746 1.146 1.146 0 0 1 1.565.421l.088.192M1094.219 85.336l-34.975 109.335a1.17 1.17 0 0 1-1.107.798h-29.158a1.17 1.17 0 0 1-1.107-.786l-19.707-59.56-19.921 59.548c-.16.472-.607.79-1.107.785h-29.145a1.145 1.145 0 0 1-1.107-.799L921.9 85.336a1.158 1.158 0 0 1 1.106-1.519h32.387c.51.002.959.338 1.107.827l17.946 59.08 20.799-59.12c.168-.47.61-.783 1.107-.787h23.428a1.16 1.16 0 0 1 1.093.787l20.8 59.4 17.947-59.307c.15-.486.597-.82 1.106-.828h32.387c.64.008 1.155.532 1.148 1.172l-.041.295M1154.605 168.39a25.62 25.62 0 0 0 18.866-8.094c5.333-5.396 8-12.31 8-20.745 0-8.437-2.692-15.352-8.079-20.748a25.74 25.74 0 0 0-18.787-8.133 26.669 26.669 0 0 0-19.308 8.094c-5.465 5.403-8.198 12.32-8.198 20.747 0 8.426 2.697 15.34 8.092 20.746a26.477 26.477 0 0 0 19.414 8.134zm0-87.413c17.014 0 31.435 5.471 43.267 16.413 11.83 10.943 17.747 24.996 17.747 42.16 0 17.306-5.916 31.435-17.747 42.387-11.832 10.951-26.253 16.422-43.267 16.412-17.308 0-31.912-5.47-43.813-16.412-11.903-10.942-17.859-25.072-17.867-42.386 0-17.148 5.955-31.201 17.867-42.16 11.91-10.962 26.515-16.432 43.813-16.414M1301.925 82.31a34.641 34.641 0 0 1 7.039.667c.553.128.936.634.908 1.2l-1.467 33.4a1.16 1.16 0 0 1-1.161 1.119h-5.333c-25.582 0-38.378 13.903-38.387 41.707v33.666c0 .65-.524 1.174-1.173 1.174h-33.132a1.173 1.173 0 0 1-1.174-1.174V85.031c0-.648.526-1.174 1.174-1.174h33.146c.648 0 1.174.526 1.174 1.174v20.133c9.173-15.245 21.969-22.863 38.386-22.853M1442.8 195.243h-42.293a1.208 1.208 0 0 1-.867-.387l-35.813-39.773h-6.44v38.986a1.156 1.156 0 0 1-1.147 1.174h-33.168a1.16 1.16 0 0 1-1.173-1.146V36.657c0-.641.518-1.16 1.16-1.16h33.168c.64 0 1.16.519 1.16 1.16v85.146h4.88l34.933-37.574c.227-.23.533-.365.853-.372h39.654a1.17 1.17 0 0 1 1.16 1.19c0 .285-.107.558-.307.77l-47 51.067 52.107 56.4a1.169 1.169 0 0 1-.867 1.959M106.379 92.724a2.52 2.52 0 0 1 3.506-.6c16.08 11.493 37.587 11.865 54.054.933l1.493-.987a2.523 2.523 0 0 1 2.773 4.214l-1.48 1.053c-18.201 12.086-41.977 11.673-59.747-1.04a2.507 2.507 0 0 1-.664-3.482zm5.453-23.601a4.374 4.374 0 1 1-4.374 4.374 4.373 4.373 0 0 1 4.374-4.346zm49.427 0a4.374 4.374 0 1 1-4.374 4.374 4.373 4.373 0 0 1 4.374-4.346zM90.51 151.789c.56.082 1.12.162 1.667.268 10.167-17.51 30.372-26.583 50.214-22.547.827.173 1.653.346 2.467.56a58.318 58.318 0 0 1 10.426-10.48 57.501 57.501 0 0 1 35.44-12.173c1.608 0 3.21.067 4.8.2l-.546-.64s14.093.494 39.613-12.96l-3.867-1.16s17.054-11.454 24.907-17.013l-3.84-1.175s21.787-7.372 20.573-20.612c-1.213-13.24-16.12-19.133-24.306-12.494a48.875 48.875 0 0 0-12.374 16.388l-2.56-3.907a91.032 91.032 0 0 1-23.013 21.079l.92-3.652a52.831 52.831 0 0 1-21.227 7.306 63.02 63.02 0 0 0-3.853-13.333c-4.307-10.267-13.893-20.227-13.893-20.227h3.706a42.184 42.184 0 0 0-5.946-4.92 5.985 5.985 0 0 1-1.654 3.587l-7.133 7.44a28.004 28.004 0 0 1-22.267 8.533l-9.467-.706a28.007 28.007 0 0 1-20.76-11.707l-5.146-7.253a42.394 42.394 0 0 0-6.094 5.026h3.707s-9.574 9.96-13.893 20.119a56 56 0 0 0-4.08 13.441 52.693 52.693 0 0 1-21.64-7.306l.933 3.652a90.93 90.93 0 0 1-23.014-21.079l-2.56 3.907A48.673 48.673 0 0 0 24.38 41.563c-8.16-6.639-22.987-.719-24.32 12.506-1.334 13.228 20.626 20.6 20.626 20.6l-3.867 1.162c7.867 5.56 24.907 17.012 24.907 17.012l-3.854 1.16c25.52 13.468 39.614 12.974 39.614 12.974l-2.414 2.813a52 52 0 0 0 6.227.827c-1.787 7.333-2.893 26.172-2.453 41.534a35.484 35.484 0 0 1 11.666-.362"/>
  <path fill="#232a36" d="M111.832 69.15a4.373 4.373 0 1 0 0 8.747 4.373 4.373 0 0 0 0-8.746M161.259 69.15a4.373 4.373 0 1 1 0 8.747 4.373 4.373 0 0 1 0-8.746M168.925 92.79a2.534 2.534 0 0 0-3.493-.72l-1.493.987c-16.467 10.932-37.974 10.56-54.054-.934a2.52 2.52 0 0 0-3.506.6 2.507 2.507 0 0 0 .574 3.499l.012.008c17.759 12.739 41.542 13.18 59.76 1.107l1.494-.987a2.532 2.532 0 0 0 .742-3.505l-.036-.055"/>
  <path fill="#59a4df" d="m148.165 31.203 1.014.214a66.824 66.824 0 0 1 15.44 5.72l2.413-1.801c-1.747-19.667-12.653-27.333-20.587-30.372l-1.64 22.093a14.268 14.268 0 0 1 3.36 4.146M110.565 36.07a58.196 58.196 0 0 1 4-1.734c3.387-9.8-.2-15.012-.2-15.012s3.587 5.212.2 15.012a70.393 70.393 0 0 1 8.214-2.667 14.34 14.34 0 0 1 5.333-5.906l1.64-22.132c-8.454 1.705-20.2 7.64-24.88 27.038l2.666 2.667a43.27 43.27 0 0 0 3.027 2.733"/>
  <path fill="#59a4df" d="M149.819 38.964c0 .492-.107.987-.187 1.465-.08.482 0 .868 0 1.334-.079.957-.25 1.904-.508 2.826a41.912 41.912 0 0 0 14.935-7.065l.52-.387a66.824 66.824 0 0 0-15.44-5.72l-1.014-.214a14.291 14.291 0 0 1 1.694 7.761M121.298 42.497c-.12-.95-.146-1.91-.08-2.866 0-.44.094-.868.174-1.334.08-.466 0-.973 0-1.48.12-1.788.572-3.538 1.333-5.16a69.917 69.917 0 0 0-8.214 2.667 34.516 34.516 0 0 1-1.506 3.667 41.239 41.239 0 0 0 8.293 4.506"/>
  <path fill="#59a4df" d="M114.605 34.336a58.196 58.196 0 0 0-4 1.733 37.913 37.913 0 0 0 2.534 1.934 34.364 34.364 0 0 0 1.466-3.667"/>
  <g clip-path="url(#a)" transform="matrix(.133 0 0 -.133 0 220.72)">
    <g clip-path="url(#b)">
      <path fill="url(#c)" d="M1096 1618v1h-3v1h-3v1h-4v1h-3v1h-3v1h-4v1h-3v1h-5v1h-4v1h-5v1h-4v1h-9v1h-10v1h-31v-1h-11v-1h-8v-1h-7v-1h-6v4h1v4h1v2h1v3h1v1h1v2h1v1h1v1h1v1h1v1h1v1h1v1h1v1h2v1h1v1h3v1h2v1h30v-1h13v-1h14v-1h13v-1h11v-1h5v-1h2v-1h2v-1h2v-1h1v-1h2v-1h1v-1h1v-1h1v-1h1v-1h1v-2h1v-1h1v-2h1v-2h1v-3h1v-6h1v-6"/>
    </g>
  </g>
  <path fill="#59a4df" d="M136.672 23.71a14.202 14.202 0 0 1 8.133 3.347l1.64-22.093a31.448 31.448 0 0 0-6.306-1.653s-.894-.12-1.867-.174c-.973-.053-1.853-.106-1.853-.106a31.75 31.75 0 0 0-6.548.613l-1.64 22.133a14.193 14.193 0 0 1 8.441-2.066"/>
  <g clip-path="url(#d)" transform="matrix(.133 0 0 -.133 0 220.72)">
    <path fill="url(#e)" d="M1025.04 1477.57c22.47-1.7 43.84-10.49 61-25.1l12.3 165.7a235.86 235.86 0 0 1-47.3 12.4s-6.7.9-14 1.3-13.9.8-13.9.8a238.12 238.12 0 0 1-49.105-4.6l-12.301-166a106.446 106.446 0 0 0 63.306 15.5"/>
  </g>
  <g clip-path="url(#f)" transform="matrix(.133 0 0 -.133 0 220.72)">
    <path fill="url(#g)" d="M1246.34 1370.47c9.3-5.3 18.5-11.1 27.4-17.3v1.51l1.1 15.7c.91 11.44-7.63 21.47-19.08 22.39l-.12.01-3.2-2.4c0-3.11.6-6.11.8-9.31a69.049 69.049 0 0 0-6.9-10.6"/>
  </g>
  <g clip-path="url(#h)" transform="matrix(.133 0 0 -.133 0 220.72)">
    <path fill="url(#i)" d="M784.234 1415.38c.707 3.3 1.5 6.49 2.301 10l-1.996 2c-11.48.85-21.5-7.73-22.402-19.21l-1.098-15.7a46.277 46.277 0 0 1 8.301-30l6.195-8.7a376.757 376.757 0 0 0 40 24.11 153.161 153.161 0 0 0-31.301 37.5"/>
  </g>
  <path fill="#fff" d="m129.312 59.15 9.467.707a28.004 28.004 0 0 0 22.266-8.533l7.134-7.44a5.985 5.985 0 0 0 1.653-3.587 47.911 47.911 0 0 0-3.653-2.306c-1.867 2.345-6.84 6.946-17.814 8.573-3.246 7.147-11.672 10.308-18.82 7.063a14.215 14.215 0 0 1-7.847-9.251 35.9 35.9 0 0 1-12.933-7.399 50.183 50.183 0 0 0-5.334 3.214l5.148 7.253a28.004 28.004 0 0 0 20.733 11.707"/>
  <g clip-path="url(#j)" transform="matrix(.133 0 0 -.133 0 220.72)">
    <path fill="url(#k)" d="M1056.35 1205.9c-5.15 0-10.33.19-15.51.57l-71 5.3a210.033 210.033 0 0 0-155.5 87.8l-38.606 54.4a377.238 377.238 0 0 0 39.938 24.07 269.041 269.041 0 0 1 96.969-55.46c12.793-47.58 55.843-78.95 102.869-78.95.33 0 .66 0 .99.01h.31c40.09.45 78.25 23.62 95.93 62.53 82.3 12.2 119.6 46.71 133.6 64.3 9.3-5.3 18.5-11.1 27.4-17.3a44.889 44.889 0 0 0-12.4-26.9l-53.5-55.8a210.032 210.032 0 0 0-151.49-64.57"/>
  </g>
  <path fill="#59a4df" d="m108.752 36.977 1.813-.908c-1.04-.888-2.04-1.777-3-2.666l-2.667-2.667c-.106.441-.213.868-.306 1.333a20.445 20.445 0 0 0 4.16 4.908"/>
  <g clip-path="url(#l)" transform="matrix(.133 0 0 -.133 0 220.72)">
    <path fill="url(#m)" d="m815.637 1378.07 13.597 6.81a753.73 753.73 0 0 0-22.5 20l-20 20c-.796-3.31-1.593-6.51-2.296-10a153.338 153.338 0 0 1 31.199-36.81"/>
  </g>
  <path fill="#59a4df" d="M166.179 37.99c.364-.44.685-.913.96-1.413 0-.426 0-.826-.107-1.241l-2.413 1.801c.52.266 1.04.56 1.56.854"/>
  <g clip-path="url(#n)" transform="matrix(.133 0 0 -.133 0 220.72)">
    <path fill="url(#o)" d="M1246.34 1370.47c2.73 3.3 5.14 6.85 7.2 10.6 0 3.2 0 6.2-.8 9.31l-18.1-13.51c3.9-1.99 7.8-4.2 11.7-6.4"/>
  </g>
  <path fill="#59a4df" d="M164.059 37.524a41.887 41.887 0 0 1-14.987 7.039 14.269 14.269 0 0 1-.747 2.001c10.974-1.627 16-6.228 17.814-8.573-.52-.294-1.042-.588-1.56-.854l-.52.387"/>
  <g clip-path="url(#p)" transform="matrix(.133 0 0 -.133 0 220.72)">
    <path fill="url(#q)" d="M1112.54 1306.19c2.23 4.83 4.1 9.83 5.58 14.93l.22.06c0 .02.01.05.02.07a314.229 314.229 0 0 1 112.08 52.72l3.9 2.9c3.89-1.99 7.8-4.2 11.7-6.4-13.59-17.59-51.27-52.07-133.5-64.28"/>
  </g>
  <path fill="#59a4df" d="m113.098 38.004-.093.199.093-.199a38.556 38.556 0 0 1-2.533-1.935l-1.813.908a35.886 35.886 0 0 0 12.933 7.399 12.712 12.712 0 0 1-.387-1.879 41.254 41.254 0 0 1-8.2-4.493"/>
  <g clip-path="url(#r)" transform="matrix(.133 0 0 -.133 0 220.72)">
    <path fill="url(#s)" d="M912.641 1322.58a269.041 269.041 0 0 0-96.969 55.46l-.035.03 13.601 6.81c6.2-5.11 12.496-10 18.996-14.51a309.406 309.406 0 0 1 61.504-33.7 95.337 95.337 0 0 1 2.903-14.09"/>
  </g>
  <path fill="#59a4df" d="M121.218 39.63c-.066.957-.04 1.917.08 2.867l1 .399c-.554-1.459-.86-3-.906-4.559-.08.426-.134.854-.174 1.294"/>
  <path fill="#4792d6" d="m122.298 42.896-1-.399a14.73 14.73 0 0 1-.08-2.866c.04-.44.094-.868.174-1.294.046 1.559.352 3.1.906 4.559"/>
  <path fill="#59a4df" d="M149.632 40.43a14.026 14.026 0 0 1-1.573 4.387l1.053-.254c.259-.923.427-1.87.507-2.827.026-.4.026-.879.013-1.307"/>
  <path fill="#4792d6" d="M148.059 44.817a14.026 14.026 0 0 0 1.573-4.388 17.745 17.745 0 0 1-.004 1.139l-.01.168a15.14 15.14 0 0 1-.506 2.827l-.03.008.003-.008-1.026.254"/>
  <path fill="#fff" d="M134.565 52.11a14.215 14.215 0 0 1-11.36-7.253c-.52-.148-1.027-.321-1.52-.481 2.039 7.581 9.836 12.075 17.416 10.035a14.214 14.214 0 0 0 9.251-7.847l-1.615.213a14.226 14.226 0 0 1-12.172 5.334"/>
  <g clip-path="url(#t)" transform="matrix(.133 0 0 -.133 0 220.72)">
    <path fill="url(#u)" d="M1017.03 1264.29c-2.59 0-5.19.09-7.79.28a106.612 106.612 0 0 1 0 0c2.6-.19 5.2-.28 7.79-.28 32.38 0 63.18 14.73 83.5 40.28l12.11 1.6-12.11-1.6a106.702 106.702 0 0 0-83.5-40.28"/>
  </g>
  <g clip-path="url(#v)" transform="matrix(.133 0 0 -.133 0 220.72)">
    <path fill="url(#w)" d="M1015.51 1243.63c-47.026 0-90.076 31.37-102.869 78.95 3.695-1.2 7.496-2.5 11.394-3.61a106.612 106.612 0 0 1 85.205-54.4c2.6-.19 5.2-.28 7.79-.28 32.38 0 63.18 14.73 83.5 40.28l12.11 1.6a106.605 106.605 0 0 0-69.38-58.85c-8.83-2.38-17.7-3.57-26.45-3.68h-.02c-.43 0-.85-.01-1.28-.01"/>
  </g>
  <path fill="#59a4df" d="m122.298 42.896-1-.399c.082.635.21 1.263.387 1.879.493.16 1 .333 1.52.481a13.101 13.101 0 0 1-.907-1.961"/>
  <g clip-path="url(#x)" transform="matrix(.133 0 0 -.133 0 220.72)">
    <path fill="url(#y)" d="M924.035 1318.97a98.258 98.258 0 0 0-6.797 14.71l-7.5 2.99 7.5-2.99c1.856-5.08 4.129-10 6.797-14.71"/>
  </g>
  <g clip-path="url(#z)" transform="matrix(.133 0 0 -.133 0 220.72)">
    <path fill="url(#A)" d="M924.035 1318.97c-3.898 1.11-7.699 2.41-11.394 3.61a95.337 95.337 0 0 0-2.903 14.09l7.5-2.99c1.856-5.08 4.129-10 6.797-14.71"/>
  </g>
  <path fill="#59a4df" d="M148.059 44.817c-.388.69-.835 1.346-1.334 1.96l1.614-.213c.297-.648.548-1.316.746-2.001l-1.026.254"/>
  <g clip-path="url(#B)" transform="matrix(.133 0 0 -.133 0 220.72)">
    <path fill="url(#C)" d="M1100.44 1304.57c3.74 4.61 7.09 9.53 10 14.7l7.7 1.91-7.7-1.91a105.42 105.42 0 0 0-10-14.7"/>
  </g>
  <g clip-path="url(#D)" transform="matrix(.133 0 0 -.133 0 220.72)">
    <path fill="url(#E)" d="M1100.44 1304.57c3.74 4.61 7.09 9.53 10 14.7l7.7 1.91a108.28 108.28 0 0 0-5.6-15.01l-12.1-1.6"/>
  </g>
  <path fill="#fff" d="M131.405 30.177a7.639 7.639 0 0 1 7.174-.2c3.225.122 6.433.534 9.586 1.226a14.268 14.268 0 0 0-3.36-4.146l-.186 2.56-16.64-1.226.2-2.602a14.342 14.342 0 0 0-5.334 5.908l1.094-.28c2.457-.585 4.952-1 7.466-1.24"/>
  <path fill="#fff" d="M121.392 38.336c0-.172 0-.359.093-.547.093 1.848.546 3.66 1.333 5.334a41.414 41.414 0 0 0 9.92 2.213l2.334.255 2.347.092a41.44 41.44 0 0 0 10.053-.799 14.34 14.34 0 0 0 2.147-5.067v.56c.08-.481.146-.974.186-1.466a14.284 14.284 0 0 0-1.653-7.76 54.116 54.116 0 0 0-9.587-1.227 7.386 7.386 0 0 1 2.014 1.412l-10.814 10.815a7.642 7.642 0 0 1-.009-10.806l.009-.009a7.937 7.937 0 0 1 1.627-1.213 55.021 55.021 0 0 0-7.494 1.241l-1.093.28a14.415 14.415 0 0 0-1.333 5.16c-.08.532-.08 1.053-.08 1.532M144.619 29.617l.186-2.56a14.148 14.148 0 0 0-16.627-1.268l-.2 2.602 16.64 1.226M135.312 47.016h-.933a56.085 56.085 0 0 1-10.32-1.932c4.449 6.45 13.284 8.07 19.733 3.62a14.113 14.113 0 0 0 2.16-1.835 66.397 66.397 0 0 1-10.64.147"/>
  <path fill="#fff" d="M134.379 46.95h.933c3.527.231 7.067.183 10.587-.146a13.042 13.042 0 0 0 1.573-1.935 41.44 41.44 0 0 1-10.053.8l-2.347-.092-2.334-.241a41.363 41.363 0 0 1-9.88-2.292c.341.712.744 1.395 1.2 2.04a56.253 56.253 0 0 0 10.32 1.867M121.485 37.79c0 .187 0 .374-.093.546.046 1.56.353 3.101.906 4.56l.56.2a14.178 14.178 0 0 1-1.373-5.307M149.619 39.87a14.336 14.336 0 0 1-2.147 5.067l.587-.12a14.026 14.026 0 0 0 1.573-4.388c0-.185-.013-.426-.013-.56"/>
  <path fill="#fff" d="M134.645 51.177a14.124 14.124 0 0 1-10.667-6.093l-.8-.227c3.82 6.856 12.478 9.318 19.335 5.496a14.217 14.217 0 0 0 4.212-3.576l-.853.092a14.108 14.108 0 0 1-11.227 4.308"/>
  <path fill="#fff" d="m145.899 46.87.853-.093c.499-.614.945-1.27 1.333-1.96l-.586.12a12.91 12.91 0 0 1-1.6 1.932M122.858 43.096l-.56-.2c.248.677.551 1.333.907 1.961l.8.227c-.436-.63-.82-1.295-1.147-1.988"/>
  <path fill="#c6c5c3" d="M131.405 30.177a53.47 53.47 0 0 1 7.174-.2 7.639 7.639 0 0 0-7.174.2M131.405 30.177a7.76 7.76 0 0 0-1.626 1.214 7.639 7.639 0 0 0-.01 10.804l.01.008 10.813-10.812a7.342 7.342 0 0 0-2.013-1.414 53.47 53.47 0 0 0-7.174.2"/>
  <g clip-path="url(#F)" transform="matrix(.133 0 0 -.133 0 220.72)">
    <g clip-path="url(#G)">
      <path fill="url(#H)" d="M759 0v1h-16v1h-16v1h-9v1h-10v1h-9v1h-9v1h-7v1h-7v1h-6v1h-7v1h-6v1h-6v1h-5v1h-6v1h-4v1h-5v1h-5v1h-4v1h-4v1h-4v1h-3v1h-4v1h-4v1h-3v1h-4v1h-2v1h-3v1h-3v1h-3v1h-3v1h-3v1h-3v1h-3v1h-2v1h-2v1h-3v1h-2v1h-2v1h-3v1h-2v1h-3v1h-2v1h-2v1h-2v1h-2v1h-2v1h-2v1h-2v1h-2v1h-2v1h-2v1h-2v1h-2v1h-1v1h-2v1h-2v1h-1v1h-2v1h-1v1h-2v1h-2v1h-1v1h-2v1h-2v1h-1v1h-2v1h-1v1h-2v1h-1v1h-1v1h-2v1h-1v1h-2v1h-1v1h-1v1h-2v1h-1v1h-1v1h-2v1h-1v1h-1v1h-1v1h-2v1h-1v1h-1v1h-1v1h-1v1h-2v1h-1v1h-1v1h-1v1h-1v1h-1v1h-1v1h-1v1h-1v1h-1v1h-1v1h-1v1h-1v1h-1v1h-1v1h-1v1h-1v1h-1v1h-1v1h-1v1h-1v1h-1v1h-1v2h-1v1h-1v1h-1v1h-1v1h-1v2h-1v1h-1v1h-1v1h-1v2h-1v1h-1v1h-1v1h-1v2h-1v1h-1v2h-1v2h-1v1h-1v2h-1v1h-1v2h-1v1h-1v2h-1v1h-1v2h-1v2h-1v2h-1v2h-1v2h-1v2h-1v2h-1v2h-1v2h-1v2h-1v2h-1v2h-1v3h-1v3h-1v2h-1v3h-1v2h-1v3h-1v3h-1v4h-1v4h-1v3h-1v4h-1v4h-1v5h-1v6h-1v7h-1v7h-1v43h1v8h1v8h1v6h1v5h1v4h1v4h1v4h1v4h1v4h1v3h1v2h1v3h1v3h1v3h1v3h1v3h1v2h1v2h1v3h1v2h1v2h1v2h1v2h1v3h1v2h1v2h1v2h1v1h1v2h1v2h1v1h1v2h1v2h1v2h1v1h1v2h1v2h1v1h1v2h1v1h1v1h1v2h1v1h1v2h1v1h1v1h1v2h1v1h1v1h1v2h1v1h1v1h1v1h1v2h1v1h1v1h1v1h1v1h1v1h1v1h1v2h1v1h1v1h1v1h1v1h1v1h1v1h1v1h1v1h1v1h1v1h1v1h1v1h1v1h1v1h1v1h1v1h2v1h1v1h1v1h1v1h1v1h1v1h1v1h2v1h1v1h1v1h2v1h1v1h1v1h1v1h2v1h1v1h1v1h2v1h1v1h1v1h2v1h2v1h1v1h2v1h1v1h2v1h2v1h1v1h2v1h1v1h2v1h2v1h2v1h2v1h2v1h2v1h2v1h2v1h2v1h2v1h2v1h2v1h2v1h3v1h2v1h3v1h3v1h2v1h3v1h2v1h4v1h3v1h4v1h4v1h3v1h4v1h5v1h5v1h6v1h6v1h11v1h13v1h6v-1h25v-1h9v-1h7v-1h5v-1h5v-1h5v-1h6v-1h3v2h1v2h1v1h1v2h1v2h1v2h1v1h1v2h1v2h1v1h1v2h1v2h1v2h1v1h1v2h1v1h1v2h1v1h1v2h1v1h1v2h1v1h1v2h1v1h1v2h1v1h1v2h1v1h1v1h1v2h1v1h1v1h1v1h1v2h1v1h1v1h1v2h1v1h1v1h1v2h1v1h1v1h1v1h1v1h1v1h1v2h1v1h1v1h1v1h1v1h1v1h1v1h1v1h1v1h1v2h1v1h1v1h1v1h1v1h1v1h1v1h1v1h1v1h1v1h1v1h1v1h2v1h1v1h1v1h1v1h1v1h1v1h1v1h1v1h1v1h1v1h1v1h1v1h2v1h1v1h1v1h1v1h2v1h1v1h1v1h1v1h2v1h1v1h1v1h1v1h2v1h1v1h1v1h1v1h2v1h1v1h2v1h1v1h2v1h1v1h2v1h1v1h2v1h1v1h2v1h1v1h2v1h1v1h2v1h2v1h1v1h2v1h2v1h2v1h2v1h1v1h2v1h2v1h2v1h1v1h2v1h2v1h3v1h2v1h2v1h2v1h2v1h2v1h2v1h3v1h2v1h2v1h3v1h2v1h3v1h3v1h3v1h2v1h3v1h3v1h3v1h3v1h4v1h3v1h4v1h3v1h4v1h4v1h5v1h5v1h5v1h5v1h6v1h8v1h9v1h13v1h36v-1h15v-1h8v-1h7v-1h8v-1h5v-1h5v-1h5v-1h5v-1h4v-1h4v-1h3v-1h4v-1h4v-1h4v-1h2v1h1v1h1v2h1v1h1v1h1v2h1v1h1v1h1v2h1v1h1v1h1v2h1v1h1v1h1v2h1v1h1v1h1v1h1v2h1v1h1v1h1v1h1v1h1v2h1v1h1v1h1v1h1v1h1v1h1v2h1v1h1v1h1v1h1v1h1v1h1v1h1v1h1v1h1v1h1v2h1v1h1v1h1v1h1v1h1v1h1v1h1v1h1v1h1v1h1v1h1v1h1v1h1v1h1v1h1v1h1v1h1v1h1v1h1v1h2v1h1v1h1v1h1v1h1v1h1v1h1v1h2v1h1v1h1v1h1v1h1v1h1v1h1v1h2v1h1v1h1v1h1v1h2v1h1v1h1v1h1v1h2v1h1v1h1v1h2v1h1v1h1v1h1v1h2v1h1v1h2v1h1v1h2v1h1v1h2v1h1v1h1v1h2v1h1v1h2v1h1v1h2v1h1v1h2v1h2v1h1v1h2v1h2v1h1v1h2v1h2v1h1v1h2v1h2v1h2v1h1v1h2v1h2v1h2v1h2v1h2v1h2v1h2v1h1v1h3v1h2v1h2v1h2v1h2v1h2v1h3v1h2v1h2v1h2v1h3v1h2v1h3v1h2v1h3v1h2v1h3v1h3v1h2v1h3v1h4v1h3v1h3v1h3v1h3v1h3v1h4v1h4v1h4v1h3v1h4v1h5v1h4v1h5v1h5v1h5v1h7v1h7v1h7v1h11v1h11v1h55v-1h13v-1h8v-1h7v-1h7v-1h7v-1h7v-1h4v-1h4v-1h5v-1h4v-1h4v-1h5v-1h4v-1h4v-1h3v-1h3v-1h3v-1h3v-1h3v-1h3v-1h3v-1h4v-1h3v-1h2v-1h3v-1h2v-1h3v-1h2v-1h3v-1h2v-1h2v-1h3v-1h2v-1h3v-1h2v-1h2v-1h2v-1h2v-1h2v-1h2v-1h2v-1h2v-1h2v-1h2v-1h2v-1h2v-1h2v-1h2v-1h2v-1h2v-1h2v-1h1v-1h2v-1h2v-1h1v-1h2v-1h1v-1h2v-1h2v-1h1v-1h2v-1h1v-1h2v-1h2v-1h1v-1h2v-1h2v-1h1v-1h2v-1h1v-1h1v-1h2v-1h1v-1h1v-1h2v-1h1v-1h1v-1h2v-1h1v-1h1v-1h2v-1h1v-1h1v-1h2v-1h1v-1h2v-1h1v-1h1v-1h1v-1h1v-1h2v-1h1v-1h1v-1h1v-1h1v-1h1v-1h1v-1h2v-1h1v-1h1v-1h1v-1h1v-1h1v-1h2v-1h1v-1h1v-1h1v-1h1v-1h1v-1h1v-1h1v-1h1v-1h1v-1h1v-1h1v-1h1v-1h1v-1h1v-1h1v-1h1v-1h1v-1h1v-1h1v-1h1v-1h1v-1h1v-1h1v-1h1v-1h1v-1h1v-1h1v-1h1v-1h1v-2h1v-1h1v-1h1v-1h1v-1h1v-2h1v-1h1v-1h1v-1h1v-2h1v-1h1v-1h1v-1h1v-1h1v-2h1v-1h1v-1h1v-1h1v-1h1v-2h1v-1h1v-1h1v-2h1v-1h1v-2h1v-1h1v-2h1v-1h1v-1h1v-2h1v-1h1v-2h1v-1h1v-2h1v-1h1v-1h1v-2h1v-1h1v-2h1v-1h1v-2h1v-2h1v-2h1v-1h1v-2h1v-2h1v-1h1v-2h1v-2h1v-2h1v-1h1v-2h1v-2h1v-1h1v-2h1v-2h1v-2h1v-2h1v-2h1v-2h1v-2h1v-3h1v-2h1v-2h1v-2h1v-2h1v-2h1v-2h1v-2h1v-2h1v-3h1v-3h1v-2h1v-3h1v-3h1v-2h1v-3h1v-2h1v-3h1v-3h1v-2h1v-3h1v-4h1v-3h1v-3h1v-3h1v-4h1v-3h1v-3h1v-4h1v-5h1v-4h1v-4h1v-4h1v-4h1v-4h1v-4h16v1h37v-1h10v-1h7v-1h7v-1h6v-1h4v-1h4v-1h4v-1h4v-1h4v-1h4v-1h2v-1h3v-1h3v-1h3v-1h3v-1h3v-1h2v-1h3v-1h2v-1h2v-1h2v-1h2v-1h2v-1h2v-1h3v-1h2v-1h2v-1h1v-1h2v-1h2v-1h2v-1h1v-1h2v-1h2v-1h1v-1h2v-1h2v-1h1v-1h2v-1h1v-1h2v-1h1v-1h1v-1h2v-1h1v-1h2v-1h1v-1h1v-1h2v-1h1v-1h1v-1h2v-1h1v-1h1v-1h1v-1h1v-1h2v-1h1v-1h1v-1h1v-1h1v-1h1v-1h2v-1h1v-1h1v-1h1v-1h1v-1h1v-1h1v-1h1v-1h1v-1h1v-1h1v-2h1v-1h1v-1h1v-1h1v-1h1v-1h1v-1h1v-1h1v-1h1v-2h1v-1h1v-1h1v-1h1v-2h1v-1h1v-1h1v-2h1v-1h1v-1h1v-2h1v-1h1v-1h1v-2h1v-1h1v-1h1v-2h1v-2h1v-1h1v-2h1v-2h1v-1h1v-2h1v-2h1v-1h1v-2h1v-1h1v-2h1v-2h1v-2h1v-2h1v-2h1v-2h1v-2h1v-3h1v-2h1v-2h1v-2h1v-2h1v-3h1v-3h1v-3h1v-2h1v-3h1v-3h1v-3h1v-3h1v-4h1v-4h1v-4h1v-4h1v-4h1v-6h1v-7h1v-6h1v-12h1v-38h-1v-7h-1v-8h-1v-7h-1v-5h-1v-4h-1v-4h-1v-5h-1v-4h-1v-3h-1v-3h-1v-3h-1v-3h-1v-3h-1v-3h-1v-3h-1v-3h-1v-2h-1v-2h-1v-2h-1v-3h-1v-2h-1v-2h-1v-2h-1v-2h-1v-3h-1v-2h-1v-1h-1v-2h-1v-2h-1v-1h-1v-2h-1v-2h-1v-2h-1v-1h-1v-2h-1v-2h-1v-2h-1v-1h-1v-1h-1v-2h-1v-1h-1v-2h-1v-1h-1v-1h-1v-2h-1v-1h-1v-1h-1v-2h-1v-1h-1v-2h-1v-1h-1v-1h-1v-1h-1v-2h-1v-1h-1v-1h-1v-1h-1v-1h-1v-1h-1v-2h-1v-1h-1v-1h-1v-1h-1v-1h-1v-1h-1v-1h-1v-1h-1v-1h-1v-1h-1v-1h-1v-1h-1v-1h-1v-1h-1v-1h-1v-1h-1v-1h-1v-1h-2v-1h-1v-1h-1v-1h-1v-1h-1v-1h-1v-1h-1v-1h-2v-1h-1v-1h-1v-1h-2v-1h-1v-1h-1v-1h-2v-1h-1v-1h-1v-1h-2v-1h-1v-1h-1v-1h-2v-1h-1v-1h-1v-1h-2v-1h-2v-1h-1v-1h-2v-1h-2v-1h-1v-1h-2v-1h-2v-1h-1v-1h-2v-1h-1v-1h-2v-1h-2v-1h-2v-1h-3v-1h-2v-1h-2v-1h-2v-1h-2v-1h-2v-1h-2v-1h-2v-1h-3v-1h-3v-1h-3v-1h-2v-1h-3v-1h-3v-1h-3v-1h-3v-1h-4v-1h-4v-1h-4v-1h-4v-1h-4v-1h-5v-1h-7v-1h-6v-1h-9v-1h-17v-1h-6v1h-22v1h-7v1h-8v1h-7v1h-4v1h-4v1h-4v1h-5v1h-4v1h-3v1h-3v1h-3v1h-3v1h-3v1h-3v1h-3v1h-2v1h-2v1h-3v1h-2v1h-2v1h-2v1h-2v1h-3v1h-2v1h-2v1h-2v1h-2v1h-1v1h-2v1h-2v1h-1v1h-2v1h-2v1h-2v1h-1v1h-2v1h-2v1h-1v1h-2v1h-1v1h-1v1h-2v1h-1v1h-1v1h-2v1h-1v1h-2v1h-1v1h-1v1h-2v1h-1v1h-1v1h-1v1h-2v1h-1v1h-1v1h-1v1h-1v1h-2v1h-1v1h-1v1h-1v1h-1v1h-1v1h-1v1h-1v1h-1v1h-1v1h-1v1h-1v1h-1v1h-1v1h-1v1h-1v1h-1v1h-1v1h-1v1h-1v1h-1v1h-1v1h-2v1h-1v1h-1v1h-1v-1h-2v-1h-1v-1h-1v-1h-2v-1h-1v-1h-2v-1h-1v-1h-2v-1h-1v-1h-1v-1h-2v-1h-1v-1h-2v-1h-1v-1h-2v-1h-1v-1h-2v-1h-1v-1h-2v-1h-1v-1h-2v-1h-2v-1h-1v-1h-2v-1h-1v-1h-2v-1h-2v-1h-1v-1h-2v-1h-2v-1h-2v-1h-2v-1h-1v-1h-2v-1h-2v-1h-2v-1h-2v-1h-2v-1h-2v-1h-1v-1h-2v-1h-2v-1h-2v-1h-2v-1h-2v-1h-3v-1h-2v-1h-2v-1h-2v-1h-3v-1h-2v-1h-2v-1h-2v-1h-3v-1h-2v-1h-3v-1h-2v-1h-3v-1h-3v-1h-3v-1h-3v-1h-2v-1h-3v-1h-3v-1h-3v-1h-3v-1h-4v-1h-3v-1h-4v-1h-3v-1h-4v-1h-4v-1h-3v-1h-5v-1h-5v-1h-5v-1h-5v-1h-5v-1h-6v-1h-8v-1h-7v-1h-8v-1h-14v-1h-16v-1h-4v1h-35v1h-12v1h-10v1h-7v1h-6v1h-6v1h-7v1h-5v1h-4v1h-4v1h-5v1h-4v1h-4v1h-4v1h-3v1h-4v1h-3v1h-3v1h-3v1h-4v1h-3v1h-3v1h-3v1h-2v1h-3v1h-3v1h-2v1h-3v1h-2v1h-3v1h-2v1h-3v1h-3v1h-2v1h-2v1h-2v1h-2v1h-2v1h-2v1h-2v1h-2v1h-2v1h-2v1h-3v1h-2v1h-2v1h-1v1h-2v1h-2v1h-2v1h-2v1h-1v1h-2v1h-2v1h-2v1h-2v1h-1v1h-2v1h-2v1h-1v1h-2v1h-1v1h-2v1h-2v1h-1v1h-2v1h-2v1h-1v1h-2v1h-1v1h-3v-1h-1v-1h-1v-1h-2v-1h-1v-1h-2v-1h-1v-1h-2v-1h-1v-1h-1v-1h-2v-1h-1v-1h-2v-1h-1v-1h-1v-1h-2v-1h-2v-1h-1v-1h-2v-1h-2v-1h-1v-1h-2v-1h-2v-1h-1v-1h-2v-1h-2v-1h-2v-1h-2v-1h-2v-1h-2v-1h-2v-1h-2v-1h-2v-1h-2v-1h-2v-1h-2v-1h-3v-1h-2v-1h-3v-1h-2v-1h-3v-1h-3v-1h-2v-1h-3v-1h-2v-1h-3v-1h-4v-1h-3v-1h-3v-1h-3v-1h-3v-1h-4v-1h-3v-1h-4v-1h-4v-1h-5v-1h-4v-1h-4v-1h-4v-1h-5v-1h-5v-1h-5v-1h-5v-1h-5v-1h-7v-1h-6v-1h-6v-1h-6v-1h-7v-1h-6v-1h-7v-1h-7v-1h-7v-1h-8v-1h-8V9h-8V8h-8V7h-9V6h-11V5h-11V4h-11V3h-12V2h-19V1h-19V0"/>
    </g>
  </g>
  <path fill="#232a36" d="M223.485 212.71c.374.372.76.72 1.147 1.08-.387-.36-.773-.708-1.147-1.08M85.805 151.47a35.484 35.484 0 0 0-6.96.681 36.326 36.326 0 0 1 6.96-.682"/>
</svg>
