<svg width="120" height="16" viewBox="0 0 120 16" fill="none" xmlns="http://www.w3.org/2000/svg">
<path d="M6.64859 15.2558C5.41196 15.2558 4.2865 14.9918 3.27219 14.4638C2.27177 13.9358 1.47283 13.1577 0.875363 12.1295C0.291788 11.0874 0 9.80913 0 8.29461C0 6.79399 0.298735 5.51568 0.896204 4.45969C1.50757 3.3898 2.31346 2.57697 3.31387 2.02118C4.31429 1.4515 5.41891 1.16666 6.62775 1.16666C7.61426 1.16666 8.46184 1.34729 9.17047 1.70855C9.87909 2.06981 10.4557 2.4797 10.9003 2.93823L9.29552 4.89737C8.94815 4.59169 8.57994 4.33464 8.19089 4.12622C7.80184 3.9178 7.31553 3.81359 6.73196 3.81359C5.67596 3.81359 4.81449 4.20264 4.14755 4.98074C3.48061 5.75884 3.14714 6.82873 3.14714 8.1904C3.14714 9.57987 3.46671 10.6636 4.10587 11.4417C4.74502 12.2198 5.6968 12.6089 6.96122 12.6089C7.23911 12.6089 7.51005 12.5742 7.77405 12.5047C8.03805 12.4352 8.25342 12.331 8.42015 12.1921V9.85776H6.16922V7.35672H11.1296V13.6093C10.6572 14.0678 10.025 14.4569 9.23299 14.7765C8.45489 15.096 7.59342 15.2558 6.64859 15.2558Z" fill="#0C192B"/>
<path d="M13.6868 15.0057V4.66811H16.1879L16.3963 6.48136H16.4796C16.8548 5.78663 17.3064 5.27253 17.8344 4.93906C18.3624 4.59169 18.8904 4.41801 19.4184 4.41801C19.7101 4.41801 19.9533 4.43885 20.1478 4.48053C20.3424 4.50832 20.5091 4.55695 20.648 4.62643L20.1478 7.27336C19.9672 7.21778 19.7866 7.17609 19.6059 7.1483C19.4392 7.12052 19.2447 7.10662 19.0224 7.10662C18.6333 7.10662 18.2234 7.25251 17.7927 7.5443C17.3758 7.82219 17.0285 8.30851 16.7506 9.00324V15.0057H13.6868Z" fill="#0C192B"/>
<path d="M25.0965 15.2558C23.971 15.2558 23.1512 14.8876 22.6371 14.1512C22.1369 13.4009 21.8868 12.3796 21.8868 11.0874V4.66811H24.9506V10.6914C24.9506 11.4279 25.0548 11.942 25.2632 12.2337C25.4716 12.5116 25.7982 12.6506 26.2428 12.6506C26.6319 12.6506 26.9584 12.5603 27.2224 12.3796C27.4864 12.199 27.7712 11.9072 28.0769 11.5043V4.66811H31.1407V15.0057H28.6396L28.4104 13.5676H28.3478C27.9171 14.0817 27.4447 14.4916 26.9306 14.7973C26.4165 15.103 25.8051 15.2558 25.0965 15.2558Z" fill="#0C192B"/>
<path d="M33.8368 15.0057V4.66811H36.3378L36.5462 5.98115H36.6296C37.0742 5.56431 37.5605 5.20305 38.0885 4.89737C38.6304 4.5778 39.2487 4.41801 39.9435 4.41801C41.0689 4.41801 41.8818 4.79316 42.382 5.54347C42.8961 6.27989 43.1531 7.2942 43.1531 8.5864V15.0057H40.0894V8.9824C40.0894 8.23209 39.9851 7.71798 39.7767 7.44009C39.5822 7.1622 39.2626 7.02325 38.818 7.02325C38.4289 7.02325 38.0955 7.11357 37.8176 7.2942C37.5397 7.46093 37.234 7.70409 36.9005 8.02367V15.0057H33.8368Z" fill="#0C192B"/>
<path d="M49.7447 15.2558C48.4664 15.2558 47.5494 14.8876 46.9936 14.1512C46.4517 13.4148 46.1807 12.4491 46.1807 11.2542V7.06494H44.7635V4.79316L46.3475 4.66811L46.7018 1.91697H49.2445V4.66811H51.7247V7.06494H49.2445V11.2125C49.2445 11.7961 49.3626 12.2198 49.5988 12.4838C49.8489 12.7339 50.1755 12.859 50.5784 12.859C50.7451 12.859 50.9119 12.8382 51.0786 12.7965C51.2592 12.7548 51.419 12.7062 51.558 12.6506L52.0373 14.8807C51.7733 14.964 51.4468 15.0474 51.0578 15.1308C50.6826 15.2141 50.2449 15.2558 49.7447 15.2558Z" fill="#0C192B"/>
<path d="M55.4724 15.0057L52.888 4.66811H55.9309L56.9313 9.46176C57.0147 9.97586 57.0911 10.483 57.1606 10.9832C57.23 11.4834 57.3064 11.9975 57.3898 12.5255H57.4732C57.5704 11.9975 57.6608 11.4765 57.7441 10.9624C57.8414 10.4483 57.9525 9.94807 58.0776 9.46176L59.2239 4.66811H61.8708L63.038 9.46176C63.163 9.97586 63.2742 10.483 63.3715 10.9832C63.4826 11.4834 63.5868 11.9975 63.6841 12.5255H63.7675C63.8647 11.9975 63.9411 11.4834 63.9967 10.9832C64.0662 10.483 64.1496 9.97586 64.2468 9.46176L65.2264 4.66811H68.0609L65.5807 15.0057H61.9959L61.058 10.879C60.9607 10.3927 60.8635 9.90639 60.7662 9.42008C60.6828 8.93377 60.5925 8.41272 60.4953 7.85693H60.4119C60.3146 8.41272 60.2243 8.93377 60.141 9.42008C60.0715 9.90639 59.9881 10.3927 59.8909 10.879L58.9738 15.0057H55.4724Z" fill="#0C192B"/>
<path d="M74.2 15.2558C73.3246 15.2558 72.4979 15.0474 71.7198 14.6306C70.9556 14.1998 70.3373 13.5815 69.8649 12.7756C69.3924 11.9559 69.1562 10.9763 69.1562 9.83692C69.1562 8.68366 69.3924 7.70409 69.8649 6.8982C70.3373 6.09231 70.9556 5.48095 71.7198 5.06411C72.4979 4.63337 73.3246 4.41801 74.2 4.41801C75.0754 4.41801 75.8951 4.63337 76.6593 5.06411C77.4236 5.48095 78.0419 6.09231 78.5143 6.8982C78.9867 7.70409 79.2229 8.68366 79.2229 9.83692C79.2229 10.9763 78.9867 11.9559 78.5143 12.7756C78.0419 13.5815 77.4236 14.1998 76.6593 14.6306C75.8951 15.0474 75.0754 15.2558 74.2 15.2558ZM74.2 12.7756C74.8253 12.7756 75.2977 12.5116 75.6172 11.9836C75.9368 11.4417 76.0966 10.7262 76.0966 9.83692C76.0966 8.93377 75.9368 8.21819 75.6172 7.6902C75.2977 7.1622 74.8253 6.8982 74.2 6.8982C73.5608 6.8982 73.0815 7.1622 72.7619 7.6902C72.4562 8.21819 72.3034 8.93377 72.3034 9.83692C72.3034 10.7262 72.4562 11.4417 72.7619 11.9836C73.0815 12.5116 73.5608 12.7756 74.2 12.7756Z" fill="#0C192B"/>
<path d="M81.3214 15.0057V4.66811H83.8225L84.0309 6.48136H84.1143C84.4894 5.78663 84.941 5.27253 85.469 4.93906C85.997 4.59169 86.525 4.41801 87.053 4.41801C87.3448 4.41801 87.5879 4.43885 87.7824 4.48053C87.977 4.50832 88.1437 4.55695 88.2827 4.62643L87.7824 7.27336C87.6018 7.21778 87.4212 7.17609 87.2406 7.1483C87.0738 7.12052 86.8793 7.10662 86.657 7.10662C86.2679 7.10662 85.858 7.25251 85.4273 7.5443C85.0105 7.82219 84.6631 8.30851 84.3852 9.00324V15.0057H81.3214Z" fill="#0C192B"/>
<path d="M89.6257 15.0057V0.395508H92.6061V8.77398H92.6894L95.9616 4.66811H99.2963L95.6698 8.91987L99.5673 15.0057H96.2534L93.9191 10.9832L92.6061 12.463V15.0057H89.6257Z" fill="#0C192B"/>
<path d="M101.948 15.2556C101.601 15.2556 101.302 15.1375 101.052 14.9013C100.816 14.6512 100.698 14.3385 100.698 13.9634C100.698 13.5604 100.816 13.2409 101.052 13.0047C101.302 12.7546 101.601 12.6295 101.948 12.6295C102.282 12.6295 102.567 12.7546 102.803 13.0047C103.053 13.2409 103.178 13.5604 103.178 13.9634C103.178 14.3385 103.053 14.6512 102.803 14.9013C102.567 15.1375 102.282 15.2556 101.948 15.2556Z" fill="#0C192B"/>
<path d="M106.242 15.0055V4.87629H107.951V15.0055H106.242ZM107.118 2.79209C106.784 2.79209 106.506 2.69483 106.284 2.50031C106.076 2.29189 105.971 2.01399 105.971 1.66663C105.971 1.33316 106.076 1.06221 106.284 0.853792C106.506 0.645372 106.784 0.541162 107.118 0.541162C107.451 0.541162 107.722 0.645372 107.931 0.853792C108.153 1.06221 108.264 1.33316 108.264 1.66663C108.264 2.01399 108.153 2.29189 107.931 2.50031C107.722 2.69483 107.451 2.79209 107.118 2.79209Z" fill="#0C192B"/>
<path d="M115.311 15.2556C114.491 15.2556 113.72 15.0472 112.997 14.6303C112.288 14.2135 111.712 13.6091 111.267 12.8171C110.836 12.0251 110.621 11.0733 110.621 9.96173C110.621 8.82237 110.836 7.85669 111.267 7.0647C111.712 6.2727 112.288 5.66828 112.997 5.25144C113.72 4.83461 114.491 4.62619 115.311 4.62619C116.144 4.62619 116.915 4.83461 117.624 5.25144C118.333 5.66828 118.902 6.2727 119.333 7.0647C119.778 7.85669 120 8.82237 120 9.96173C120 11.0733 119.778 12.0251 119.333 12.8171C118.902 13.6091 118.333 14.2135 117.624 14.6303C116.915 15.0472 116.144 15.2556 115.311 15.2556ZM115.311 13.8383C116.186 13.8383 116.888 13.484 117.416 12.7754C117.957 12.0529 118.228 11.115 118.228 9.96173C118.228 8.79458 117.957 7.84974 117.416 7.12722C116.888 6.4047 116.186 6.04344 115.311 6.04344C114.449 6.04344 113.747 6.4047 113.206 7.12722C112.664 7.84974 112.393 8.79458 112.393 9.96173C112.393 11.115 112.664 12.0529 113.206 12.7754C113.747 13.484 114.449 13.8383 115.311 13.8383Z" fill="#0C192B"/>
</svg>
