<svg xmlns="http://www.w3.org/2000/svg" viewBox="0 0 1448.08 220.76">
  <defs>
    <clipPath id="a" clipPathUnits="userSpaceOnUse"/>
    <clipPath id="c" clipPathUnits="userSpaceOnUse"/>
    <clipPath id="e" clipPathUnits="userSpaceOnUse"/>
    <clipPath id="g" clipPathUnits="userSpaceOnUse"/>
    <clipPath id="i" clipPathUnits="userSpaceOnUse"/>
    <clipPath id="k" clipPathUnits="userSpaceOnUse"/>
    <clipPath id="m" clipPathUnits="userSpaceOnUse"/>
    <clipPath id="o" clipPathUnits="userSpaceOnUse"/>
    <clipPath id="q" clipPathUnits="userSpaceOnUse"/>
    <clipPath id="s" clipPathUnits="userSpaceOnUse"/>
    <clipPath id="u" clipPathUnits="userSpaceOnUse"/>
    <clipPath id="w" clipPathUnits="userSpaceOnUse"/>
    <clipPath id="y" clipPathUnits="userSpaceOnUse"/>
    <clipPath id="A" clipPathUnits="userSpaceOnUse"/>
    <clipPath id="C" clipPathUnits="userSpaceOnUse"/>
    <clipPath id="E" clipPathUnits="userSpaceOnUse"/>
    <clipPath id="G" clipPathUnits="userSpaceOnUse"/>
    <clipPath id="I" clipPathUnits="userSpaceOnUse"/>
    <clipPath id="J" clipPathUnits="userSpaceOnUse"/>
    <clipPath id="L" clipPathUnits="userSpaceOnUse"/>
    <clipPath id="N" clipPathUnits="userSpaceOnUse"/>
    <clipPath id="P" clipPathUnits="userSpaceOnUse"/>
    <clipPath id="R" clipPathUnits="userSpaceOnUse"/>
    <clipPath id="T" clipPathUnits="userSpaceOnUse"/>
    <clipPath id="V" clipPathUnits="userSpaceOnUse">
      <path d="M0 0h10860.6v1655.73H0Z"/>
    </clipPath>
    <clipPath id="W" clipPathUnits="userSpaceOnUse">
      <path d="M612.664 474.449a209.976 209.976 0 0 1-20-8.398c-82.351-39.621-134.734-122.91-134.801-214.289a210.884 210.884 0 0 1 70-157.903c42.903-40 104.403-68.398 173.301-80A811.89 811.89 0 0 1 859.965.06 1197.632 1197.632 0 0 1 1046.26 13.55c66.9 9.199 136.8 21.3 191.2 60l16.3 11.508 16.9-10.508c136.17-84.602 309.52-80.469 441.51 10.508l20 13.992 17.7-17.29c93.88-91.921 244.5-90.32 336.42 3.571 91.91 93.887 90.31 244.508-3.58 336.43a237.986 237.986 0 0 1-166.45 67.898h-10.9l-24.7-1.109-5.79 24.008c-44.12 180.546-205.84 307.625-391.71 307.796-8.29 0-16.5 0-24.6-.703-116.87-6.8-224.9-64.476-295.6-157.797l-12.1-16.207-19.2 4.911c-140.644 36.636-288.492-24.84-361.695-150.399l-10-18.109-21.203 3.597a236.085 236.085 0 0 1-126.098-11.296"/>
    </clipPath>
    <linearGradient id="b" x1="0" x2="1" y1="0" y2="0" gradientTransform="rotate(85.77 -253.555 1279.989) scale(215.5)" gradientUnits="userSpaceOnUse" spreadMethod="pad">
      <stop offset="0" stop-color="#59a4df"/>
      <stop offset="1" stop-color="#64ccd3"/>
    </linearGradient>
    <linearGradient id="d" x1="0" x2="1" y1="0" y2="0" gradientTransform="rotate(85.77 -253.353 1280.173) scale(215.5)" gradientUnits="userSpaceOnUse" spreadMethod="pad">
      <stop offset="0" stop-color="#59a4df"/>
      <stop offset="1" stop-color="#64ccd3"/>
    </linearGradient>
    <linearGradient id="f" x1="0" x2="1" y1="0" y2="0" gradientTransform="rotate(85.77 -266.476 1037.96) scale(201.6)" gradientUnits="userSpaceOnUse" spreadMethod="pad">
      <stop offset="0" stop-color="#59a4df"/>
      <stop offset="1" stop-color="#64ccd3"/>
    </linearGradient>
    <linearGradient id="h" x1="0" x2="1" y1="0" y2="0" gradientTransform="rotate(85.77 -257.585 1046.216) scale(201.6)" gradientUnits="userSpaceOnUse" spreadMethod="pad">
      <stop offset="0" stop-color="#59a4df"/>
      <stop offset="1" stop-color="#64ccd3"/>
    </linearGradient>
    <linearGradient id="j" x1="0" x2="1" y1="0" y2="0" gradientTransform="rotate(85.77 -8.095 1277.938) scale(201.6)" gradientUnits="userSpaceOnUse" spreadMethod="pad">
      <stop offset="0" stop-color="#59a4df"/>
      <stop offset="1" stop-color="#64ccd3"/>
    </linearGradient>
    <linearGradient id="l" x1="0" x2="1" y1="0" y2="0" gradientTransform="rotate(85.77 -6.994 1278.961) scale(201.6)" gradientUnits="userSpaceOnUse" spreadMethod="pad">
      <stop offset="0" stop-color="#59a4df"/>
      <stop offset="1" stop-color="#64ccd3"/>
    </linearGradient>
    <linearGradient id="n" x1="0" x2="1" y1="0" y2="0" gradientTransform="rotate(85.77 -133.956 1161.037) scale(201.6)" gradientUnits="userSpaceOnUse" spreadMethod="pad">
      <stop offset="0" stop-color="#59a4df"/>
      <stop offset="1" stop-color="#64ccd3"/>
    </linearGradient>
    <linearGradient id="p" x1="0" x2="1" y1="0" y2="0" gradientTransform="rotate(85.77 -8.09 1277.944) scale(201.6)" gradientUnits="userSpaceOnUse" spreadMethod="pad">
      <stop offset="0" stop-color="#59a4df"/>
      <stop offset="1" stop-color="#64ccd3"/>
    </linearGradient>
    <linearGradient id="r" x1="0" x2="1" y1="0" y2="0" gradientTransform="rotate(85.77 -260.873 1043.162) scale(201.6)" gradientUnits="userSpaceOnUse" spreadMethod="pad">
      <stop offset="0" stop-color="#59a4df"/>
      <stop offset="1" stop-color="#64ccd3"/>
    </linearGradient>
    <linearGradient id="t" x1="0" x2="1" y1="0" y2="0" gradientTransform="rotate(85.77 -19.058 1267.754) scale(201.6)" gradientUnits="userSpaceOnUse" spreadMethod="pad">
      <stop offset="0" stop-color="#59a4df"/>
      <stop offset="1" stop-color="#64ccd3"/>
    </linearGradient>
    <linearGradient id="v" x1="0" x2="1" y1="0" y2="0" gradientTransform="rotate(85.77 -243.783 1059.036) scale(201.6)" gradientUnits="userSpaceOnUse" spreadMethod="pad">
      <stop offset="0" stop-color="#59a4df"/>
      <stop offset="1" stop-color="#64ccd3"/>
    </linearGradient>
    <linearGradient id="x" x1="0" x2="1" y1="0" y2="0" gradientTransform="rotate(85.77 -13.132 1273.26) scale(201.6)" gradientUnits="userSpaceOnUse" spreadMethod="pad">
      <stop offset="0" stop-color="#59a4df"/>
      <stop offset="1" stop-color="#64ccd3"/>
    </linearGradient>
    <linearGradient id="z" x1="0" x2="1" y1="0" y2="0" gradientTransform="rotate(85.77 -257.534 1046.271) scale(201.6)" gradientUnits="userSpaceOnUse" spreadMethod="pad">
      <stop offset="0" stop-color="#59a4df"/>
      <stop offset="1" stop-color="#64ccd3"/>
    </linearGradient>
    <linearGradient id="B" x1="0" x2="1" y1="0" y2="0" gradientTransform="rotate(85.77 -50.377 1238.664) scale(201.6)" gradientUnits="userSpaceOnUse" spreadMethod="pad">
      <stop offset="0" stop-color="#59a4df"/>
      <stop offset="1" stop-color="#64ccd3"/>
    </linearGradient>
    <linearGradient id="D" x1="0" x2="1" y1="0" y2="0" gradientTransform="rotate(85.77 -220.187 1080.954) scale(201.6)" gradientUnits="userSpaceOnUse" spreadMethod="pad">
      <stop offset="0" stop-color="#59a4df"/>
      <stop offset="1" stop-color="#64ccd3"/>
    </linearGradient>
    <linearGradient id="F" x1="0" x2="1" y1="0" y2="0" gradientTransform="rotate(85.77 -17.198 1269.487) scale(201.6)" gradientUnits="userSpaceOnUse" spreadMethod="pad">
      <stop offset="0" stop-color="#59a4df"/>
      <stop offset="1" stop-color="#64ccd3"/>
    </linearGradient>
    <linearGradient id="H" x1="0" x2="1" y1="0" y2="0" gradientTransform="rotate(85.77 -247.996 1055.126) scale(201.6)" gradientUnits="userSpaceOnUse" spreadMethod="pad">
      <stop offset="0" stop-color="#59a4df"/>
      <stop offset="1" stop-color="#64ccd3"/>
    </linearGradient>
    <linearGradient id="K" x1="0" x2="1" y1="0" y2="0" gradientTransform="rotate(85.77 -139.033 1156.327) scale(201.6)" gradientUnits="userSpaceOnUse" spreadMethod="pad">
      <stop offset="0" stop-color="#59a4df"/>
      <stop offset="1" stop-color="#64ccd3"/>
    </linearGradient>
    <linearGradient id="M" x1="0" x2="1" y1="0" y2="0" gradientTransform="rotate(85.77 -139.033 1156.327) scale(201.6)" gradientUnits="userSpaceOnUse" spreadMethod="pad">
      <stop offset="0" stop-color="#4792d6"/>
      <stop offset="1" stop-color="#4dc3c6"/>
    </linearGradient>
    <linearGradient id="O" x1="0" x2="1" y1="0" y2="0" gradientTransform="rotate(85.77 -87.08 1204.577) scale(201.6)" gradientUnits="userSpaceOnUse" spreadMethod="pad">
      <stop offset="0" stop-color="#59a4df"/>
      <stop offset="1" stop-color="#64ccd3"/>
    </linearGradient>
    <linearGradient id="Q" x1="0" x2="1" y1="0" y2="0" gradientTransform="rotate(85.77 -87.08 1204.577) scale(201.6)" gradientUnits="userSpaceOnUse" spreadMethod="pad">
      <stop offset="0" stop-color="#4792d6"/>
      <stop offset="1" stop-color="#4dc3c6"/>
    </linearGradient>
    <linearGradient id="S" x1="0" x2="1" y1="0" y2="0" gradientTransform="rotate(85.77 -190.975 1108.088) scale(201.6)" gradientUnits="userSpaceOnUse" spreadMethod="pad">
      <stop offset="0" stop-color="#59a4df"/>
      <stop offset="1" stop-color="#64ccd3"/>
    </linearGradient>
    <linearGradient id="U" x1="0" x2="1" y1="0" y2="0" gradientTransform="rotate(85.77 -190.975 1108.088) scale(201.6)" gradientUnits="userSpaceOnUse" spreadMethod="pad">
      <stop offset="0" stop-color="#4792d6"/>
      <stop offset="1" stop-color="#4dc3c6"/>
    </linearGradient>
    <linearGradient id="X" x1="0" x2="1" y1="0" y2="0" gradientTransform="translate(159.664 410.18) scale(3182.7)" gradientUnits="userSpaceOnUse" spreadMethod="pad">
      <stop offset="0" stop-color="#59a4df"/>
      <stop offset="1" stop-color="#64ccd3"/>
    </linearGradient>
  </defs>
  <path fill="#232a36" d="M386.263 107.606h79.64a1.184 1.184 0 0 1 1.172 1.054c.5 4.14.757 8.308.774 12.48 0 22.497-7.249 41.022-21.746 55.573-14.499 14.551-32.916 21.84-55.254 21.866-22.481 0-41.449-7.471-56.908-22.412-15.457-14.943-23.186-33.362-23.186-55.254 0-21.751 7.653-40.129 22.96-55.133 15.306-15.005 34.129-22.512 56.468-22.52 17.012 0 32.101 3.884 45.265 11.653a60.686 60.686 0 0 1 26.853 31.76 1.186 1.186 0 0 1-.702 1.523l-.071.024-33.147 9.6a1.2 1.2 0 0 1-1.333-.587c-7.307-13.636-19.585-20.453-36.839-20.453a40.515 40.515 0 0 0-30.386 12.64c-8.135 8.435-12.206 18.937-12.215 31.507-.008 12.568 4.173 23.11 12.548 31.626a41.924 41.924 0 0 0 31.145 12.787c9.61 0 17.855-2.37 24.734-7.107a37.7 37.7 0 0 0 14.534-19.56h-44.306c-.65 0-1.175-.525-1.175-1.173v-28.72a1.16 1.16 0 0 1 1.147-1.174h.028M555.263 82.312a34.829 34.829 0 0 1 7.026.667c.558.124.946.63.92 1.2l-1.468 33.4a1.172 1.172 0 0 1-1.172 1.12h-5.333c-25.601 0-38.396 13.902-38.387 41.706v33.667a1.16 1.16 0 0 1-1.146 1.173H482.555a1.16 1.16 0 0 1-1.174-1.145V85.033c0-.648.527-1.173 1.174-1.173h33.148c.648 0 1.173.525 1.173 1.173v20.133c9.19-15.245 21.985-22.862 38.387-22.854M689.715 85.033v109.039a1.158 1.158 0 0 1-1.146 1.173h-33.188a1.172 1.172 0 0 1-1.172-1.173v-9.479c-8.889 9.324-20.276 13.986-34.161 13.986-13.03 0-23.497-4.252-31.399-12.76-7.902-8.506-11.858-19.71-11.868-33.612V85.033c0-.642.518-1.166 1.16-1.173h32.947a1.186 1.186 0 0 1 1.173 1.173v59.627c0 6.507 1.779 11.796 5.334 15.865a17.398 17.398 0 0 0 13.746 6.149c7.236 0 12.894-2.551 16.974-7.655 4.08-5.102 6.112-12.902 6.094-23.4V85.034a1.185 1.185 0 0 1 1.172-1.173h33.162c.646 0 1.172.525 1.172 1.173M777.583 80.539c13.013 0 23.474 4.254 31.386 12.761 7.91 8.506 11.866 19.71 11.866 33.613v67.159a1.158 1.158 0 0 1-1.146 1.173H786.728c-.64 0-1.16-.517-1.16-1.158v-59.641c0-6.497-1.777-11.782-5.333-15.853a17.408 17.408 0 0 0-13.746-6.106c-7.254 0-12.912 2.55-16.974 7.652-4.062 5.103-6.098 12.907-6.107 23.414v50.519a1.158 1.158 0 0 1-1.145 1.173H709.075c-.64 0-1.16-.517-1.16-1.16V85.033c0-.642.518-1.166 1.16-1.173h33.16c.648 0 1.173.525 1.173 1.173v9.48c8.88-9.316 20.272-13.974 34.175-13.974M915.543 163.78l7.532 25.666a1.158 1.158 0 0 1-.574 1.334 63.525 63.525 0 0 1-29.546 7.773c-14.054 0-24.964-3.773-32.734-11.32-7.768-7.548-11.648-18.564-11.638-33.053v-42.174h-19.04c-.642 0-1.162-.52-1.162-1.16V85.02c0-.641.52-1.16 1.162-1.16h19.04V52.193c0-.641.518-1.16 1.158-1.16h33.175c.64 0 1.159.519 1.159 1.16V83.86h31.681c.64 0 1.16.519 1.16 1.16v25.867c0 .64-.52 1.16-1.16 1.16h-31.681v38.666c0 10.8 4.956 16.2 14.866 16.2a31.992 31.992 0 0 0 14.935-3.746 1.157 1.157 0 0 1 1.581.43l.086.183M1098.37 85.34l-34.989 109.334a1.143 1.143 0 0 1-1.106.798h-29.147a1.158 1.158 0 0 1-1.133-.798l-19.707-59.56-19.893 59.56c-.164.47-.608.784-1.107.784h-29.16a1.161 1.161 0 0 1-1.107-.798L926.048 85.34a1.163 1.163 0 0 1 1.108-1.52h32.387c.509.001.958.337 1.106.825l18.012 59.122 20.8-59.122a1.16 1.16 0 0 1 1.094-.785h23.428c.494.001.933.317 1.092.785l20.748 59.362 17.945-59.307c.15-.487.599-.821 1.108-.828h32.452c.64.044 1.123.597 1.08 1.236l-.039.232M1158.756 168.393a25.599 25.599 0 0 0 18.852-8.094c5.333-5.396 8-12.31 8-20.746 0-8.436-2.701-15.351-8.107-20.747a25.727 25.727 0 0 0-18.745-8.133 26.575 26.575 0 0 0-19.308 8.094c-5.484 5.403-8.221 12.318-8.213 20.746.009 8.427 2.71 15.342 8.106 20.747a26.46 26.46 0 0 0 19.415 8.133zm0-87.414c17.004 0 31.425 5.472 43.265 16.414 11.842 10.942 17.756 24.996 17.747 42.16 0 17.305-5.915 31.435-17.747 42.387-11.83 10.95-26.253 16.422-43.265 16.412-17.308 0-31.916-5.47-43.827-16.412-11.912-10.943-17.862-25.072-17.854-42.387 0-17.147 5.952-31.2 17.854-42.16 11.902-10.96 26.51-16.43 43.827-16.414M1306.075 82.312a34.81 34.81 0 0 1 7.026.667c.558.124.947.63.92 1.2l-1.466 33.4a1.172 1.172 0 0 1-1.174 1.12h-5.333c-25.6 0-38.395 13.902-38.387 41.706v33.667c0 .65-.524 1.173-1.172 1.173h-33.161a1.171 1.171 0 0 1-1.172-1.173V85.033c0-.648.524-1.173 1.172-1.173h33.148c.647 0 1.173.525 1.173 1.173v20.133c9.199-15.245 22.008-22.862 38.426-22.854M1446.96 195.245h-42.293a1.151 1.151 0 0 1-.867-.387l-35.8-39.773h-6.44v38.987c0 .641-.507 1.167-1.147 1.173h-33.204a1.16 1.16 0 0 1-1.161-1.158V36.66c0-.641.52-1.16 1.161-1.16h33.164c.64-.008 1.16.505 1.174 1.145v85.161h4.88l34.906-37.573c.214-.234.52-.369.854-.373h39.64c.64.001 1.173.53 1.16 1.176 0 .29-.107.57-.294.784l-47 51.067 52.094 56.4c.426.48.4 1.222-.094 1.657-.2.184-.466.292-.733.301M81.462 152.34a209.443 209.443 0 0 1-.107-5.907v-6.04c.2-12.173 1.16-24.214 2.507-29.733-2.09-.15-4.17-.427-6.227-.827l2.413-2.814H77.595l-1.133-.12h-.214l-1.333-.186h-.266l-1.588-.28h-.28c-.586-.106-1.2-.227-1.852-.374h-.267l-2.146-.506h-.174l-2.413-.653h-.12l-2.667-.787-.32-.107c-.88-.28-1.814-.587-2.76-.92l-.44-.16c-.947-.333-1.933-.693-2.933-1.08l-.52-.2a40.158 40.158 0 0 1-3.147-1.333l-.52-.213-3.4-1.494-.48-.227a127.584 127.584 0 0 1-3.72-1.76l-.307-.16a204.059 204.059 0 0 1-4.133-2.093l2.44-1.026 1.44-.427-8.547-5.76-8.146-5.546-4-2.667-.934-.64-1.213-.96-2.08-1.468 3.867-1.16s-10.28-3.507-16.333-9.973l-.107-.119a19.538 19.538 0 0 1-2.107-2.667c-.2-.32-.4-.666-.587-1a14.216 14.216 0 0 1-.907-2.133 11.414 11.414 0 0 1-.586-4.748c.043-.519.115-1.035.214-1.545l.08-.4c.092-.427.186-.854.306-1.255v-.239c.135-.453.296-.898.48-1.333l.134-.333c.159-.36.32-.707.492-1.054l.148-.28c.212-.413.453-.813.693-1.2l.173-.24c.213-.306.426-.613.653-.906l.227-.294c.28-.348.573-.681.893-1.014l.107-.107.867-.827.28-.238.946-.747.107-.081c.346-.252.72-.492 1.093-.719l.294-.173.946-.507.24-.12c.387-.187.773-.347 1.174-.507l.293-.108c.32-.118.64-.225.973-.318l.307-.094c.4-.106.813-.213 1.213-.293h.24c.34-.068.682-.119 1.027-.147H20.222l.667.079.386.068.627.12.387.107.6.16.386.133.574.227.373.146.573.279.347.188c.2.107.4.239.6.36l.28.173c.291.194.571.403.84.627a41.6 41.6 0 0 1 2.88 2.6l.066.08a50.219 50.219 0 0 1 8.64 12.08 21.67 21.67 0 0 1 .787 1.625l2.56-3.905s1.174 1.64 3.414 4.187l1.2 1.333c.64.693 1.333 1.467 2.146 2.253 1.334 1.334 2.76 2.747 4.4 4.227a92.399 92.399 0 0 0 11.867 9.065l-.827-3.732a54.524 54.524 0 0 0 17.334 6.774 41.71 41.71 0 0 0 4.266.573c.107-.547.213-1.081.334-1.587a68.227 68.227 0 0 1 1.706-6.506 38.793 38.793 0 0 1 2.04-5.334 52.09 52.09 0 0 1 4-7.453c.64-1 1.333-1.973 1.947-2.895l.533-.758a92.252 92.252 0 0 1 7.427-9.054h-3.667a42.58 42.58 0 0 1 6.093-5.028l-.813-1.16a5.785 5.785 0 0 1-.613-1.092 45.12 45.12 0 0 0-6.56 5.4L93.475 47.9h4.267A72.625 72.625 0 0 0 87.29 64.273a56.154 56.154 0 0 0-3.76 11.64 51.344 51.344 0 0 1-18.067-6.666l-5.693-3.667.826 3.253A87.6 87.6 0 0 1 44.088 52.5l-2.266-3.16-2.133 3.253-.067.107a48.863 48.863 0 0 0-10.96-13.2 15.182 15.182 0 0 0-9.693-3.321C9.08 36.367.926 43.98.06 53.833c-.92 9.96 8.614 16.84 15.52 20.387l-2.16.652 4.468 3.161c5.24 3.694 14.666 10.08 20.293 13.893l-4.707 1.414 5.76 3.04c16.907 8.96 28.92 11.853 35.427 12.813l-2.013 2.333 4.506.88c1.174.226 2.36.427 3.56.574-1.56 9.334-2.4 27.12-1.853 41.333.866-.36 1.733-.693 2.667-.986-.054-.334-.054-.653-.067-.987M172.475 40.1v.2a42.109 42.109 0 0 1 5.946 4.92h-3.76a91.374 91.374 0 0 1 9.908 12.707 52.402 52.402 0 0 1 4 7.452 62.066 62.066 0 0 1 3.852 13.333c.627 0 1.254-.132 1.88-.225a53.71 53.71 0 0 0 19.348-7.082l-.908 3.602a90.243 90.243 0 0 0 4.094-2.802 96.681 96.681 0 0 0 15.52-14.092c2.241-2.546 3.4-4.186 3.4-4.186l2.561 3.906a49.901 49.901 0 0 1 4.667-8c1-1.393 2.077-2.728 3.226-4a38.245 38.245 0 0 1 4.452-4.266c.268-.214.548-.414.828-.614l.292-.173c.202-.135.387-.253.587-.36l.36-.187.6-.226.387-.174.56-.213.413-.133.56-.16.427-.107.588-.12.412-.067.641-.08h2.92a8.81 8.81 0 0 1 1.039.147h.226c.414.079.815.187 1.227.293l.307.094c.32.093.653.2.973.32l.293.106c.387.159.787.32 1.174.507l.226.119.948.506.307.175c.372.227.732.467 1.092.72l.093.067c.322.24.64.505.96.773l.267.227c.312.266.605.546.88.838l.107.095c.306.333.601.667.893 1.027l.215.266.666.92.16.24c.254.387.479.786.706 1.2l.146.279c.175.348.334.695.482 1.055l.145.333c.173.452.333.907.48 1.333l.068.24c.105.4.212.827.292 1.254l.08.4c.093.506.173 1.025.227 1.546.026.408.026.818 0 1.227a12.52 12.52 0 0 1-2.08 6.667 20.501 20.501 0 0 1-3.039 3.693c-6.015 5.892-15.401 9.053-15.401 9.053l3.853 1.16c-1.399.987-3.08 2.174-4.92 3.427l-2.6 1.8-1.412.96-4.788 3.32-3.599 2.44-1.773 1.2-5.828 3.88.867.253 2.988.906c-1.415.747-2.788 1.44-4.135 2.107l-.307.147a124.685 124.685 0 0 1-3.72 1.76l-.466.226c-1.174.52-2.307 1.027-3.414 1.494l-.518.214c-1.08.452-2.134.879-3.148 1.333l-.507.186c-1.012.387-1.985.747-2.947 1.08l-.425.16c-.961.333-1.881.64-2.773.92l-.307.107-2.667.786h-.134l-2.414.654h-.16l-2.158.507h-.255c-.653.146-1.333.267-1.852.373h-.28l-1.601.28h-.254l-1.333.186h-.199l-1.148.121h-2.426l.373.44c3.304.01 6.6.3 9.853.867 6.947-1.548 17.254-4.854 30.667-11.908l5.681-2.72-4.708-1.413c5.655-3.813 15.054-10.2 20.295-13.893l4.452-3.161-2.16-.652c6.92-3.6 16.455-10.427 15.535-20.387-.86-9.877-9.048-17.506-18.962-17.666a15.192 15.192 0 0 0-9.693 3.32 49.05 49.05 0 0 0-10.947 13.2l-.065-.107-2.107-3.24-2.268 3.187a87.136 87.136 0 0 1-16.493 16.318l.827-3.252-5.694 3.667a51.934 51.934 0 0 1-17.666 6.6 61.548 61.548 0 0 0-3.534-11.533 72.68 72.68 0 0 0-10.466-16.414h4.268l-4.548-4.546a45.905 45.905 0 0 0-7.72-6.162c.061.272.088.55.08.828l-.16 2.067M95.662 55.033l.533-.76-.533.76M99.915 45.22h3.707zM214.528 103.7l-2.667.786 2.667-.786M81.329 142.393v4-4M211.755 104.526l-2.414.653 2.414-.653M174.675 45.22h3.706-3.706"/>
  <path fill="#232a36" d="M192.435 78.78c.626 0 1.253-.135 1.881-.227-.628.092-1.255.174-1.881.227a61.972 61.972 0 0 1 0 0"/>
  <path fill="#1a1c21" d="M114.435 69.153a4.373 4.373 0 1 1 0 8.747 4.374 4.374 0 0 1 0-8.747M163.861 69.153a4.374 4.374 0 1 1 .002 8.748 4.374 4.374 0 0 1-.002-8.748M109.582 96.233c17.754 12.736 41.533 13.177 59.746 1.107l1.495-.987a2.563 2.563 0 0 0 .725-3.553 2.564 2.564 0 0 0-3.553-.727l-1.494.986c-16.466 10.933-37.972 10.56-54.053-.933a2.52 2.52 0 0 0-3.506.6 2.508 2.508 0 0 0 .617 3.491l.023.016"/>
  <path fill="#59a4df" d="m151.781 31.42-1.013-.215 1.013.215M111.022 34.179a67.452 67.452 0 0 1 7.093-3.026c1.693-7.733-1.107-11.826-1.107-11.826s2.8 4.093 1.107 11.826a77.754 77.754 0 0 1 7.774-2.32c.56-.133 1.133-.24 1.706-.36.927-1.04 2-1.938 3.187-2.666l1.64-22.134c-8.52 1.667-20.267 7.6-24.947 27l2.667 2.667.88.839M148.463 28.007c1.333.226 2.666.48 4 .8a69.172 69.172 0 0 1 17.16 6.56c-1.735-19.694-12.64-27.36-20.575-30.4l-1.64 22.093c.373.307.721.64 1.055.947M117.209 34.34a58.175 58.175 0 0 0-4 1.732 35.136 35.136 0 0 0 2.52 1.935 34.654 34.654 0 0 0 1.48-3.667M150.77 31.207a14.284 14.284 0 0 1 1.651 7.76c0 .493-.105.986-.185 1.465-.08.481 0 .868 0 1.335-.08.956-.25 1.902-.508 2.826a41.886 41.886 0 0 0 14.933-7.066l.522-.387a66.725 66.725 0 0 0-15.44-5.72l-.974-.213"/>
  <path fill="#59a4df" d="M123.822 39.633c0-.44.093-.868.173-1.333a14.05 14.05 0 0 1 0-1.48c.114-1.79.567-3.541 1.334-5.16a71.577 71.577 0 0 0-8.214 2.667 34.738 34.738 0 0 1-1.506 3.666 41.247 41.247 0 0 0 8.2 4.494c-.089-.95-.084-1.906.013-2.854"/>
  <path fill="#59a4df" d="M125.421 31.7a14.115 14.115 0 0 1 2.174-3.227c-.573.12-1.147.227-1.706.36a77.754 77.754 0 0 0-7.774 2.32 29.225 29.225 0 0 1-.906 3.187 71.559 71.559 0 0 1 8.212-2.64M151.781 31.42a66.657 66.657 0 0 1 15.44 5.72l2.348-1.747a69.162 69.162 0 0 0-17.161-6.56 59.769 59.769 0 0 0-4-.8 14.62 14.62 0 0 1 2.307 3.172l1.066.215"/>
  <path fill="#59a4df" d="M117.209 34.34c.362-1.044.664-2.108.906-3.187a67.452 67.452 0 0 0-7.093 3.026c.706.654 1.413 1.333 2.16 1.893a61.684 61.684 0 0 1 4.027-1.732"/>
  <g clip-path="url(#a)" transform="matrix(.133 0 0 -.133 0 220.76)">
    <path fill="url(#b)" d="M1042.37 1633.05s6.7 0 13.89-.8c7.21-.8 14-1.3 14-1.3 16.16-2.49 32.01-6.64 47.3-12.4v1.2c1.21 15.72-10.49 29.48-26.19 30.8l-67.41 5.1c-15.84 1.15-29.624-10.75-30.8-26.6v-.69c16.17 3.22 32.62 4.76 49.1 4.59l.11.1"/>
  </g>
  <path fill="#59a4df" d="M139.275 23.712c2.997.228 5.845 1.4 8.133 3.348l1.64-22.093a31.494 31.494 0 0 0-6.307-1.655s-.892-.119-1.865-.172c-.973-.053-1.855-.107-1.855-.107a31.83 31.83 0 0 0-6.546.612l-1.64 22.135a14.2 14.2 0 0 1 8.44-2.068"/>
  <g clip-path="url(#c)" transform="matrix(.133 0 0 -.133 0 220.76)">
    <path fill="url(#d)" d="M1044.56 1477.86c22.48-1.71 43.84-10.5 61-25.11l12.3 165.7a236.202 236.202 0 0 1-47.3 12.41s-6.69.89-13.99 1.29-13.91.8-13.91.8a238.72 238.72 0 0 1-49.097-4.59l-12.301-166.01a106.506 106.506 0 0 0 63.298 15.51"/>
  </g>
  <g clip-path="url(#e)" transform="matrix(.133 0 0 -.133 0 220.76)">
    <path fill="url(#f)" d="M803.762 1415.65c.703 3.3 1.5 6.5 2.301 10l-1.997 2.01c-11.457.86-21.441-7.73-22.3-19.19v-.02l-1.2-15.7a45.203 45.203 0 0 1 3.797-21.8 412.31 412.31 0 0 0 36.203 21.91 122 122 0 0 0-16.804 22.79"/>
  </g>
  <g clip-path="url(#g)" transform="matrix(.133 0 0 -.133 0 220.76)">
    <path fill="url(#h)" d="M835.164 1378.36"/>
  </g>
  <g clip-path="url(#i)" transform="matrix(.133 0 0 -.133 0 220.76)">
    <path fill="url(#j)" d="M1293.26 1353.45c-8.9 6.2-18.1 12-27.4 17.3 9.3-5.1 18.5-11.1 27.4-17.3"/>
  </g>
  <g clip-path="url(#k)" transform="matrix(.133 0 0 -.133 0 220.76)">
    <path fill="url(#l)" d="M1294.16 1376.86a20.88 20.88 0 0 1-18.7 16.19l-3.2-2.4v-.6c7.41-4.07 14.71-8.46 21.9-13.19"/>
  </g>
  <path fill="#fff" d="M150.968 46.567c-3.245 7.146-11.672 10.309-18.819 7.062a14.216 14.216 0 0 1-7.847-9.25 35.877 35.877 0 0 1-12.934-7.4 50.167 50.167 0 0 0-5.333 3.214l5.147 7.254a28.001 28.001 0 0 0 20.813 11.706l9.453.707a28.002 28.002 0 0 0 22.267-8.533l7.133-7.44a5.97 5.97 0 0 0 1.653-3.587 47.887 47.887 0 0 0-3.652-2.307c-1.934 2.346-6.908 6.947-17.881 8.574"/>
  <g clip-path="url(#m)" transform="matrix(.133 0 0 -.133 0 220.76)">
    <path fill="url(#n)" d="M1076.38 1206.18c-5.16 0-10.34.19-15.52.57l-70.895 5.3a210.01 210.01 0 0 0-156.102 87.8l-38.601 54.4a376.72 376.72 0 0 0 39.937 24.07 269.025 269.025 0 0 1 96.965-55.46c12.797-47.59 55.848-78.95 102.876-78.95h.53c40.37.17 78.91 23.38 96.69 62.54 58.1 8.61 93.97 28.34 114.83 45.39 8.77 7.1 15.01 13.74 19.28 18.91 9.29-5.3 18.5-11.1 27.39-17.3a44.774 44.774 0 0 0-12.4-26.9l-53.5-55.8a210.01 210.01 0 0 0-151.48-64.57"/>
  </g>
  <path fill="#232a36" d="M169.741 36.58c-.268.504-.589.977-.96 1.413 1.24.707 2.467 1.48 3.654 2.307v-.2l.161-2.093a3.455 3.455 0 0 0-.08-.828 53.13 53.13 0 0 0-2.92-1.759c.079.387.119.759.145 1.16"/>
  <g clip-path="url(#o)" transform="matrix(.133 0 0 -.133 0 220.76)">
    <path fill="url(#p)" d="M1273.06 1381.35a59.44 59.44 0 0 0-7.2-10.6c9.3-5.3 18.5-11.1 27.4-17.3v1.5l1.21 15.7c.05 2.09-.15 4.17-.6 6.21a398.47 398.47 0 0 1-21.9 13.19c.59-2.9.89-5.69 1.09-8.7"/>
  </g>
  <path fill="#232a36" d="M106.008 40.193a50.06 50.06 0 0 1 5.334-3.214 26.742 26.742 0 0 1-1.947-1.959 54.66 54.66 0 0 0-4.826 2.92c.164.384.37.75.613 1.093l.826 1.16"/>
  <g clip-path="url(#q)" transform="matrix(.133 0 0 -.133 0 220.76)">
    <path fill="url(#r)" d="M795.063 1354.25a375.455 375.455 0 0 0 40 24.11 200.565 200.565 0 0 0-14.602 14.69 409.95 409.95 0 0 1-36.195-21.9 44.358 44.358 0 0 1 4.601-8.2l6.196-8.7"/>
  </g>
  <path fill="#59a4df" d="M167.221 37.14"/>
  <g clip-path="url(#s)" transform="matrix(.133 0 0 -.133 0 220.76)">
    <path fill="url(#t)" d="M1254.16 1377.15c3.9-1.99 7.81-4.2 11.7-6.4-3.89 2.2-7.8 4.41-11.7 6.4"/>
  </g>
  <g clip-path="url(#u)" transform="matrix(.133 0 0 -.133 0 220.76)">
    <path fill="url(#v)" d="m848.867 1385.16-13.703-6.8z"/>
  </g>
  <path fill="#59a4df" d="M169.635 35.42v-.08.08"/>
  <g clip-path="url(#w)" transform="matrix(.133 0 0 -.133 0 220.76)">
    <path fill="url(#x)" d="M1272.26 1390.05v.6-.6"/>
  </g>
  <path fill="#59a4df" d="M109.409 35.02a48.72 48.72 0 0 1 1.613-.841l-.854-.839-2.666-2.667c-.107.44-.213.866-.307 1.334a16.359 16.359 0 0 0 2.214 3.013"/>
  <g clip-path="url(#y)" transform="matrix(.133 0 0 -.133 0 220.76)">
    <path fill="url(#z)" d="M820.566 1393.05c3.997 2.2 8.098 4.3 12.098 6.31l-6.402 6.29-20 20c-.801-3.3-1.594-6.49-2.297-10a122.692 122.692 0 0 1 16.601-22.6"/>
  </g>
  <path fill="#59a4df" d="M151.715 44.567a14.315 14.315 0 0 1-.747 2c10.973-1.627 16.001-6.228 17.813-8.574-.518-.293-1.038-.588-1.56-.853l-.52.387a41.901 41.901 0 0 1-14.986 7.04"/>
  <g clip-path="url(#A)" transform="matrix(.133 0 0 -.133 0 220.76)">
    <path fill="url(#B)" d="M1132.26 1306.45c2.24 4.86 4.11 9.87 5.6 15a314.26 314.26 0 0 1 112.4 52.8l3.9 2.9c3.91-1.99 7.81-4.2 11.7-6.4-4-5.17-10.08-11.81-18.77-18.91-20.86-17.05-56.73-36.78-114.83-45.39"/>
  </g>
  <path fill="#59a4df" d="M123.902 42.5a41.256 41.256 0 0 1-8.2-4.495l-.093.202.093-.202a34.618 34.618 0 0 1-2.52-1.933l-1.827.907a35.879 35.879 0 0 0 12.934 7.4 12.71 12.71 0 0 1-.387-1.879"/>
  <g clip-path="url(#C)" transform="matrix(.133 0 0 -.133 0 220.76)">
    <path fill="url(#D)" d="M932.164 1322.86a269.025 269.025 0 0 0-96.965 55.46c-.011.02-.023.02-.035.04l13.703 6.8c6.098-5.11 12.395-10 18.895-14.5a308.613 308.613 0 0 1 61.465-33.69c.011-.11.027-.21.039-.31l.043-.02a95.214 95.214 0 0 1 2.855-13.78"/>
  </g>
  <path fill="#59a4df" d="M168.781 37.993c.371-.436.692-.909.96-1.413 0-.401 0-.773-.106-1.16l-2.346 1.747c.452.238.974.533 1.492.826"/>
  <g clip-path="url(#E)" transform="matrix(.133 0 0 -.133 0 220.76)">
    <path fill="url(#F)" d="M1265.86 1370.75a59.44 59.44 0 0 1 7.2 10.6c0 3.01 0 5.8-.8 8.7l-17.59-13.1c3.39-1.79 7.3-4 11.19-6.2"/>
  </g>
  <path fill="#59a4df" d="M111.022 34.179a48.72 48.72 0 0 0-1.613.841c.614.685 1.264 1.34 1.946 1.959l1.827-.907a39.976 39.976 0 0 1-2.16-1.893"/>
  <g clip-path="url(#G)" transform="matrix(.133 0 0 -.133 0 220.76)">
    <path fill="url(#H)" d="M832.664 1399.36c-4-2.01-8.101-4.11-12.098-6.31 4.61-5.14 9.481-10.05 14.598-14.69l13.703 6.8c-5.601 4.49-10.906 9.29-16.203 14.2"/>
  </g>
  <path fill="#59a4df" d="M151.715 44.567c.258-.924.428-1.871.506-2.828v-1.332a13.988 13.988 0 0 1-1.56 4.413l1.054-.253"/>
  <g clip-path="url(#I)" transform="matrix(.133 0 0 -.133 0 220.76)">
    <path fill="#4792d6" d="M1129.96 1319.55h11.7v33.098h-11.7Z"/>
  </g>
  <path fill="#59a4df" d="M123.995 38.34c-.08.425-.134.853-.173 1.333-.067.956-.04 1.915.08 2.866l1 .401a14.364 14.364 0 0 1-.907-4.6"/>
  <path fill="#4792d6" d="m124.884 42.892-.982-.392.006.041-.006-.002a14.673 14.673 0 0 1-.08-2.866c.04-.48.093-.908.173-1.333.048 1.556.348 3.092.89 4.552"/>
  <path fill="#fff" d="M137.181 52.113a14.245 14.245 0 0 1-11.373-7.253c-.519-.148-1.026-.32-1.52-.481 2.04 7.581 9.837 12.074 17.417 10.034a14.213 14.213 0 0 0 9.251-7.846l-1.615.213a14.214 14.214 0 0 1-12.16 5.333"/>
  <g clip-path="url(#J)" transform="matrix(.133 0 0 -.133 0 220.76)">
    <path fill="url(#K)" d="M1036.62 1264.57c-2.58 0-5.16.09-7.76.28a106.838 106.838 0 0 1 0 0 106.598 106.598 0 0 1 91.2 40l12.11 1.6-12.11-1.6a106.598 106.598 0 0 0-83.44-40.28"/>
  </g>
  <g clip-path="url(#L)" transform="matrix(.133 0 0 -.133 0 220.76)">
    <path fill="url(#M)" d="M1035.04 1243.91c-47.028 0-90.079 31.36-102.876 78.95 3.699-1.21 7.504-2.5 11.399-3.61a106.838 106.838 0 0 1 85.297-54.4 106.598 106.598 0 0 1 91.2 40l12.11 1.6c-13.18-29-38.62-50.58-69.38-58.85-9.27-2.5-18.59-3.69-27.75-3.69"/>
  </g>
  <path fill="#59a4df" d="M150.661 44.82c-.388.69-.833 1.345-1.333 1.96l1.613-.213c.299-.648.55-1.316.747-2l-1.027.253"/>
  <g clip-path="url(#N)" transform="matrix(.133 0 0 -.133 0 220.76)">
    <path fill="url(#O)" d="M1119.96 1304.85c3.75 4.61 7.09 9.53 10 14.7l7.7 1.9-7.7-1.9a104.56 104.56 0 0 0-10-14.7"/>
  </g>
  <g clip-path="url(#P)" transform="matrix(.133 0 0 -.133 0 220.76)">
    <path fill="url(#Q)" d="M1119.96 1304.85c3.75 4.61 7.09 9.53 10 14.7l7.7 1.9c-1.48-5.13-3.36-10.14-5.6-15l-12.1-1.6"/>
  </g>
  <path fill="#59a4df" d="m124.902 42.9-1-.4c.081.635.21 1.263.387 1.879.493.161 1 .333 1.52.481-.35-.63-.653-1.285-.907-1.96"/>
  <g clip-path="url(#R)" transform="matrix(.133 0 0 -.133 0 220.76)">
    <path fill="url(#S)" d="M943.563 1319.25a110.16 110.16 0 0 0-6.797 14.7l-7.5 3 7.5-3a110.16 110.16 0 0 1 6.797-14.7"/>
  </g>
  <g clip-path="url(#T)" transform="matrix(.133 0 0 -.133 0 220.76)">
    <path fill="url(#U)" d="M943.563 1319.25c-3.895 1.11-7.7 2.4-11.399 3.61a95.324 95.324 0 0 0-2.898 14.09l7.5-3a110.16 110.16 0 0 1 6.797-14.7"/>
  </g>
  <path fill="#fff" d="M148.463 28.007a14.702 14.702 0 0 0-1.055-.974v.812l1.055.162M126.516 31.42l-1.095.28 1.095-.28M130.782 25.793a14.249 14.249 0 0 0-3.187 2.667c1-.213 2.013-.4 3.027-.547l.16-2.12M123.995 38.34c0-.173 0-.361.093-.547a14.229 14.229 0 0 0 1.333 5.334 41.49 41.49 0 0 0 9.92 2.213l2.334.253 2.346.094a41.497 41.497 0 0 0 10.054-.8 14.28 14.28 0 0 0 2.146-5.067v.559c.08-.479.147-.974.187-1.466a14.273 14.273 0 0 0-1.653-7.76 54.208 54.208 0 0 0-9.587-1.226 7.348 7.348 0 0 1 2.015 1.413l-10.815 10.813a7.64 7.64 0 0 1-.008-10.805l.008-.008a7.793 7.793 0 0 1 1.627-1.213c-2.523.24-5.027.653-7.493 1.24l-1.093.278a14.166 14.166 0 0 0-1.334 5.162c-.054.508-.081 1.02-.08 1.533"/>
  <path fill="#fff" d="M126.516 31.42c2.466-.587 4.97-1 7.492-1.241a7.647 7.647 0 0 1 7.175-.2c3.224.122 6.433.533 9.585 1.226a14.64 14.64 0 0 0-2.305-3.198l-1.108-.162-.134 1.748-16.64-1.226V27.9a45.565 45.565 0 0 0-3.026.547c-.87.969-1.6 2.056-2.173 3.226l1.134-.253"/>
  <path fill="#fff" d="M139.141 27.247c2.75.008 5.495.218 8.214.625v-.812a14.147 14.147 0 0 0-16.627-1.267l-.066 2.134a55.057 55.057 0 0 1 8.48-.68"/>
  <path fill="#fff" d="M130.662 27.927v.466l16.64 1.227.133-1.748a56.639 56.639 0 0 0-8.214-.625 55.258 55.258 0 0 0-8.559.68M137.915 47.02h-.932a56.435 56.435 0 0 1-10.321-1.933c4.449 6.449 13.285 8.069 19.734 3.62a14.103 14.103 0 0 0 2.159-1.835 66.548 66.548 0 0 1-10.64.148"/>
  <path fill="#fff" d="M136.983 46.953h.932c3.528.231 7.068.183 10.586-.146a12.89 12.89 0 0 0 1.574-1.935 41.498 41.498 0 0 1-10.054.801l-2.346-.093-2.334-.24a41.433 41.433 0 0 1-9.879-2.295c.341.714.743 1.396 1.2 2.042a56.358 56.358 0 0 0 10.32 1.866M124.088 37.793c0 .186 0 .374-.093.547.053 1.559.36 3.099.907 4.56l.56.2a14.21 14.21 0 0 1-1.374-5.307M150.075 44.94l.586-.12a14.012 14.012 0 0 0 1.575-4.387v-.561a14.31 14.31 0 0 1-2.161 5.068"/>
  <path fill="#fff" d="M137.248 51.179a14.117 14.117 0 0 1-10.666-6.092l-.8-.227c3.82 6.857 12.478 9.317 19.334 5.496a14.197 14.197 0 0 0 4.212-3.576l-.853.092a14.102 14.102 0 0 1-11.227 4.307"/>
  <path fill="#fff" d="m125.462 43.1-.56-.2c.253.675.556 1.33.906 1.96l.8.227c-.436-.63-.819-1.295-1.146-1.987M148.501 46.872l.854-.092c.5-.615.945-1.27 1.333-1.96l-.587.12a12.83 12.83 0 0 1-1.6 1.932"/>
  <path fill="#c6c5c3" d="M141.183 29.979c-.682 0-1.334-.066-2.042-.066-1.706 0-3.426.107-5.133.266a53.924 53.924 0 0 1 7.175-.2"/>
  <path fill="#c6c5c3" d="m132.382 42.205 10.813-10.812a7.369 7.369 0 0 0-2.012-1.414 54.15 54.15 0 0 0-7.175.2 7.883 7.883 0 0 0-1.626 1.214 7.64 7.64 0 0 0-.01 10.804l.01.008"/>
  <path fill="#c6c5c3" d="M141.183 29.979a7.647 7.647 0 0 0-7.175.2c1.707-.159 3.427-.266 5.133-.266.682 0 1.36.04 2.042.066"/>
  <g clip-path="url(#V)" transform="matrix(.133 0 0 -.133 0 220.76)">
    <g clip-path="url(#W)">
      <path fill="url(#X)" d="M813 0v1h-16v1h-16v1h-10v1h-9v1h-9v1h-9v1h-7v1h-7v1h-6v1h-7v1h-6v1h-6v1h-5v1h-6v1h-5v1h-4v1h-5v1h-5v1h-4v1h-3v1h-4v1h-4v1h-3v1h-4v1h-4v1h-2v1h-3v1h-3v1h-3v1h-3v1h-3v1h-3v1h-3v1h-2v1h-3v1h-2v1h-2v1h-3v1h-2v1h-2v1h-3v1h-2v1h-2v1h-2v1h-2v1h-2v1h-2v1h-2v1h-2v1h-2v1h-2v1h-2v1h-2v1h-2v1h-1v1h-2v1h-2v1h-1v1h-2v1h-2v1h-1v1h-2v1h-2v1h-1v1h-2v1h-1v1h-2v1h-1v1h-2v1h-1v1h-1v1h-2v1h-1v1h-2v1h-1v1h-1v1h-2v1h-1v1h-1v1h-2v1h-1v1h-1v1h-1v1h-1v1h-2v1h-1v1h-1v1h-1v1h-1v1h-2v1h-1v1h-1v1h-1v1h-1v1h-1v1h-1v1h-1v1h-1v1h-1v1h-1v1h-1v1h-1v1h-1v1h-1v1h-1v1h-1v1h-1v1h-1v1h-1v1h-1v2h-1v1h-1v1h-1v1h-1v2h-1v1h-1v1h-1v1h-1v2h-1v1h-1v1h-1v1h-1v2h-1v1h-1v2h-1v1h-1v2h-1v1h-1v2h-1v1h-1v2h-1v1h-1v2h-1v1h-1v2h-1v2h-1v2h-1v2h-1v2h-1v2h-1v2h-1v2h-1v2h-1v2h-1v2h-1v2h-1v3h-1v3h-1v2h-1v3h-1v2h-1v3h-1v3h-1v3h-1v4h-1v4h-1v4h-1v4h-1v4h-1v7h-1v6h-1v7h-1v14h-1v16h1v15h1v9h1v7h1v6h1v5h1v4h1v4h1v4h1v4h1v4h1v3h1v3h1v3h1v3h1v3h1v2h1v2h1v3h1v2h1v3h1v2h1v2h1v2h1v2h1v2h1v2h1v2h1v2h1v2h1v2h1v2h1v1h1v2h1v2h1v1h1v2h1v2h1v1h1v2h1v1h1v2h1v1h1v2h1v1h1v1h1v2h1v1h1v1h1v2h1v1h1v1h1v2h1v1h1v1h1v1h1v2h1v1h1v1h1v1h1v1h1v1h1v1h1v1h1v1h1v2h1v1h1v1h1v1h1v1h1v1h1v1h1v1h1v1h1v1h2v1h1v1h1v1h1v1h1v1h1v1h1v1h1v1h2v1h1v1h1v1h1v1h1v1h1v1h2v1h1v1h1v1h2v1h1v1h2v1h1v1h1v1h2v1h1v1h1v1h2v1h2v1h1v1h2v1h1v1h2v1h2v1h1v1h2v1h2v1h2v1h1v1h2v1h2v1h2v1h2v1h2v1h2v1h3v1h2v1h2v1h3v1h2v1h2v1h3v1h3v1h3v1h2v1h4v1h3v1h4v1h3v1h4v1h4v1h4v1h7v1h6v1h6v1h7v1h21v1h19v-1h11v-1h10v-1h5v-1h6v-1h6v-1h6v-1h5v1h1v2h1v2h1v2h1v2h1v1h1v2h1v2h1v2h1v2h1v1h1v2h1v2h1v1h1v2h1v1h1v2h1v2h1v1h1v2h1v1h1v2h1v1h1v2h1v1h1v1h1v2h1v1h1v1h1v2h1v1h1v1h1v2h1v1h1v1h1v1h1v2h1v1h1v1h1v2h1v1h1v1h1v1h1v1h1v1h1v1h1v2h1v1h1v1h1v1h1v1h1v1h1v1h1v1h1v1h1v2h1v1h1v1h1v1h1v1h1v1h1v1h1v1h2v1h1v1h1v1h1v1h1v1h1v1h1v1h1v1h1v1h1v1h1v1h1v1h1v1h1v1h2v1h1v1h1v1h1v1h2v1h1v1h1v1h1v1h2v1h1v1h1v1h1v1h2v1h1v1h1v1h1v1h2v1h1v1h2v1h1v1h2v1h1v1h2v1h1v1h2v1h1v1h2v1h1v1h2v1h1v1h2v1h2v1h1v1h2v1h2v1h2v1h1v1h2v1h2v1h2v1h1v1h2v1h2v1h2v1h2v1h2v1h3v1h2v1h2v1h2v1h2v1h2v1h2v1h3v1h2v1h3v1h3v1h2v1h3v1h3v1h2v1h3v1h3v1h3v1h4v1h3v1h4v1h3v1h4v1h4v1h4v1h5v1h6v1h5v1h5v1h8v1h8v1h9v1h27v1h3v-1h20v-1h11v-1h8v-1h7v-1h7v-1h5v-1h5v-1h5v-1h5v-1h3v-1h4v-1h4v-1h4v-1h4v-1h4v-1h1v2h1v1h1v1h1v2h1v1h1v1h1v2h1v1h1v1h1v2h1v1h1v1h1v2h1v1h1v1h1v2h1v1h1v1h1v1h1v2h1v1h1v1h1v1h1v1h1v2h1v1h1v1h1v1h1v1h1v1h1v1h1v2h1v1h1v1h1v1h1v1h1v1h1v1h1v1h1v1h1v1h1v1h1v1h1v1h1v1h1v1h1v1h1v1h1v1h1v1h1v1h1v2h1v1h1v1h1v1h2v1h1v1h1v1h1v1h1v1h1v1h1v1h1v1h1v1h2v1h1v1h1v1h1v1h1v1h1v1h1v1h2v1h1v1h1v1h1v1h2v1h1v1h1v1h1v1h2v1h1v1h1v1h1v1h2v1h1v1h1v1h2v1h1v1h2v1h1v1h1v1h2v1h1v1h1v1h2v1h1v1h2v1h1v1h2v1h1v1h2v1h2v1h1v1h2v1h1v1h2v1h1v1h2v1h2v1h2v1h1v1h2v1h2v1h2v1h1v1h2v1h2v1h2v1h2v1h2v1h2v1h2v1h2v1h2v1h2v1h2v1h2v1h2v1h2v1h2v1h3v1h2v1h2v1h2v1h3v1h2v1h3v1h2v1h3v1h3v1h2v1h3v1h3v1h2v1h4v1h3v1h3v1h3v1h4v1h3v1h3v1h4v1h4v1h4v1h4v1h5v1h5v1h5v1h5v1h6v1h7v1h7v1h8v1h10v1h16v1h33v-1h18v-1h9v-1h8v-1h7v-1h8v-1h6v-1h5v-1h5v-1h4v-1h5v-1h4v-1h5v-1h4v-1h3v-1h4v-1h3v-1h3v-1h4v-1h3v-1h3v-1h3v-1h4v-1h3v-1h2v-1h3v-1h2v-1h3v-1h2v-1h3v-1h2v-1h3v-1h2v-1h3v-1h2v-1h2v-1h3v-1h2v-1h2v-1h2v-1h2v-1h2v-1h2v-1h2v-1h2v-1h2v-1h2v-1h2v-1h2v-1h2v-1h1v-1h2v-1h2v-1h1v-1h2v-1h2v-1h1v-1h2v-1h2v-1h1v-1h2v-1h2v-1h1v-1h2v-1h2v-1h1v-1h2v-1h1v-1h2v-1h1v-1h2v-1h1v-1h1v-1h2v-1h1v-1h2v-1h1v-1h1v-1h2v-1h1v-1h1v-1h2v-1h1v-1h2v-1h1v-1h1v-1h2v-1h1v-1h1v-1h1v-1h1v-1h2v-1h1v-1h1v-1h1v-1h1v-1h1v-1h2v-1h1v-1h1v-1h1v-1h1v-1h2v-1h1v-1h1v-1h1v-1h1v-1h1v-1h1v-1h1v-1h1v-1h1v-1h1v-1h1v-1h1v-1h1v-1h1v-1h1v-1h1v-1h1v-1h1v-1h1v-1h1v-1h1v-1h1v-1h1v-1h1v-1h1v-1h1v-1h1v-1h1v-1h1v-1h1v-1h1v-1h1v-1h1v-2h1v-1h1v-1h1v-1h1v-1h1v-1h1v-2h1v-1h1v-1h1v-1h1v-1h1v-2h1v-1h1v-1h1v-1h1v-1h1v-2h1v-1h1v-1h1v-2h1v-1h1v-1h1v-2h1v-1h1v-2h1v-1h1v-1h1v-2h1v-1h1v-2h1v-1h1v-1h1v-2h1v-1h1v-2h1v-1h1v-1h1v-2h1v-2h1v-1h1v-2h1v-2h1v-2h1v-1h1v-2h1v-2h1v-1h1v-2h1v-2h1v-1h1v-2h1v-2h1v-1h1v-2h1v-2h1v-2h1v-2h1v-2h1v-2h1v-2h1v-2h1v-2h1v-3h1v-2h1v-2h1v-2h1v-2h1v-2h1v-2h1v-3h1v-2h1v-3h1v-2h1v-3h1v-3h1v-2h1v-3h1v-2h1v-3h1v-3h1v-2h1v-3h1v-3h1v-4h1v-3h1v-3h1v-4h1v-3h1v-3h1v-4h1v-4h1v-5h1v-4h1v-4h1v-4h1v-4h1v-3h9v1h43v-1h11v-1h6v-1h7v-1h6v-1h4v-1h5v-1h4v-1h4v-1h4v-1h3v-1h3v-1h3v-1h2v-1h3v-1h3v-1h3v-1h3v-1h2v-1h2v-1h2v-1h2v-1h2v-1h3v-1h2v-1h2v-1h2v-1h2v-1h2v-1h1v-1h2v-1h2v-1h2v-1h1v-1h2v-1h2v-1h1v-1h2v-1h2v-1h1v-1h2v-1h1v-1h1v-1h2v-1h1v-1h1v-1h2v-1h1v-1h2v-1h1v-1h1v-1h2v-1h1v-1h1v-1h1v-1h2v-1h1v-1h1v-1h1v-1h1v-1h1v-1h2v-1h1v-1h1v-1h1v-1h1v-1h1v-1h1v-1h1v-1h1v-1h1v-1h1v-1h1v-1h1v-1h1v-1h1v-1h1v-2h1v-1h1v-1h1v-1h1v-1h1v-1h1v-1h1v-1h1v-2h1v-1h1v-1h1v-2h1v-1h1v-1h1v-2h1v-1h1v-1h1v-2h1v-1h1v-1h1v-2h1v-1h1v-1h1v-2h1v-2h1v-1h1v-2h1v-2h1v-1h1v-2h1v-2h1v-1h1v-2h1v-2h1v-1h1v-2h1v-3h1v-2h1v-2h1v-2h1v-2h1v-2h1v-2h1v-2h1v-2h1v-3h1v-3h1v-3h1v-2h1v-3h1v-3h1v-3h1v-3h1v-4h1v-4h1v-4h1v-4h1v-4h1v-5h1v-7h1v-6h1v-8h1v-17h1v-9h-1v-20h-1v-8h-1v-7h-1v-7h-1v-4h-1v-5h-1v-4h-1v-4h-1v-4h-1v-3h-1v-3h-1v-3h-1v-3h-1v-3h-1v-3h-1v-3h-1v-2h-1v-3h-1v-2h-1v-2h-1v-2h-1v-3h-1v-2h-1v-2h-1v-2h-1v-2h-1v-2h-1v-2h-1v-2h-1v-1h-1v-2h-1v-2h-1v-1h-1v-2h-1v-2h-1v-2h-1v-1h-1v-2h-1v-1h-1v-2h-1v-1h-1v-2h-1v-1h-1v-1h-1v-2h-1v-1h-1v-2h-1v-1h-1v-1h-1v-2h-1v-1h-1v-1h-1v-2h-1v-1h-1v-1h-1v-1h-1v-1h-1v-1h-1v-2h-1v-1h-1v-1h-1v-1h-1v-1h-1v-1h-1v-1h-1v-1h-1v-1h-1v-1h-1v-1h-1v-2h-1v-1h-1v-1h-2v-1h-1v-1h-1v-1h-1v-1h-1v-1h-1v-1h-1v-1h-1v-1h-2v-1h-1v-1h-1v-1h-1v-1h-1v-1h-2v-1h-1v-1h-1v-1h-2v-1h-1v-1h-1v-1h-1v-1h-2v-1h-1v-1h-1v-1h-2v-1h-1v-1h-1v-1h-2v-1h-2v-1h-1v-1h-2v-1h-2v-1h-1v-1h-2v-1h-2v-1h-1v-1h-2v-1h-1v-1h-2v-1h-2v-1h-2v-1h-2v-1h-2v-1h-2v-1h-2v-1h-2v-1h-3v-1h-2v-1h-2v-1h-2v-1h-3v-1h-3v-1h-2v-1h-3v-1h-3v-1h-3v-1h-2v-1h-4v-1h-3v-1h-4v-1h-4v-1h-4v-1h-4v-1h-6v-1h-6v-1h-7v-1h-8v-1h-17v-1h-7v1h-22v1h-7v1h-8v1h-6v1h-5v1h-4v1h-4v1h-4v1h-5v1h-3v1h-3v1h-3v1h-3v1h-2v1h-3v1h-3v1h-3v1h-2v1h-2v1h-3v1h-2v1h-2v1h-2v1h-2v1h-3v1h-2v1h-1v1h-2v1h-2v1h-2v1h-1v1h-2v1h-2v1h-2v1h-1v1h-2v1h-2v1h-1v1h-2v1h-1v1h-2v1h-1v1h-1v1h-2v1h-1v1h-2v1h-1v1h-1v1h-2v1h-1v1h-2v1h-1v1h-1v1h-1v1h-1v1h-2v1h-1v1h-1v1h-1v1h-1v1h-1v1h-2v1h-1v1h-1v1h-1v1h-1v1h-1v1h-1v1h-1v1h-1v1h-1v1h-1v1h-1v1h-1v1h-1v1h-1v1h-1v1h-1v1h-1v1h-1v1h-1v1h-1v1h-1v1h-1v1h-2v-1h-1v-1h-2v-1h-1v-1h-2v-1h-1v-1h-1v-1h-2v-1h-1v-1h-2v-1h-1v-1h-2v-1h-1v-1h-1v-1h-2v-1h-1v-1h-2v-1h-1v-1h-2v-1h-1v-1h-2v-1h-2v-1h-1v-1h-2v-1h-1v-1h-2v-1h-2v-1h-1v-1h-2v-1h-2v-1h-1v-1h-2v-1h-2v-1h-2v-1h-2v-1h-2v-1h-2v-1h-1v-1h-2v-1h-2v-1h-2v-1h-2v-1h-2v-1h-2v-1h-2v-1h-2v-1h-2v-1h-3v-1h-2v-1h-2v-1h-2v-1h-3v-1h-2v-1h-2v-1h-2v-1h-3v-1h-2v-1h-3v-1h-3v-1h-3v-1h-2v-1h-3v-1h-3v-1h-3v-1h-2v-1h-3v-1h-4v-1h-3v-1h-4v-1h-4v-1h-3v-1h-4v-1h-3v-1h-4v-1h-5v-1h-5v-1h-5v-1h-5v-1h-4v-1h-7v-1h-7v-1h-8v-1h-7v-1h-14v-1h-17v-1h-5v1h-34v1h-12v1h-10v1h-6v1h-7v1h-6v1h-7v1h-4v1h-5v1h-4v1h-4v1h-5v1h-4v1h-4v1h-3v1h-3v1h-4v1h-3v1h-3v1h-3v1h-4v1h-3v1h-3v1h-2v1h-3v1h-2v1h-3v1h-2v1h-3v1h-3v1h-2v1h-3v1h-2v1h-2v1h-2v1h-3v1h-2v1h-2v1h-2v1h-2v1h-2v1h-2v1h-2v1h-2v1h-2v1h-2v1h-2v1h-2v1h-2v1h-2v1h-1v1h-2v1h-2v1h-2v1h-2v1h-1v1h-2v1h-2v1h-1v1h-2v1h-2v1h-1v1h-2v1h-1v1h-2v1h-2v1h-1v1h-2v1h-1v1h-2v1h-2v-1h-2v-1h-1v-1h-1v-1h-2v-1h-1v-1h-2v-1h-1v-1h-2v-1h-1v-1h-1v-1h-2v-1h-1v-1h-2v-1h-1v-1h-2v-1h-1v-1h-2v-1h-2v-1h-1v-1h-2v-1h-2v-1h-1v-1h-2v-1h-2v-1h-2v-1h-2v-1h-2v-1h-2v-1h-2v-1h-2v-1h-2v-1h-2v-1h-2v-1h-2v-1h-2v-1h-2v-1h-3v-1h-2v-1h-3v-1h-3v-1h-2v-1h-3v-1h-2v-1h-3v-1h-3v-1h-3v-1h-3v-1h-4v-1h-3v-1h-3v-1h-3v-1h-4v-1h-4v-1h-4v-1h-4v-1h-4v-1h-4v-1h-5v-1h-5v-1h-5v-1h-5v-1h-5v-1h-5v-1h-6v-1h-6v-1h-6v-1h-6v-1h-7v-1h-7v-1h-7v-1h-7v-1h-6v-1h-8v-1h-8V9h-8V8h-8V7h-9V6h-11V5h-11V4h-11V3h-12V2h-19V1h-19V0"/>
    </g>
  </g>
  <path fill="#fff" d="M81.489 153.34c-.894.292-1.76.625-2.667.987a34.13 34.13 0 0 1 2.667-.987M81.489 153.34v1z"/>
  <path fill="#fff" d="M81.529 154.327v-1c-.88.293-1.76.626-2.667.986 0 1.479.133 2.92.226 4.307.87-.419 1.76-.793 2.667-1.12-.133-1.028-.186-2.095-.226-3.173"/>
  <path fill="#fff" d="M81.529 154.327c0 1.078.093 2.145.16 3.173-.067-1.028-.12-2.095-.16-3.173"/>
</svg>
