<svg xmlns="http://www.w3.org/2000/svg" fill="none" viewBox="0 0 232 64"><path fill="#fff" d="M99.915 57c-4.448 0-8.063-1-10.844-3-2.78-2-4.47-4.811-5.071-8.433l8.208-1.267c.422 1.778 1.357 3.178 2.803 4.2 1.445 1.022 3.27 1.533 5.472 1.533 1.935 0 3.425-.377 4.47-1.133 1.068-.778 1.602-1.833 1.602-3.167 0-.822-.2-1.477-.601-1.966-.378-.511-1.223-1-2.535-1.467-1.313-.467-3.326-1.056-6.04-1.767-3.025-.8-5.427-1.655-7.206-2.566-1.78-.934-3.059-2.034-3.837-3.3-.779-1.267-1.168-2.8-1.168-4.6 0-2.245.59-4.2 1.768-5.867 1.18-1.667 2.825-2.944 4.938-3.833C93.987 19.456 96.48 19 99.348 19c2.803 0 5.283.433 7.441 1.3 2.179.867 3.937 2.1 5.271 3.7 1.335 1.6 2.158 3.478 2.469 5.633l-8.208 1.467c-.2-1.533-.9-2.744-2.102-3.633-1.178-.89-2.758-1.39-4.737-1.5-1.891-.111-3.415.177-4.572.866-1.156.667-1.734 1.611-1.734 2.834 0 .689.233 1.277.7 1.766.467.49 1.401.978 2.803 1.467 1.423.489 3.537 1.089 6.339 1.8 2.87.733 5.161 1.578 6.874 2.533 1.735.934 2.98 2.056 3.736 3.367.779 1.311 1.168 2.9 1.168 4.767 0 3.622-1.323 6.466-3.97 8.533-2.625 2.067-6.262 3.1-10.91 3.1ZM136.418 57c-3.715 0-6.884-.822-9.509-2.467-2.625-1.666-4.638-3.933-6.039-6.8-1.379-2.866-2.08-6.11-2.102-9.733.022-3.689.745-6.956 2.169-9.8 1.445-2.867 3.492-5.111 6.139-6.733 2.647-1.645 5.794-2.467 9.442-2.467 4.093 0 7.552 1.033 10.377 3.1 2.847 2.044 4.704 4.844 5.572 8.4l-8.008 2.167c-.623-1.934-1.657-3.434-3.103-4.5-1.446-1.09-3.092-1.634-4.938-1.634-2.091 0-3.815.5-5.172 1.5-1.356.978-2.357 2.334-3.002 4.067-.646 1.733-.968 3.7-.968 5.9 0 3.422.767 6.189 2.302 8.3 1.535 2.111 3.815 3.167 6.84 3.167 2.135 0 3.815-.49 5.038-1.467 1.246-.978 2.18-2.389 2.803-4.233l8.208 1.833c-1.112 3.667-3.059 6.489-5.839 8.467-2.781 1.955-6.184 2.933-10.21 2.933ZM167.308 57c-2.602 0-4.804-.489-6.606-1.467-1.802-1-3.17-2.322-4.104-3.966-.912-1.645-1.368-3.456-1.368-5.434 0-1.733.289-3.289.867-4.666a9.203 9.203 0 0 1 2.67-3.6c1.201-1.023 2.758-1.856 4.671-2.5 1.446-.467 3.136-.89 5.071-1.267 1.958-.378 4.071-.722 6.34-1.033 2.291-.334 4.682-.69 7.173-1.067l-2.869 1.633c.022-2.489-.534-4.322-1.668-5.5-1.135-1.177-3.048-1.766-5.739-1.766-1.624 0-3.192.377-4.705 1.133-1.512.756-2.569 2.056-3.169 3.9l-7.341-2.3c.89-3.044 2.58-5.489 5.072-7.333 2.513-1.845 5.894-2.767 10.143-2.767 3.203 0 6.017.522 8.441 1.567 2.447 1.044 4.26 2.755 5.439 5.133a10.955 10.955 0 0 1 1.168 3.9c.133 1.311.2 2.744.2 4.3V56h-7.04v-7.8l1.167 1.267c-1.623 2.6-3.525 4.51-5.705 5.733-2.158 1.2-4.86 1.8-8.108 1.8Zm1.602-6.4c1.824 0 3.381-.322 4.671-.967 1.29-.644 2.313-1.433 3.069-2.366.779-.934 1.302-1.811 1.569-2.634.422-1.022.656-2.189.7-3.5.067-1.333.1-2.41.1-3.233l2.469.733c-2.424.378-4.504.711-6.239 1-1.735.29-3.225.567-4.471.834a28.503 28.503 0 0 0-3.303.833c-.934.333-1.724.722-2.369 1.167-.645.444-1.145.955-1.501 1.533-.334.578-.501 1.256-.501 2.033 0 .89.223 1.678.667 2.367.445.667 1.09 1.2 1.936 1.6.867.4 1.935.6 3.203.6ZM195.013 56V7h8.041v49h-8.041ZM211.714 56V20h7.107v8.767l-.868-1.134a12.844 12.844 0 0 1 1.769-3.266 9.839 9.839 0 0 1 2.702-2.467c.89-.6 1.869-1.067 2.936-1.4a13.21 13.21 0 0 1 3.337-.633A13.582 13.582 0 0 1 232 20v7.5c-1.068-.311-2.302-.411-3.704-.3-1.379.111-2.624.5-3.736 1.167-1.113.6-2.025 1.366-2.736 2.3-.69.933-1.202 2-1.535 3.2-.334 1.177-.501 2.455-.501 3.833V56h-8.074Z"/><path fill="#B3DBF1" d="M0 14.714a6 6 0 0 1 4.185-5.72L30.688.587a6 6 0 0 1 3.685.017L59.87 8.968a6 6 0 0 1 4.13 5.7v2.663a6 6 0 0 1-4.13 5.701l-25.497 8.365a6 6 0 0 1-3.685.018l-26.503-8.41A6 6 0 0 1 0 17.286v-2.572Z"/><path fill="#D21212" d="M0 33.555c0-3.717 3.641-6.342 7.168-5.167l23.437 7.806a6 6 0 0 0 3.85-.02l22.35-7.696C60.329 27.264 64 29.882 64 33.61a5.428 5.428 0 0 1-3.713 5.15l-25.89 8.62a6 6 0 0 1-3.734.018L3.777 38.74A5.447 5.447 0 0 1 0 33.555Z"/><path fill="#fff" d="M0 49.555c0-3.717 3.641-6.342 7.168-5.167l23.437 7.806a6 6 0 0 0 3.85-.02l22.35-7.696C60.329 43.264 64 45.882 64 49.61a5.428 5.428 0 0 1-3.713 5.15l-25.89 8.62a6 6 0 0 1-3.734.018L3.777 54.74A5.447 5.447 0 0 1 0 49.555Z"/></svg>