<svg xmlns="http://www.w3.org/2000/svg" fill="none" viewBox="0 0 120 39">
  <path fill="#fff" d="M5.535 27.383c-2.363-.32-2.556-.755-2.556-1.25 0-.421.252-1.127 1.933-1.127 1.924 0 2.337.788 2.48 1.381l.026.107h2.497l-.014-.152c-.071-.758-.63-3.226-4.868-3.226-3.37 0-4.567 1.734-4.567 3.219 0 1.807 1.365 2.793 4.43 3.197 2.618.32 2.834.868 2.834 1.45 0 .856-.772 1.29-2.295 1.29-1.595 0-2.565-.555-2.884-1.65l-.029-.1H0l.026.16c.355 2.237 2.276 3.52 5.27 3.52 3.144 0 4.948-1.24 4.948-3.4 0-1.437-.57-2.846-4.71-3.419Zm13.059-4.267c-1.98 0-3.091.819-3.707 1.635-.007-.493-.024-.992-.058-1.233l-.018-.12h-2.478l.004.143c.02.843.02 1.708.02 2.552v12.274h2.533V32.81a4.102 4.102 0 0 0 3.361 1.391c3.005 0 5.272-2.456 5.272-5.713 0-3.063-2.12-5.372-4.929-5.372Zm2.335 5.472c0 1.606-.801 3.482-3.06 3.482-1.903 0-3.04-1.256-3.04-3.361 0-2.2 1.123-3.462 3.081-3.462 2.086 0 3.019 1.678 3.019 3.341Zm14.203 2.576v-4.327c0-2.469-1.624-3.721-4.828-3.721-4.06 0-4.714 2.383-4.808 3.407l-.013.153h2.519l.024-.11c.158-.736.479-1.52 2.298-1.52 2.052 0 2.315.99 2.315 1.852v.363h-2.255c-3.682 0-5.472 1.145-5.472 3.5 0 1.713 1.269 3.44 4.104 3.44 1.75 0 2.988-.467 3.686-1.39.01.336.044.67.102 1l.025.109h2.397l-.014-.152c-.02-.245-.08-1.52-.08-2.604Zm-7.727-.523c0-1.115.903-1.591 3.02-1.591 1.197 0 1.876 0 2.214.013v.23c0 1.936-1.05 2.918-3.12 2.918-1.343 0-2.114-.572-2.114-1.57Zm18.225-.18a2.702 2.702 0 0 1-2.75 1.69c-1.848 0-3.04-1.375-3.04-3.502 0-2.116 1.192-3.483 3.04-3.483a2.618 2.618 0 0 1 2.705 1.76l.035.092h2.493l-.026-.161c-.213-1.39-1.547-3.741-5.188-3.741a5.424 5.424 0 0 0-5.633 5.573c0 3.349 2.203 5.513 5.613 5.513 2.696 0 4.658-1.364 5.246-3.647l.045-.175h-2.503l-.037.081Zm9.4-7.345c-3.257 0-5.533 2.292-5.533 5.573 0 2.744 1.724 5.512 5.574 5.512 3.569 0 4.841-2.088 5.283-3.333l.066-.186h-2.535l-.04.072c-.544.98-1.374 1.417-2.694 1.417a2.991 2.991 0 0 1-3.109-2.84h8.46v-.703c0-2.542-1.433-5.512-5.472-5.512Zm-.02 1.97c2.242 0 2.778 1.475 2.886 2.457H52.09c.225-1.564 1.282-2.457 2.92-2.457Zm10.1-6.538h-2.534V33.92h2.534V18.548Zm4.145.041a1.287 1.287 0 1 0 0 2.573 1.287 1.287 0 0 0 0-2.573Zm1.287 4.809h-2.534v10.521h2.534V23.398Zm15.291 2.01v-2.01h-2.596v-3.22h-2.533v3.22h-3.986V22.37c0-1.451.357-1.893 1.53-1.893a4.1 4.1 0 0 1 .814.077l.172.04V18.54l-.104-.027a5.303 5.303 0 0 0-1.284-.126c-2.395 0-3.66 1.35-3.66 3.903v1.108h-1.873v2.01h1.872v8.512h2.533v-8.512h3.986v5.475c0 2.228.874 3.137 3.017 3.137a5.513 5.513 0 0 0 1.735-.208l.096-.032v-1.883l-.17.036c-.31.055-.623.08-.937.078-.926 0-1.208-.34-1.208-1.45v-5.153h2.596Zm27.643-7.373c-.424 3.214-1.717 5.132-3.547 5.26a4 4 0 0 1-3.211-1.567 11.932 11.932 0 0 0 4.964-8.22A88.588 88.588 0 0 1 89.16 17.15a11.9 11.9 0 0 0 3.899 4.581 17.997 17.997 0 0 0-4.424 12.19h3.085a15.076 15.076 0 0 1 3.208-9.618 89.93 89.93 0 0 0-.869 9.618h5.477s-1.004-4.154.631-4.157c1.636.003.631 4.157.631 4.157h5.477a88.078 88.078 0 0 0-.796-9.089 7.28 7.28 0 0 0 2.027 1.155 6.351 6.351 0 0 0 2.64.388 5.91 5.91 0 0 0 4.169-2.2c1.152-1.376 1.899-3.306 2.22-5.736l-3.059-.403Z"/>
  <path fill="url(#a)" d="M100.699 17.063c10.88-1.77 19.35-5.355 18.918-8.007-.431-2.652-9.601-3.367-20.48-1.597-10.88 1.77-19.351 5.355-18.92 8.007.432 2.652 9.602 3.367 20.482 1.597Z"/>
  <path fill="#fff" d="M110.605 6.844a11.899 11.899 0 0 0-20.841-1.091 11.9 11.9 0 0 0-1.63 8.143c.575 3.55 24.098-.08 23.496-3.799a11.878 11.878 0 0 0-1.025-3.253Z"/>
  <defs>
    <linearGradient id="a" x1="80.202" x2="119.633" y1="12.261" y2="12.261" gradientUnits="userSpaceOnUse">
      <stop offset=".082" stop-color="#82FFE8"/>
      <stop offset=".951" stop-color="#7C47FC"/>
    </linearGradient>
  </defs>
</svg>
