<svg xmlns="http://www.w3.org/2000/svg" fill="none" viewBox="0 0 121 39"><path fill="#131417" d="M5.535 27.384c-2.362-.32-2.555-.756-2.555-1.25 0-.422.251-1.128 1.933-1.128 1.923 0 2.337.789 2.48 1.382l.026.107h2.497l-.015-.153c-.07-.757-.63-3.226-4.867-3.226-3.371 0-4.568 1.734-4.568 3.22 0 1.806 1.366 2.793 4.43 3.197 2.618.319 2.835.868 2.835 1.45 0 .855-.772 1.29-2.296 1.29-1.594 0-2.564-.556-2.883-1.65l-.03-.101H0l.026.161c.355 2.237 2.276 3.519 5.27 3.519 3.144 0 4.948-1.24 4.948-3.4 0-1.437-.57-2.846-4.709-3.418ZM18.595 23.116c-1.98 0-3.091.82-3.708 1.636-.006-.494-.024-.993-.058-1.234l-.017-.12h-2.478l.003.143c.02.844.02 1.708.02 2.553v12.273h2.534v-5.556a4.101 4.101 0 0 0 3.361 1.39c3.005 0 5.272-2.456 5.272-5.713 0-3.062-2.12-5.372-4.93-5.372Zm2.335 5.473c0 1.606-.802 3.482-3.06 3.482-1.903 0-3.04-1.257-3.04-3.362 0-2.2 1.123-3.462 3.08-3.462 2.087 0 3.02 1.679 3.02 3.342ZM35.133 31.164v-4.326c0-2.47-1.625-3.722-4.829-3.722-4.06 0-4.714 2.383-4.807 3.408l-.014.152h2.52l.023-.11c.159-.736.48-1.52 2.299-1.52 2.052 0 2.314.99 2.314 1.852v.364h-2.254c-3.682 0-5.472 1.145-5.472 3.5 0 1.712 1.268 3.44 4.104 3.44 1.75 0 2.988-.467 3.686-1.39.01.336.043.67.101 1l.026.108h2.396l-.013-.152a45.98 45.98 0 0 1-.08-2.604Zm-7.727-.523c0-1.115.903-1.59 3.02-1.59 1.196 0 1.875 0 2.213.012v.23c0 1.937-1.05 2.918-3.12 2.918-1.343 0-2.113-.572-2.113-1.57ZM45.63 30.46a2.703 2.703 0 0 1-2.75 1.69c-1.847 0-3.04-1.374-3.04-3.502 0-2.115 1.193-3.482 3.04-3.482a2.617 2.617 0 0 1 2.706 1.76l.034.091h2.493l-.025-.16c-.214-1.39-1.548-3.742-5.189-3.742a5.426 5.426 0 0 0-5.633 5.573c0 3.349 2.204 5.513 5.614 5.513 2.696 0 4.657-1.364 5.245-3.647l.046-.174h-2.503l-.038.08ZM55.031 23.116c-3.258 0-5.533 2.292-5.533 5.573 0 2.744 1.723 5.513 5.573 5.513 3.57 0 4.842-2.089 5.284-3.333l.066-.187h-2.535l-.04.072c-.544.98-1.375 1.418-2.694 1.418a2.99 2.99 0 0 1-3.109-2.84h8.46v-.703c0-2.543-1.433-5.513-5.472-5.513Zm-.02 1.97c2.242 0 2.778 1.475 2.886 2.457H52.09c.225-1.564 1.282-2.456 2.92-2.456ZM65.11 18.548h-2.534v15.371h2.534V18.548ZM69.256 18.589a1.286 1.286 0 1 0 0 2.573 1.286 1.286 0 0 0 0-2.573ZM70.542 23.398h-2.534v10.521h2.534V23.398ZM85.833 25.408v-2.01h-2.595v-3.22h-2.534v3.22h-3.986V22.37c0-1.451.358-1.893 1.531-1.893a4.1 4.1 0 0 1 .814.077l.171.04V18.54l-.103-.027a5.302 5.302 0 0 0-1.284-.126c-2.395 0-3.661 1.35-3.661 3.903v1.108h-1.873v2.01h1.873v8.512h2.532v-8.512h3.986v5.475c0 2.228.874 3.137 3.018 3.137a5.512 5.512 0 0 0 1.735-.208l.095-.032v-1.883l-.17.036c-.309.055-.622.08-.937.078-.926 0-1.208-.34-1.208-1.45v-5.153h2.596ZM113.477 18.035c-.424 3.215-1.717 5.132-3.547 5.261a4.008 4.008 0 0 1-3.212-1.567 11.92 11.92 0 0 0 4.965-8.22A88.592 88.592 0 0 1 89.16 17.15a11.9 11.9 0 0 0 3.9 4.581 17.997 17.997 0 0 0-4.424 12.19h3.085a15.075 15.075 0 0 1 3.208-9.618 89.904 89.904 0 0 0-.87 9.617h5.478s-1.005-4.153.631-4.156c1.635.003.631 4.156.631 4.156h5.477a88.076 88.076 0 0 0-.796-9.088c.609.491 1.294.88 2.027 1.155a6.347 6.347 0 0 0 2.64.387 5.899 5.899 0 0 0 4.169-2.199c1.152-1.376 1.899-3.306 2.219-5.736l-3.058-.404Z"/><path fill="url(#a)" d="M100.699 17.062c10.88-1.77 19.35-5.354 18.919-8.006-.432-2.652-9.601-3.367-20.481-1.597s-19.35 5.355-18.919 8.007c.431 2.652 9.601 3.366 20.481 1.596Z"/><path fill="#131417" d="M110.605 6.844a11.901 11.901 0 0 0-22.47 7.052c.574 3.55 24.097-.08 23.496-3.798a11.88 11.88 0 0 0-1.026-3.254Z"/><defs><linearGradient id="a" x1="80.202" x2="119.634" y1="12.261" y2="12.261" gradientUnits="userSpaceOnUse"><stop offset=".082" stop-color="#82FFE8"/><stop offset=".951" stop-color="#7C47FC"/></linearGradient></defs></svg>
