<svg xmlns="http://www.w3.org/2000/svg" width="253" height="99" viewBox="0 0 253 99" fill="none">
  <path fill-rule="evenodd" clip-rule="evenodd" d="M14.8318 0.75L10.8289 3.48146L55.7364 32.5711L46.8955 38.6547L8.27925 13.6639L5.21106 11.7963L5.14259 11.9021V11.7546L0.673828 9.03455V28.8463L16.4971 39.7984V88.3399L18.2122 89.4863L27.2716 95.5639L32.4529 98.8626V91.5861L32.4514 91.5859V74.9222L38.6596 79.0198V94.428L43.1284 91.372V81.9693L46.8857 84.4493L60.3123 75.0804V55.3746L60.3193 55.3641L60.3123 55.3593V55.3485L60.3043 55.354L55.7788 52.3175L60.3123 49.1542V32.8836L60.317 32.8763V30.2512L58.7565 29.2424L58.7945 29.2277L14.8318 0.75ZM27.9827 66.6182V90.6421L20.9659 85.9518V37.5423H20.9494L20.9948 37.4767L5.14259 26.5046V16.9569L46.9716 44.0268L55.8435 37.9219V46.8232L51.7977 49.6463L51.768 49.6264L51.7167 49.7029L46.8148 53.1234L28.5596 41.096V56.4615H28.562V57.9683L46.9677 69.9557L55.8435 63.8481V72.7495L46.8159 79.0488L27.9827 66.6182ZM46.8868 58.5223L51.8472 55.061L56.3447 58.0787L46.8994 64.5782L33.0307 55.5458V49.3933L46.8868 58.5223Z" fill="#933EFF"/>
  <mask id="path-2-outside-1_193_3210" maskUnits="userSpaceOnUse" x="78.2834" y="33.71" width="174" height="46" fill="black">
    <rect fill="white" x="78.2834" y="33.71" width="174" height="46"/>
    <path d="M95.4356 66.8843C92.4826 66.8843 89.7682 66.1982 87.2924 64.8259C84.8465 63.4536 82.8927 61.5443 81.4311 59.0981C79.9993 56.622 79.2834 53.8475 79.2834 50.7748C79.2834 47.702 79.9993 44.9425 81.4311 42.4962C82.8927 40.05 84.8465 38.1407 87.2924 36.7684C89.7682 35.3961 92.4826 34.71 95.4356 34.71C98.3886 34.71 101.088 35.3961 103.534 36.7684C106.01 38.1407 107.949 40.05 109.351 42.4962C110.782 44.9425 111.498 47.702 111.498 50.7748C111.498 53.8475 110.782 56.622 109.351 59.0981C107.919 61.5443 105.98 63.4536 103.534 64.8259C101.088 66.1982 98.3886 66.8843 95.4356 66.8843ZM95.4356 59.9035C97.9412 59.9035 99.9397 59.0682 101.431 57.3976C102.952 55.727 103.713 53.5194 103.713 50.7748C103.713 48.0004 102.952 45.7927 101.431 44.152C99.9397 42.4813 97.9412 41.646 95.4356 41.646C92.9002 41.646 90.8718 42.4664 89.3506 44.1072C87.8592 45.748 87.1134 47.9705 87.1134 50.7748C87.1134 53.5492 87.8592 55.7717 89.3506 57.4424C90.8718 59.0831 92.9002 59.9035 95.4356 59.9035Z"/>
    <path d="M123.406 45.1364C124.152 43.973 125.181 43.0332 126.493 42.3173C127.806 41.6013 129.342 41.2433 131.102 41.2433C133.16 41.2433 135.024 41.7654 136.694 42.8095C138.365 43.8536 139.677 45.3453 140.632 47.2844C141.616 49.2235 142.108 51.4758 142.108 54.0414C142.108 56.607 141.616 58.8743 140.632 60.8433C139.677 62.7824 138.365 64.2889 136.694 65.3629C135.024 66.407 133.16 66.9291 131.102 66.9291C129.372 66.9291 127.835 66.5711 126.493 65.8551C125.181 65.1391 124.152 64.2143 123.406 63.0807V78.4743H115.755V41.6013H123.406V45.1364ZM134.323 54.0414C134.323 52.1322 133.786 50.6405 132.712 49.5666C131.668 48.4628 130.371 47.9109 128.82 47.9109C127.298 47.9109 126.001 48.4628 124.927 49.5666C123.883 50.6704 123.361 52.1769 123.361 54.0862C123.361 55.9955 123.883 57.502 124.927 58.6058C126.001 59.7096 127.298 60.2615 128.82 60.2615C130.341 60.2615 131.638 59.7096 132.712 58.6058C133.786 57.4722 134.323 55.9507 134.323 54.0414Z"/>
    <path d="M170.715 53.6834C170.715 54.3994 170.671 55.1452 170.581 55.9209H153.266C153.385 57.4722 153.877 58.6655 154.742 59.5008C155.637 60.3063 156.726 60.709 158.008 60.709C159.917 60.709 161.245 59.9035 161.991 58.2926H170.134C169.716 59.9334 168.956 61.4101 167.852 62.7227C166.778 64.0353 165.421 65.0646 163.78 65.8104C162.14 66.5562 160.305 66.9291 158.277 66.9291C155.831 66.9291 153.654 66.407 151.744 65.3629C149.835 64.3188 148.344 62.8271 147.27 60.888C146.196 58.9489 145.659 56.6816 145.659 54.0862C145.659 51.4908 146.181 49.2235 147.225 47.2844C148.299 45.3453 149.791 43.8536 151.7 42.8095C153.609 41.7654 155.801 41.2433 158.277 41.2433C160.693 41.2433 162.841 41.7504 164.72 42.7647C166.599 43.779 168.061 45.2259 169.105 47.1054C170.179 48.9848 170.715 51.1775 170.715 53.6834ZM162.885 51.6698C162.885 50.3571 162.438 49.313 161.543 48.5373C160.648 47.7617 159.53 47.3739 158.187 47.3739C156.905 47.3739 155.816 47.7468 154.921 48.4926C154.056 49.2384 153.519 50.2975 153.31 51.6698H162.885Z"/>
    <path d="M189.964 41.3328C192.887 41.3328 195.214 42.2874 196.944 44.1967C198.704 46.0762 199.584 48.6716 199.584 51.983V66.5711H191.978V53.0122C191.978 51.3416 191.545 50.0439 190.68 49.1191C189.815 48.1943 188.652 47.7319 187.19 47.7319C185.729 47.7319 184.565 48.1943 183.7 49.1191C182.835 50.0439 182.403 51.3416 182.403 53.0122V66.5711H174.752V41.6013H182.403V44.9127C183.178 43.8089 184.222 42.9437 185.535 42.3173C186.847 41.6609 188.324 41.3328 189.964 41.3328Z"/>
    <path d="M227.496 35.1574V41.288H219.174V66.5711H211.523V41.288H203.2V35.1574H227.496Z"/>
    <path d="M251.783 35.1574V41.288H238.987V47.9109H248.562V53.8624H238.987V66.5711H231.336V35.1574H251.783Z"/>
  </mask>
  <path d="M95.4356 66.8843C92.4826 66.8843 89.7682 66.1982 87.2924 64.8259C84.8465 63.4536 82.8927 61.5443 81.4311 59.0981C79.9993 56.622 79.2834 53.8475 79.2834 50.7748C79.2834 47.702 79.9993 44.9425 81.4311 42.4962C82.8927 40.05 84.8465 38.1407 87.2924 36.7684C89.7682 35.3961 92.4826 34.71 95.4356 34.71C98.3886 34.71 101.088 35.3961 103.534 36.7684C106.01 38.1407 107.949 40.05 109.351 42.4962C110.782 44.9425 111.498 47.702 111.498 50.7748C111.498 53.8475 110.782 56.622 109.351 59.0981C107.919 61.5443 105.98 63.4536 103.534 64.8259C101.088 66.1982 98.3886 66.8843 95.4356 66.8843ZM95.4356 59.9035C97.9412 59.9035 99.9397 59.0682 101.431 57.3976C102.952 55.727 103.713 53.5194 103.713 50.7748C103.713 48.0004 102.952 45.7927 101.431 44.152C99.9397 42.4813 97.9412 41.646 95.4356 41.646C92.9002 41.646 90.8718 42.4664 89.3506 44.1072C87.8592 45.748 87.1134 47.9705 87.1134 50.7748C87.1134 53.5492 87.8592 55.7717 89.3506 57.4424C90.8718 59.0831 92.9002 59.9035 95.4356 59.9035Z" fill="white"/>
  <path d="M123.406 45.1364C124.152 43.973 125.181 43.0332 126.493 42.3173C127.806 41.6013 129.342 41.2433 131.102 41.2433C133.16 41.2433 135.024 41.7654 136.694 42.8095C138.365 43.8536 139.677 45.3453 140.632 47.2844C141.616 49.2235 142.108 51.4758 142.108 54.0414C142.108 56.607 141.616 58.8743 140.632 60.8433C139.677 62.7824 138.365 64.2889 136.694 65.3629C135.024 66.407 133.16 66.9291 131.102 66.9291C129.372 66.9291 127.835 66.5711 126.493 65.8551C125.181 65.1391 124.152 64.2143 123.406 63.0807V78.4743H115.755V41.6013H123.406V45.1364ZM134.323 54.0414C134.323 52.1322 133.786 50.6405 132.712 49.5666C131.668 48.4628 130.371 47.9109 128.82 47.9109C127.298 47.9109 126.001 48.4628 124.927 49.5666C123.883 50.6704 123.361 52.1769 123.361 54.0862C123.361 55.9955 123.883 57.502 124.927 58.6058C126.001 59.7096 127.298 60.2615 128.82 60.2615C130.341 60.2615 131.638 59.7096 132.712 58.6058C133.786 57.4722 134.323 55.9507 134.323 54.0414Z" fill="white"/>
  <path d="M170.715 53.6834C170.715 54.3994 170.671 55.1452 170.581 55.9209H153.266C153.385 57.4722 153.877 58.6655 154.742 59.5008C155.637 60.3063 156.726 60.709 158.008 60.709C159.917 60.709 161.245 59.9035 161.991 58.2926H170.134C169.716 59.9334 168.956 61.4101 167.852 62.7227C166.778 64.0353 165.421 65.0646 163.78 65.8104C162.14 66.5562 160.305 66.9291 158.277 66.9291C155.831 66.9291 153.654 66.407 151.744 65.3629C149.835 64.3188 148.344 62.8271 147.27 60.888C146.196 58.9489 145.659 56.6816 145.659 54.0862C145.659 51.4908 146.181 49.2235 147.225 47.2844C148.299 45.3453 149.791 43.8536 151.7 42.8095C153.609 41.7654 155.801 41.2433 158.277 41.2433C160.693 41.2433 162.841 41.7504 164.72 42.7647C166.599 43.779 168.061 45.2259 169.105 47.1054C170.179 48.9848 170.715 51.1775 170.715 53.6834ZM162.885 51.6698C162.885 50.3571 162.438 49.313 161.543 48.5373C160.648 47.7617 159.53 47.3739 158.187 47.3739C156.905 47.3739 155.816 47.7468 154.921 48.4926C154.056 49.2384 153.519 50.2975 153.31 51.6698H162.885Z" fill="white"/>
  <path d="M189.964 41.3328C192.887 41.3328 195.214 42.2874 196.944 44.1967C198.704 46.0762 199.584 48.6716 199.584 51.983V66.5711H191.978V53.0122C191.978 51.3416 191.545 50.0439 190.68 49.1191C189.815 48.1943 188.652 47.7319 187.19 47.7319C185.729 47.7319 184.565 48.1943 183.7 49.1191C182.835 50.0439 182.403 51.3416 182.403 53.0122V66.5711H174.752V41.6013H182.403V44.9127C183.178 43.8089 184.222 42.9437 185.535 42.3173C186.847 41.6609 188.324 41.3328 189.964 41.3328Z" fill="white"/>
  <path d="M227.496 35.1574V41.288H219.174V66.5711H211.523V41.288H203.2V35.1574H227.496Z" fill="white"/>
  <path d="M251.783 35.1574V41.288H238.987V47.9109H248.562V53.8624H238.987V66.5711H231.336V35.1574H251.783Z" fill="white"/>
  <path d="M95.4356 66.8843C92.4826 66.8843 89.7682 66.1982 87.2924 64.8259C84.8465 63.4536 82.8927 61.5443 81.4311 59.0981C79.9993 56.622 79.2834 53.8475 79.2834 50.7748C79.2834 47.702 79.9993 44.9425 81.4311 42.4962C82.8927 40.05 84.8465 38.1407 87.2924 36.7684C89.7682 35.3961 92.4826 34.71 95.4356 34.71C98.3886 34.71 101.088 35.3961 103.534 36.7684C106.01 38.1407 107.949 40.05 109.351 42.4962C110.782 44.9425 111.498 47.702 111.498 50.7748C111.498 53.8475 110.782 56.622 109.351 59.0981C107.919 61.5443 105.98 63.4536 103.534 64.8259C101.088 66.1982 98.3886 66.8843 95.4356 66.8843ZM95.4356 59.9035C97.9412 59.9035 99.9397 59.0682 101.431 57.3976C102.952 55.727 103.713 53.5194 103.713 50.7748C103.713 48.0004 102.952 45.7927 101.431 44.152C99.9397 42.4813 97.9412 41.646 95.4356 41.646C92.9002 41.646 90.8718 42.4664 89.3506 44.1072C87.8592 45.748 87.1134 47.9705 87.1134 50.7748C87.1134 53.5492 87.8592 55.7717 89.3506 57.4424C90.8718 59.0831 92.9002 59.9035 95.4356 59.9035Z" stroke="white" stroke-width="0.568368" mask="url(#path-2-outside-1_193_3210)"/>
  <path d="M123.406 45.1364C124.152 43.973 125.181 43.0332 126.493 42.3173C127.806 41.6013 129.342 41.2433 131.102 41.2433C133.16 41.2433 135.024 41.7654 136.694 42.8095C138.365 43.8536 139.677 45.3453 140.632 47.2844C141.616 49.2235 142.108 51.4758 142.108 54.0414C142.108 56.607 141.616 58.8743 140.632 60.8433C139.677 62.7824 138.365 64.2889 136.694 65.3629C135.024 66.407 133.16 66.9291 131.102 66.9291C129.372 66.9291 127.835 66.5711 126.493 65.8551C125.181 65.1391 124.152 64.2143 123.406 63.0807V78.4743H115.755V41.6013H123.406V45.1364ZM134.323 54.0414C134.323 52.1322 133.786 50.6405 132.712 49.5666C131.668 48.4628 130.371 47.9109 128.82 47.9109C127.298 47.9109 126.001 48.4628 124.927 49.5666C123.883 50.6704 123.361 52.1769 123.361 54.0862C123.361 55.9955 123.883 57.502 124.927 58.6058C126.001 59.7096 127.298 60.2615 128.82 60.2615C130.341 60.2615 131.638 59.7096 132.712 58.6058C133.786 57.4722 134.323 55.9507 134.323 54.0414Z" stroke="white" stroke-width="0.568368" mask="url(#path-2-outside-1_193_3210)"/>
  <path d="M170.715 53.6834C170.715 54.3994 170.671 55.1452 170.581 55.9209H153.266C153.385 57.4722 153.877 58.6655 154.742 59.5008C155.637 60.3063 156.726 60.709 158.008 60.709C159.917 60.709 161.245 59.9035 161.991 58.2926H170.134C169.716 59.9334 168.956 61.4101 167.852 62.7227C166.778 64.0353 165.421 65.0646 163.78 65.8104C162.14 66.5562 160.305 66.9291 158.277 66.9291C155.831 66.9291 153.654 66.407 151.744 65.3629C149.835 64.3188 148.344 62.8271 147.27 60.888C146.196 58.9489 145.659 56.6816 145.659 54.0862C145.659 51.4908 146.181 49.2235 147.225 47.2844C148.299 45.3453 149.791 43.8536 151.7 42.8095C153.609 41.7654 155.801 41.2433 158.277 41.2433C160.693 41.2433 162.841 41.7504 164.72 42.7647C166.599 43.779 168.061 45.2259 169.105 47.1054C170.179 48.9848 170.715 51.1775 170.715 53.6834ZM162.885 51.6698C162.885 50.3571 162.438 49.313 161.543 48.5373C160.648 47.7617 159.53 47.3739 158.187 47.3739C156.905 47.3739 155.816 47.7468 154.921 48.4926C154.056 49.2384 153.519 50.2975 153.31 51.6698H162.885Z" stroke="white" stroke-width="0.568368" mask="url(#path-2-outside-1_193_3210)"/>
  <path d="M189.964 41.3328C192.887 41.3328 195.214 42.2874 196.944 44.1967C198.704 46.0762 199.584 48.6716 199.584 51.983V66.5711H191.978V53.0122C191.978 51.3416 191.545 50.0439 190.68 49.1191C189.815 48.1943 188.652 47.7319 187.19 47.7319C185.729 47.7319 184.565 48.1943 183.7 49.1191C182.835 50.0439 182.403 51.3416 182.403 53.0122V66.5711H174.752V41.6013H182.403V44.9127C183.178 43.8089 184.222 42.9437 185.535 42.3173C186.847 41.6609 188.324 41.3328 189.964 41.3328Z" stroke="white" stroke-width="0.568368" mask="url(#path-2-outside-1_193_3210)"/>
  <path d="M227.496 35.1574V41.288H219.174V66.5711H211.523V41.288H203.2V35.1574H227.496Z" stroke="white" stroke-width="0.568368" mask="url(#path-2-outside-1_193_3210)"/>
  <path d="M251.783 35.1574V41.288H238.987V47.9109H248.562V53.8624H238.987V66.5711H231.336V35.1574H251.783Z" stroke="white" stroke-width="0.568368" mask="url(#path-2-outside-1_193_3210)"/>
</svg>