<svg xmlns="http://www.w3.org/2000/svg" fill="none" viewBox="0 0 120 39"><path fill="#fff" d="M6.648 27.255c-1.236 0-2.362-.264-3.376-.792-1-.528-1.8-1.306-2.397-2.334C.292 23.087 0 21.809 0 20.294c0-1.5.299-2.779.896-3.835.611-1.07 1.417-1.883 2.418-2.438 1-.57 2.105-.855 3.314-.855.986 0 1.834.18 2.542.542.709.361 1.286.771 1.73 1.23l-1.605 1.959a5.86 5.86 0 0 0-1.104-.771c-.39-.209-.876-.313-1.46-.313-1.055 0-1.917.39-2.584 1.167-.667.778-1 1.848-1 3.21 0 1.39.32 2.473.959 3.251s1.59 1.167 2.855 1.167c.278 0 .549-.034.813-.104.264-.07.48-.174.646-.312v-2.335H6.17v-2.5h4.96v6.252c-.473.458-1.105.847-1.897 1.167-.778.32-1.64.48-2.585.48ZM13.687 27.005V16.668h2.5l.21 1.813h.083c.375-.695.826-1.209 1.354-1.542.528-.348 1.056-.521 1.584-.521.292 0 .535.02.73.062.194.028.361.076.5.146l-.5 2.647a3.589 3.589 0 0 0-1.125-.167c-.39 0-.8.146-1.23.438-.417.278-.765.764-1.043 1.459v6.002h-3.063ZM25.096 27.255c-1.125 0-1.945-.368-2.459-1.104-.5-.75-.75-1.772-.75-3.064v-6.42h3.064v6.024c0 .736.104 1.25.312 1.542.208.278.535.417.98.417.389 0 .715-.09.98-.27.263-.181.548-.473.854-.876v-6.836h3.063v10.337h-2.5l-.23-1.438h-.062c-.431.514-.903.924-1.418 1.23-.514.305-1.125.458-1.834.458ZM33.837 27.005V16.668h2.5l.21 1.313h.083c.444-.417.93-.778 1.458-1.084.542-.32 1.16-.48 1.855-.48 1.126 0 1.939.376 2.439 1.126.514.736.771 1.75.771 3.043v6.42h-3.064v-6.024c0-.75-.104-1.264-.312-1.542-.195-.278-.514-.417-.96-.417-.388 0-.722.09-1 .27-.277.167-.583.41-.917.73v6.982h-3.063ZM49.745 27.255c-1.279 0-2.196-.368-2.752-1.104-.541-.737-.812-1.702-.812-2.897v-4.19h-1.418v-2.271l1.584-.125.355-2.752h2.542v2.752h2.48v2.396h-2.48v4.148c0 .584.118 1.007.355 1.271.25.25.576.375.98.375.166 0 .333-.02.5-.062.18-.042.34-.09.479-.146l.48 2.23c-.265.084-.591.167-.98.25a6.103 6.103 0 0 1-1.313.125ZM55.472 27.005l-2.584-10.337h3.043l1 4.793c.084.514.16 1.022.23 1.522.069.5.145 1.014.229 1.542h.083a74.74 74.74 0 0 0 .271-1.563 23.75 23.75 0 0 1 .334-1.5l1.146-4.794h2.647l1.167 4.793c.125.514.236 1.022.333 1.522.111.5.216 1.014.313 1.542h.083c.098-.528.174-1.042.23-1.542.07-.5.152-1.008.25-1.522l.98-4.793h2.834l-2.48 10.337h-3.585l-.938-4.127-.292-1.458c-.083-.487-.174-1.008-.27-1.564h-.084c-.097.556-.188 1.077-.271 1.564-.07.486-.153.972-.25 1.458l-.917 4.127h-3.502ZM74.2 27.255a5.176 5.176 0 0 1-2.48-.625c-.764-.43-1.383-1.049-1.855-1.855-.473-.82-.709-1.8-.709-2.939 0-1.153.236-2.132.709-2.938.472-.806 1.09-1.418 1.855-1.834a5.044 5.044 0 0 1 2.48-.646c.875 0 1.695.215 2.46.646.763.416 1.382 1.028 1.854 1.834.473.806.709 1.785.709 2.938 0 1.14-.236 2.12-.709 2.94-.472.805-1.09 1.423-1.855 1.854a5.057 5.057 0 0 1-2.46.625Zm0-2.48c.625 0 1.098-.264 1.417-.792.32-.542.48-1.257.48-2.147 0-.903-.16-1.618-.48-2.146-.32-.528-.792-.792-1.417-.792-.64 0-1.119.264-1.438.792-.306.528-.459 1.243-.459 2.146 0 .89.153 1.605.459 2.147.32.528.799.792 1.438.792ZM81.321 27.005V16.668h2.501l.209 1.813h.083c.375-.695.827-1.209 1.355-1.542.528-.348 1.056-.521 1.584-.521.292 0 .535.02.73.062.194.028.36.076.5.146l-.5 2.647a3.588 3.588 0 0 0-1.125-.167c-.39 0-.8.146-1.23.438-.418.278-.765.764-1.043 1.459v6.002h-3.064ZM89.626 27.005v-14.61h2.98v8.378h.083l3.273-4.105h3.334l-3.626 4.251 3.897 6.086h-3.314l-2.334-4.022-1.313 1.48v2.542h-2.98ZM101.948 27.255a1.26 1.26 0 0 1-.896-.354c-.236-.25-.354-.563-.354-.938 0-.403.118-.723.354-.959.25-.25.549-.375.896-.375.334 0 .619.125.855.375.25.236.375.556.375.959 0 .375-.125.688-.375.938a1.164 1.164 0 0 1-.855.354ZM106.242 27.005v-10.13h1.709v10.13h-1.709Zm.876-12.213c-.334 0-.612-.098-.834-.292-.209-.209-.313-.486-.313-.834 0-.333.104-.604.313-.813.222-.208.5-.312.834-.312.333 0 .604.104.812.312.223.209.334.48.334.813 0 .348-.111.625-.334.834-.208.194-.479.292-.812.292ZM115.31 27.255a4.554 4.554 0 0 1-2.313-.625c-.709-.417-1.285-1.021-1.73-1.813-.431-.792-.646-1.744-.646-2.856 0-1.14.215-2.105.646-2.897.445-.792 1.021-1.396 1.73-1.813a4.554 4.554 0 0 1 2.313-.625c.834 0 1.605.208 2.314.625.709.417 1.278 1.021 1.709 1.813.445.792.667 1.758.667 2.897 0 1.112-.222 2.064-.667 2.856-.431.792-1 1.396-1.709 1.813a4.484 4.484 0 0 1-2.314.625Zm0-1.417c.876 0 1.577-.355 2.105-1.063.542-.723.813-1.66.813-2.814 0-1.167-.271-2.112-.813-2.834-.528-.723-1.229-1.084-2.105-1.084-.861 0-1.563.361-2.105 1.084-.541.722-.812 1.667-.812 2.834 0 1.154.271 2.091.812 2.814.542.709 1.244 1.063 2.105 1.063Z"/></svg>